<?xml version="1.0" encoding="utf-8"?>
<svg version="1.1" xmlns:xlink="http://www.w3.org/1999/xlink" width="328px" height="276px" xmlns="http://www.w3.org/2000/svg">
  <defs>
    <linearGradient gradientUnits="userSpaceOnUse" x1="166" y1="10" x2="166" y2="270" id="LinearGradient317">
      <stop id="Stop318" stop-color="#000000" stop-opacity="0" offset="0" />
      <stop id="Stop319" stop-color="#000000" stop-opacity="0" offset="0.95" />
      <stop id="Stop320" stop-color="#000000" stop-opacity="0.0392156862745098" offset="1" />
    </linearGradient>
    <filter x="2px" y="4px" width="328px" height="276px" filterUnits="userSpaceOnUse" id="filter321">
      <feOffset dx="0" dy="2" in="SourceAlpha" result="shadowOffsetInner" />
      <feGaussianBlur stdDeviation="4" in="shadowOffsetInner" result="shadowGaussian" />
      <feComposite in2="shadowGaussian" operator="atop" in="SourceAlpha" result="shadowComposite" />
      <feColorMatrix type="matrix" values="0 0 0 0 0  0 0 0 0 0  0 0 0 0 0  0 0 0 0.2 0  " in="shadowComposite" />
    </filter>
    <g id="widget322">
      <path d="M 10.5 12  A 1.5 1.5 0 0 1 12 10.5 L 320 10.5  A 1.5 1.5 0 0 1 321.5 12 L 321.5 268  A 1.5 1.5 0 0 1 320 269.5 L 12 269.5  A 1.5 1.5 0 0 1 10.5 268 L 10.5 12  Z " fill-rule="nonzero" fill="#ffffff" stroke="none" />
      <path d="M 10.5 12  A 1.5 1.5 0 0 1 12 10.5 L 320 10.5  A 1.5 1.5 0 0 1 321.5 12 L 321.5 268  A 1.5 1.5 0 0 1 320 269.5 L 12 269.5  A 1.5 1.5 0 0 1 10.5 268 L 10.5 12  Z " stroke-width="1" stroke="url(#LinearGradient317)" fill="none" />
    </g>
  </defs>
  <g transform="matrix(1 0 0 1 -2 -4 )">
    <use xlink:href="#widget322" filter="url(#filter321)" />
    <use xlink:href="#widget322" />
  </g>
</svg>