<?xml version="1.0" encoding="utf-8"?>
<svg version="1.1" xmlns:xlink="http://www.w3.org/1999/xlink" width="19px" height="19px" xmlns="http://www.w3.org/2000/svg">
  <g transform="matrix(1 0 0 1 -325 -56 )">
    <path d="M 12.96 0.290790000000001  C 12.96 0.290790000000001  11 2.23079  11 2.23079  L 15.77 7.00079  C 15.77 7.00079  17.71 5.00079  17.71 5.00079  C 18.09772 4.61075  18.09772 3.98083  17.71 3.59079  C 17.71 3.59079  14.37 0.290790000000001  14.37 0.290790000000001  C 13.97996 -0.0969300000000004  13.35004 -0.0969300000000004  12.96 0.290790000000001  Z M 4.75 18.00079  L 14.71 8.04079  L 9.96 3.29079  L 0 13.25079  L 0 18.00079  L 4.75 18.00079  Z " fill-rule="nonzero" fill="#54595d" stroke="none" transform="matrix(1 0 0 1 325 56 )" />
  </g>
</svg>