<?xml version="1.0" encoding="utf-8"?>
<svg version="1.1" xmlns:xlink="http://www.w3.org/1999/xlink" width="12px" height="12px" xmlns="http://www.w3.org/2000/svg">
  <g transform="matrix(1 0 0 1 -182 -122 )">
    <path d="M 8.66666666666667 12  L 8.66666666666667 0  L 12 0  L 12 12  L 8.66666666666667 12  Z M 4.66666666666667 4  L 8 4  L 8 12  L 4.66666666666667 12  L 4.66666666666667 4  Z M 4 12  L 0 12  L 0 8  L 4 8  L 4 12  Z M 9.33333333333333 11.3333333333333  L 11.3333333333333 11.3333333333333  L 11.3333333333333 0.666666666666667  L 9.33333333333333 0.666666666666667  L 9.33333333333333 11.3333333333333  Z M 7.33333333333333 4.66666666666667  L 5.33333333333333 4.66666666666667  L 5.33333333333333 11.3333333333333  L 7.33333333333333 11.3333333333333  L 7.33333333333333 4.66666666666667  Z " fill-rule="nonzero" fill="#14866d" stroke="none" transform="matrix(1 0 0 1 182 122 )" />
  </g>
</svg>