<?xml version="1.0" encoding="utf-8"?>
<svg version="1.1" xmlns:xlink="http://www.w3.org/1999/xlink" width="24px" height="24px" viewBox="16 420  24 24" xmlns="http://www.w3.org/2000/svg">
  <path d="M 28 420  C 34.72 420  40 425.28  40 432  C 40 438.72  34.72 444  28 444  C 21.28 444  16 438.72  16 432  C 16 425.28  21.28 420  28 420  Z " fill-rule="nonzero" fill="#ffffff" stroke="none" />
  <path d="M 28 420.5  C 34.44 420.5  39.5 425.56  39.5 432  C 39.5 438.44  34.44 443.5  28 443.5  C 21.56 443.5  16.5 438.44  16.5 432  C 16.5 425.56  21.56 420.5  28 420.5  Z " stroke-width="1" stroke="#797979" fill="none" />
  <path d="M 28 438  C 24.64 438  22 435.36  22 432  C 22 428.64  24.64 426  28 426  C 31.36 426  34 428.64  34 432  C 34 435.36  31.36 438  28 438  " fill-rule="nonzero" fill="#797979" stroke="none" />
</svg>