<?xml version="1.0" encoding="utf-8"?>
<svg version="1.1" xmlns:xlink="http://www.w3.org/1999/xlink" width="24px" height="24px" viewBox="16 254  24 24" xmlns="http://www.w3.org/2000/svg">
  <path d="M 28 254  C 34.72 254  40 259.28  40 266  C 40 272.72  34.72 278  28 278  C 21.28 278  16 272.72  16 266  C 16 259.28  21.28 254  28 254  Z " fill-rule="nonzero" fill="#f0f0f0" stroke="none" />
  <path d="M 28 254.5  C 34.44 254.5  39.5 259.56  39.5 266  C 39.5 272.44  34.44 277.5  28 277.5  C 21.56 277.5  16.5 272.44  16.5 266  C 16.5 259.56  21.56 254.5  28 254.5  Z " stroke-width="1" stroke="#797979" fill="none" />
  <path d="M 28 272  C 24.64 272  22 269.36  22 266  C 22 262.64  24.64 260  28 260  C 31.36 260  34 262.64  34 266  C 34 269.36  31.36 272  28 272  " fill-rule="nonzero" fill="#797979" stroke="none" />
</svg>