<?xml version="1.0" encoding="utf-8"?>
<svg version="1.1" xmlns:xlink="http://www.w3.org/1999/xlink" width="24px" height="24px" viewBox="16 154  24 24" xmlns="http://www.w3.org/2000/svg">
  <path d="M 28 154  C 34.72 154  40 159.28  40 166  C 40 172.72  34.72 178  28 178  C 21.28 178  16 172.72  16 166  C 16 159.28  21.28 154  28 154  Z " fill-rule="nonzero" fill="#f0f0f0" stroke="none" />
  <path d="M 28 154.5  C 34.44 154.5  39.5 159.56  39.5 166  C 39.5 172.44  34.44 177.5  28 177.5  C 21.56 177.5  16.5 172.44  16.5 166  C 16.5 159.56  21.56 154.5  28 154.5  Z " stroke-width="1" stroke="#797979" fill="none" />
  <path d="M 28 172  C 24.64 172  22 169.36  22 166  C 22 162.64  24.64 160  28 160  C 31.36 160  34 162.64  34 166  C 34 169.36  31.36 172  28 172  " fill-rule="nonzero" fill="#797979" stroke="none" />
</svg>