<?xml version="1.0" encoding="utf-8"?>
<svg version="1.1" xmlns:xlink="http://www.w3.org/1999/xlink" width="24px" height="24px" viewBox="0 586  24 24" xmlns="http://www.w3.org/2000/svg">
  <path d="M 0.5 588  A 1.5 1.5 0 0 1 2 586.5 L 22 586.5  A 1.5 1.5 0 0 1 23.5 588 L 23.5 608  A 1.5 1.5 0 0 1 22 609.5 L 2 609.5  A 1.5 1.5 0 0 1 0.5 608 L 0.5 588  Z " fill-rule="nonzero" fill="#ffffff" stroke="none" />
  <path d="M 0.5 588  A 1.5 1.5 0 0 1 2 586.5 L 22 586.5  A 1.5 1.5 0 0 1 23.5 588 L 23.5 608  A 1.5 1.5 0 0 1 22 609.5 L 2 609.5  A 1.5 1.5 0 0 1 0.5 608 L 0.5 588  Z " stroke-width="1" stroke="#a2a9b1" fill="none" />
</svg>