<?xml version="1.0" encoding="utf-8"?>
<svg version="1.1" xmlns:xlink="http://www.w3.org/1999/xlink" width="24px" height="24px" viewBox="0 534  24 24" xmlns="http://www.w3.org/2000/svg">
  <path d="M 0.5 536  A 1.5 1.5 0 0 1 2 534.5 L 22 534.5  A 1.5 1.5 0 0 1 23.5 536 L 23.5 556  A 1.5 1.5 0 0 1 22 557.5 L 2 557.5  A 1.5 1.5 0 0 1 0.5 556 L 0.5 536  Z " fill-rule="nonzero" fill="#ffffff" stroke="none" />
  <path d="M 0.5 536  A 1.5 1.5 0 0 1 2 534.5 L 22 534.5  A 1.5 1.5 0 0 1 23.5 536 L 23.5 556  A 1.5 1.5 0 0 1 22 557.5 L 2 557.5  A 1.5 1.5 0 0 1 0.5 556 L 0.5 536  Z " stroke-width="1" stroke="#a2a9b1" fill="none" />
  <path d="M 5.14285714285714 546  L 10.2857142857143 551.142857142857  " stroke-width="5.14285714285714" stroke="#a2a9b1" fill="none" />
  <path d="M 10.2857142857143 551.142857142857  L 18.8571428571429 539.142857142857  " stroke-width="5.14285714285714" stroke="#a2a9b1" fill="none" />
</svg>