<?xml version="1.0" encoding="utf-8"?>
<svg version="1.1" xmlns:xlink="http://www.w3.org/1999/xlink" width="18px" height="20px" xmlns="http://www.w3.org/2000/svg">
  <g transform="matrix(1 0 0 1 -17 -10 )">
    <path d="M 9 0.476190476190693  C 9.73054999999999 0.476190476190693  10.3548600000001 0.97743809523828  10.4784 1.66318095238109  C 10.6019400000001 2.3489333333334  10.18877 3.0197047619049  9.49999999999989 3.25162857142881  C 9.49999999999989 3.25162857142881  9.49999999999989 5.23734285714292  9.49999999999989 5.23734285714292  C 9.49999999999989 5.23734285714292  16.0050000000001 5.23734285714292  16.0050000000001 5.23734285714292  C 17.1069999999999 5.23734285714292  18 6.09067619047632  18 7.13924761904764  C 18 7.13924761904764  18 13.8087714285715  18 13.8087714285715  L 10.9999999999999 13.8087714285715  L 10.9999999999999 15.7135333333333  C 10.9999999999999 15.7135333333333  16.0050000000001 15.7135333333333  16.0050000000001 15.7135333333333  C 17.1069999999999 15.7135333333333  18 16.5592476190477  18 17.6182952380954  C 18 17.6182952380954  18 19.5230571428572  18 19.5230571428572  L 0 19.5230571428572  C 0 19.5230571428572  0 17.6182952380954  0 17.6182952380954  C 0 16.5659142857144  0.893000000000143 15.7135333333333  1.99499999999989 15.7135333333333  C 1.99499999999989 15.7135333333333  7.00000000000011 15.7135333333333  7.00000000000011 15.7135333333333  L 7.00000000000011 13.8087714285715  L 0 13.8087714285715  C 0 13.8087714285715  0 7.13924761904764  0 7.13924761904764  C 0 6.08877142857149  0.893000000000143 5.23734285714292  1.99499999999989 5.23734285714292  C 1.99499999999989 5.23734285714292  8.50000000000011 5.23734285714292  8.50000000000011 5.23734285714292  C 8.50000000000011 5.23734285714292  8.50000000000011 3.25162857142881  8.50000000000011 3.25162857142881  C 7.81122700000003 3.0197047619049  7.39806499999986 2.3489333333334  7.52160300000003 1.66318095238109  C 7.64514099999985 0.97743809523828  8.26944600000002 0.476190476190693  9 0.476190476190693  Z M 6.99999999999977 9.5230571428572  C 6.99999999999977 8.73407619047612  6.32842699999992 8.09448571428577  5.49999999999977 8.09448571428577  C 4.67157299999963 8.09448571428577  3.99999999999977 8.73407619047612  3.99999999999977 9.5230571428572  C 3.99999999999977 10.3120352380954  4.67157299999963 10.9516285714286  5.49999999999977 10.9516285714286  C 6.32842699999992 10.9516285714286  6.99999999999977 10.3120352380954  6.99999999999977 9.5230571428572  Z M 12.5000000000002 8.09448571428577  C 11.6715700000001 8.09448571428577  11.0000000000002 8.73407619047612  11.0000000000002 9.5230571428572  C 11.0000000000002 10.3120352380954  11.6715700000001 10.9516285714286  12.5000000000002 10.9516285714286  C 13.3284300000004 10.9516285714286  14.0000000000002 10.3120352380954  14.0000000000002 9.5230571428572  C 14.0000000000002 8.73407619047612  13.3284300000004 8.09448571428577  12.5000000000002 8.09448571428577  Z " fill-rule="nonzero" fill="#54595d" stroke="none" transform="matrix(1 0 0 1 17 10 )" />
  </g>
</svg>