<?xml version="1.0" encoding="utf-8"?>
<svg version="1.1" xmlns:xlink="http://www.w3.org/1999/xlink" width="18px" height="18px" xmlns="http://www.w3.org/2000/svg">
  <g transform="matrix(1 0 0 1 -286 -285 )">
    <path d="M 6 0  L 6 2  L 2 2.000000000005  L 2 6  L 0 6  L 0 2  L 0 0  L 1.97473075200119 0  L 6 0  Z M 18 6  L 16 6  L 15.999999999995 2  L 12 2  L 12 0  L 16 0  L 18 0  L 18 1.97473075200119  L 18 6  Z M 2 12  L 2.000000000005 16  L 6 16  L 6 18  L 2 18  L 0 18  L 0 16.0252692479988  L 0 12  L 2 12  Z M 16 15.999999999995  L 16 12  L 18 12  L 18 16  L 18 18  L 16.0252692479988 18  L 12 18  L 12 16  L 16 15.999999999995  Z " fill-rule="nonzero" fill="#ffffff" stroke="none" transform="matrix(1 0 0 1 286 285 )" />
  </g>
</svg>