<?xml version="1.0" encoding="utf-8"?>
<svg version="1.1" xmlns:xlink="http://www.w3.org/1999/xlink" width="20px" height="20px" viewBox="14 292  20 20" xmlns="http://www.w3.org/2000/svg">
  <path d="M 14.5 294  A 1.5 1.5 0 0 1 16 292.5 L 32 292.5  A 1.5 1.5 0 0 1 33.5 294 L 33.5 310  A 1.5 1.5 0 0 1 32 311.5 L 16 311.5  A 1.5 1.5 0 0 1 14.5 310 L 14.5 294  Z " fill-rule="nonzero" fill="#ffffff" stroke="none" />
  <path d="M 14.5 294  A 1.5 1.5 0 0 1 16 292.5 L 32 292.5  A 1.5 1.5 0 0 1 33.5 294 L 33.5 310  A 1.5 1.5 0 0 1 32 311.5 L 16 311.5  A 1.5 1.5 0 0 1 14.5 310 L 14.5 294  Z " stroke-width="1" stroke="#a2a9b1" fill="none" />
</svg>