<?xml version="1.0" encoding="utf-8"?>
<svg version="1.1" xmlns:xlink="http://www.w3.org/1999/xlink" width="20px" height="20px" viewBox="32 276  20 20" xmlns="http://www.w3.org/2000/svg">
  <path d="M 32.5 278  A 1.5 1.5 0 0 1 34 276.5 L 50 276.5  A 1.5 1.5 0 0 1 51.5 278 L 51.5 294  A 1.5 1.5 0 0 1 50 295.5 L 34 295.5  A 1.5 1.5 0 0 1 32.5 294 L 32.5 278  Z " fill-rule="nonzero" fill="#ffffff" stroke="none" />
  <path d="M 32.5 278  A 1.5 1.5 0 0 1 34 276.5 L 50 276.5  A 1.5 1.5 0 0 1 51.5 278 L 51.5 294  A 1.5 1.5 0 0 1 50 295.5 L 34 295.5  A 1.5 1.5 0 0 1 32.5 294 L 32.5 278  Z " stroke-width="1" stroke="#a2a9b1" fill="none" />
  <path d="M 36.2857142857143 286  L 40.5714285714286 290.285714285714  " stroke-width="4.28571428571429" stroke="#a2a9b1" fill="none" />
  <path d="M 40.5714285714286 290.285714285714  L 47.7142857142857 280.285714285714  " stroke-width="4.28571428571429" stroke="#a2a9b1" fill="none" />
</svg>