<?xml version="1.0" encoding="utf-8"?>
<svg version="1.1" xmlns:xlink="http://www.w3.org/1999/xlink" width="35px" height="35px" xmlns="http://www.w3.org/2000/svg">
  <g transform="matrix(1 0 0 1 -288 -73 )">
    <path d="M 29.9425124201561 35  L 0 5.05748757984386  L 5.05748757984386 0  C 5.05748757984386 0  35 29.9425124201561  35 29.9425124201561  C 34.516569686737 29.6799935714156  33.9180446481554 29.7667572158876  33.5290581357121 30.1557437283309  C 33.1400716232687 30.5447302407743  33.0533079787967 31.1432552793559  33.3158268275373 31.6266855926189  C 32.8309667127971 31.3655905226058  32.2322493754566 31.4534554791644  31.8428524273105 31.8428524273105  C 31.4534554791644 32.2322493754566  31.3655905226058 32.8309667127971  31.6266855926189 33.3158268275373  C 31.1433150750705 33.0445818108705  30.5385199649285 33.1279709705598  30.1465882640536 33.5199026714347  C 29.7546565631786 33.9118343723097  29.6712674034894 34.5166294824517  29.9425124201561 35  Z " fill-rule="nonzero" fill="#dae4f6" stroke="none" transform="matrix(1 0 0 1 288 73 )" />
  </g>
</svg>