<?xml version="1.0" encoding="utf-8"?>
<svg version="1.1" xmlns:xlink="http://www.w3.org/1999/xlink" width="18px" height="18px" xmlns="http://www.w3.org/2000/svg">
  <g transform="matrix(1 0 0 1 -19 -272 )">
    <path d="M 13 18  L 13 0  L 18 0  L 18 18  L 13 18  Z M 7 6  L 12 6  L 12 18  L 7 18  L 7 6  Z M 6 18  L 0 18  L 0 12  L 6 12  L 6 18  Z M 14 17  L 17 17  L 17 1  L 14 1  L 14 17  Z M 11 7  L 8 7  L 8 17  L 11 17  L 11 7  Z " fill-rule="nonzero" fill="#14866d" stroke="none" transform="matrix(1 0 0 1 19 272 )" />
  </g>
</svg>