<?xml version="1.0" encoding="utf-8"?>
<svg version="1.1" xmlns:xlink="http://www.w3.org/1999/xlink" width="18px" height="18px" xmlns="http://www.w3.org/2000/svg">
  <g transform="matrix(1 0 0 1 -32 -97 )">
    <path d="M 10.3616666666662 12.1291666666671  C 10.3616666666662 12.1291666666671  15.5658333333329 17.3333333333337  15.5658333333329 17.3333333333337  L 17.3333333333329 15.5658333333337  C 17.3333333333329 15.5658333333337  12.1291666666663 10.361666666667  12.1291666666663 10.361666666667  C 12.783333333333 9.37333333333368  13.1666666666663 8.1900000000004  13.1666666666663 6.91666666666703  C 13.1666666666663 3.46416666666704  10.3683333333329 0.666666666667027  6.91666666666629 0.666666666667027  C 3.46499999999958 0.666666666667027  0.666666666666288 3.46416666666704  0.666666666666288 6.91666666666703  C 0.666666666666288 10.369166666667  3.46499999999958 13.166666666667  6.91666666666629 13.166666666667  C 8.1899999999996 13.166666666667  9.37333333333288 12.7833333333337  10.3616666666662 12.1291666666671  Z M 6.91666666666629 11.0833333333336  C 4.61583333333306 11.0833333333336  2.74999999999966 9.21833333333359  2.74999999999966 6.91666666666697  C 2.74999999999966 4.61500000000029  4.61583333333306 2.75000000000028  6.91666666666629 2.75000000000028  C 9.21749999999963 2.75000000000028  11.083333333333 4.61500000000029  11.083333333333 6.91666666666697  C 11.083333333333 9.21833333333359  9.21749999999963 11.0833333333336  6.91666666666629 11.0833333333336  Z " fill-rule="nonzero" fill="#000000" stroke="none" transform="matrix(1 0 0 1 32 97 )" />
  </g>
</svg>