<?xml version="1.0" encoding="utf-8"?>
<svg version="1.1" xmlns:xlink="http://www.w3.org/1999/xlink" width="24px" height="24px" viewBox="16 625  24 24" xmlns="http://www.w3.org/2000/svg">
  <path d="M 16.5 627  A 1.5 1.5 0 0 1 18 625.5 L 38 625.5  A 1.5 1.5 0 0 1 39.5 627 L 39.5 647  A 1.5 1.5 0 0 1 38 648.5 L 18 648.5  A 1.5 1.5 0 0 1 16.5 647 L 16.5 627  Z " fill-rule="nonzero" fill="#ffffff" stroke="none" />
  <path d="M 16.5 627  A 1.5 1.5 0 0 1 18 625.5 L 38 625.5  A 1.5 1.5 0 0 1 39.5 627 L 39.5 647  A 1.5 1.5 0 0 1 38 648.5 L 18 648.5  A 1.5 1.5 0 0 1 16.5 647 L 16.5 627  Z " stroke-width="1" stroke="#a2a9b1" fill="none" />
</svg>