<?xml version="1.0" encoding="utf-8"?>
<svg version="1.1" xmlns:xlink="http://www.w3.org/1999/xlink" width="384px" height="414px" xmlns="http://www.w3.org/2000/svg">
  <defs>
    <linearGradient gradientUnits="userSpaceOnUse" x1="207" y1="60" x2="207" y2="458" id="LinearGradient397">
      <stop id="Stop398" stop-color="#000000" stop-opacity="0" offset="0" />
      <stop id="Stop399" stop-color="#000000" stop-opacity="0" offset="0.95" />
      <stop id="Stop400" stop-color="#000000" stop-opacity="0.0392156862745098" offset="1" />
    </linearGradient>
    <filter x="15px" y="54px" width="384px" height="414px" filterUnits="userSpaceOnUse" id="filter401">
      <feOffset dx="0" dy="2" in="SourceAlpha" result="shadowOffsetInner" />
      <feGaussianBlur stdDeviation="4" in="shadowOffsetInner" result="shadowGaussian" />
      <feComposite in2="shadowGaussian" operator="atop" in="SourceAlpha" result="shadowComposite" />
      <feColorMatrix type="matrix" values="0 0 0 0 0  0 0 0 0 0  0 0 0 0 0  0 0 0 0.2 0  " in="shadowComposite" />
    </filter>
    <g id="widget402">
      <path d="M 23.5 62  A 1.5 1.5 0 0 1 25 60.5 L 389 60.5  A 1.5 1.5 0 0 1 390.5 62 L 390.5 456  A 1.5 1.5 0 0 1 389 457.5 L 25 457.5  A 1.5 1.5 0 0 1 23.5 456 L 23.5 62  Z " fill-rule="nonzero" fill="#ffffff" stroke="none" />
      <path d="M 23.5 62  A 1.5 1.5 0 0 1 25 60.5 L 389 60.5  A 1.5 1.5 0 0 1 390.5 62 L 390.5 456  A 1.5 1.5 0 0 1 389 457.5 L 25 457.5  A 1.5 1.5 0 0 1 23.5 456 L 23.5 62  Z " stroke-width="1" stroke="url(#LinearGradient397)" fill="none" />
    </g>
  </defs>
  <g transform="matrix(1 0 0 1 -15 -54 )">
    <use xlink:href="#widget402" filter="url(#filter401)" />
    <use xlink:href="#widget402" />
  </g>
</svg>