<?xml version="1.0" encoding="utf-8"?>
<svg version="1.1" xmlns:xlink="http://www.w3.org/1999/xlink" width="24px" height="24px" viewBox="32 228  24 24" xmlns="http://www.w3.org/2000/svg">
  <path d="M 44 228  C 50.72 228  56 233.28  56 240  C 56 246.72  50.72 252  44 252  C 37.28 252  32 246.72  32 240  C 32 233.28  37.28 228  44 228  Z " fill-rule="nonzero" fill="#ffffff" stroke="none" />
  <path d="M 44 228.5  C 50.44 228.5  55.5 233.56  55.5 240  C 55.5 246.44  50.44 251.5  44 251.5  C 37.56 251.5  32.5 246.44  32.5 240  C 32.5 233.56  37.56 228.5  44 228.5  Z " stroke-width="1" stroke="#797979" fill="none" />
  <path d="M 44 246  C 40.64 246  38 243.36  38 240  C 38 236.64  40.64 234  44 234  C 47.36 234  50 236.64  50 240  C 50 243.36  47.36 246  44 246  " fill-rule="nonzero" fill="#797979" stroke="none" />
</svg>