<?xml version="1.0" encoding="utf-8"?>
<svg version="1.1" xmlns:xlink="http://www.w3.org/1999/xlink" width="24px" height="24px" viewBox="32 170  24 24" xmlns="http://www.w3.org/2000/svg">
  <path d="M 44 170  C 50.72 170  56 175.28  56 182  C 56 188.72  50.72 194  44 194  C 37.28 194  32 188.72  32 182  C 32 175.28  37.28 170  44 170  Z " fill-rule="nonzero" fill="#ffffff" stroke="none" />
  <path d="M 44 170.5  C 50.44 170.5  55.5 175.56  55.5 182  C 55.5 188.44  50.44 193.5  44 193.5  C 37.56 193.5  32.5 188.44  32.5 182  C 32.5 175.56  37.56 170.5  44 170.5  Z " stroke-width="1" stroke="#797979" fill="none" />
  <path d="M 44 188  C 40.64 188  38 185.36  38 182  C 38 178.64  40.64 176  44 176  C 47.36 176  50 178.64  50 182  C 50 185.36  47.36 188  44 188  " fill-rule="nonzero" fill="#797979" stroke="none" />
</svg>