<?xml version="1.0" encoding="utf-8"?>
<svg version="1.1" xmlns:xlink="http://www.w3.org/1999/xlink" width="24px" height="24px" viewBox="39 202  24 24" xmlns="http://www.w3.org/2000/svg">
  <path d="M 51 202  C 57.72 202  63 207.28  63 214  C 63 220.72  57.72 226  51 226  C 44.28 226  39 220.72  39 214  C 39 207.28  44.28 202  51 202  Z " fill-rule="nonzero" fill="#ffffff" stroke="none" />
  <path d="M 51 202.5  C 57.44 202.5  62.5 207.56  62.5 214  C 62.5 220.44  57.44 225.5  51 225.5  C 44.56 225.5  39.5 220.44  39.5 214  C 39.5 207.56  44.56 202.5  51 202.5  Z " stroke-width="1" stroke="#797979" fill="none" />
  <path d="M 51 220  C 47.64 220  45 217.36  45 214  C 45 210.64  47.64 208  51 208  C 54.36 208  57 210.64  57 214  C 57 217.36  54.36 220  51 220  " fill-rule="nonzero" fill="#797979" stroke="none" />
</svg>