<?xml version="1.0" encoding="utf-8"?>
<svg version="1.1" xmlns:xlink="http://www.w3.org/1999/xlink" width="26px" height="22px" xmlns="http://www.w3.org/2000/svg">
  <g transform="matrix(1 0 0 1 -15 -17 )">
    <path d="M 25.7272727272734 18.6363636363638  C 25.7272727272734 18.6363636363638  25.7272727272734 3.36363636363653  25.7272727272734 3.36363636363653  C 25.7272727272734 1.95782000000016  24.5876345454552 0.818181818181984  23.1818181818188 0.818181818181984  C 23.1818181818188 0.818181818181984  2.81818181818247 0.818181818181984  2.81818181818247 0.818181818181984  C 1.41236558181884 0.818181818181984  0.272727272727931 1.95782000000016  0.272727272727931 3.36363636363653  C 0.272727272727931 3.36363636363653  0.272727272727931 18.6363636363638  0.272727272727931 18.6363636363638  C 0.272727272727931 20.0421800000002  1.41236596363702 21.1818181818184  2.81818181818247 21.1818181818184  C 2.81818181818247 21.1818181818184  23.1818181818188 21.1818181818184  23.1818181818188 21.1818181818184  C 24.5876345454552 21.1818181818184  25.7272727272734 20.0421800000002  25.7272727272734 18.6363636363638  Z M 16.7163636363643 8.45454545454562  L 23.3981818181825 17  L 2.60181818181884 17  L 7.80727272727339 10.6818181818183  L 11.523636363637 15.1490909090911  L 16.7163636363643 8.45454545454562  Z " fill-rule="nonzero" fill="#000000" stroke="none" transform="matrix(1 0 0 1 15 17 )" />
  </g>
</svg>