<svg width="20" height="20" viewBox="0 0 20 20" fill="none" xmlns="http://www.w3.org/2000/svg">
<path d="M3.26292 2.60986L4.84904 3.87861C3.10688 5.34612 2 7.54376 2 9.99993C2 12.4561 3.10688 14.6537 4.84904 16.1212L3.26292 17.39C1.258 15.5612 0 12.9275 0 9.99993C0 7.07239 1.258 4.43867 3.26292 2.60986ZM20 9.99993C20 12.9275 18.742 15.5612 16.7371 17.39L15.151 16.1212C16.8931 14.6537 18 12.4561 18 9.99993C18 7.54423 16.8935 5.34696 15.152 3.87946L16.7381 2.61077C18.7424 4.43954 20 7.07287 20 9.99993ZM6.45087 5.16169L8.09965 6.4793C6.84931 7.15563 6 8.47859 6 9.99993C6 11.5217 6.84976 12.8449 8.10066 13.5211L6.45187 14.8389C4.96507 13.7469 4 11.9861 4 9.99993C4 8.0142 4.96464 6.25377 6.45087 5.16169ZM16 9.99993C16 11.9861 15.0349 13.7469 13.5481 14.8389L11.9004 13.5206C13.1507 12.8442 14 11.5213 14 9.99993C14 8.479 13.1511 7.15633 11.9014 6.47984L13.5491 5.16169C15.0354 6.25377 16 8.0142 16 9.99993ZM10 7.99993C11.1046 7.99993 12 8.89536 12 9.99993C12 11.1045 11.1046 11.9999 10 11.9999C8.89543 11.9999 8 11.1045 8 9.99993C8 8.89536 8.89543 7.99993 10 7.99993Z" fill="#14866D"/>
</svg>
