<svg width="16" height="16" viewBox="0 0 16 16" fill="none" xmlns="http://www.w3.org/2000/svg">
<path fill-rule="evenodd" clip-rule="evenodd" d="M8.39999 3.99937H13.604C14.4856 3.99937 15.2 4.71617 15.2 5.59697V11.1994H9.59999V12.7994H13.604C14.4856 12.7994 15.2 13.5098 15.2 14.3994V15.9994H0.799988V14.3994C0.799988 13.5154 1.51439 12.7994 2.39599 12.7994H6.39999V11.1994H0.799988V5.59697C0.799988 4.71457 1.51439 3.99937 2.39599 3.99937H7.59999V2.33137C7.04897 2.13655 6.71844 1.5731 6.81727 0.997072C6.9161 0.421048 7.41554 0 7.99999 0C8.58443 0 9.08388 0.421048 9.18271 0.997072C9.28154 1.5731 8.951 2.13655 8.39999 2.33137V3.99937ZM5.19999 8.79937C5.86273 8.79937 6.39999 8.26211 6.39999 7.59937C6.39999 6.93662 5.86273 6.39937 5.19999 6.39937C4.53725 6.39937 3.99999 6.93662 3.99999 7.59937C3.99999 8.26211 4.53725 8.79937 5.19999 8.79937ZM10.8 8.79937C11.4627 8.79937 12 8.26211 12 7.59937C12 6.93662 11.4627 6.39937 10.8 6.39937C10.1372 6.39937 9.59999 6.93662 9.59999 7.59937C9.59999 8.26211 10.1372 8.79937 10.8 8.79937Z" fill="#54595d"/>
</svg>
