<svg width="64" height="64" viewBox="0 0 64 64" fill="none" xmlns="http://www.w3.org/2000/svg">
<path d="M44 60C44 61.1046 44.8954 62 46 62H50C51.1046 62 52 61.1046 52 60V58H44V60Z" fill="#54595D"/>
<path d="M44.61 61.43C44.9789 61.7975 45.4792 62.0027 46 62H50C50.1932 61.9965 50.3851 61.9662 50.57 61.91C50.5714 61.7643 50.5092 61.6253 50.3997 61.5292C50.2902 61.4331 50.1442 61.3896 50 61.41L44.61 61.43Z" fill="#72777D"/>
<path d="M50.285 60.285C50.2864 60.209 50.2568 60.1357 50.203 60.0819C50.1493 60.0282 50.076 59.9986 50 60H44C44.0039 60.1936 44.0359 60.3856 44.095 60.57H50C50.076 60.5714 50.1493 60.5418 50.203 60.488C50.2568 60.4343 50.2864 60.361 50.285 60.285Z" fill="#72777D"/>
<path d="M50 59.145H44V58.57H50C50.076 58.5686 50.1493 58.5982 50.203 58.652C50.2568 58.7057 50.2864 58.779 50.285 58.855C50.2863 58.9314 50.2569 59.0052 50.2033 59.0598C50.1497 59.1143 50.0765 59.145 50 59.145Z" fill="#72777D"/>
<path d="M62 36C61.9991 29.6815 57.766 24.1466 51.6682 22.4911C45.5704 20.8356 39.1194 23.4698 35.9232 28.9203C32.7271 34.3708 33.578 41.2868 38 45.8C38 45.8 42 50 42 52V54C42 55.1046 42.8955 56 44 56H52C53.1046 56 54 55.1046 54 54V52C54 50 58 45.8 58 45.8C60.5704 43.1866 62.0076 39.6656 62 36Z" fill="#FFCC33"/>
<path d="M38.11 38.18C38.11 30.7711 44.1161 24.765 51.525 24.765C51.89 24.765 52.255 24.765 52.62 24.815C47.0194 22.2587 40.3922 24.3153 37.2226 29.5932C34.0531 34.871 35.3518 41.6874 40.24 45.43C38.8471 43.2687 38.1075 40.7513 38.11 38.18Z" fill="#FEF6E7"/>
<path fill-rule="evenodd" clip-rule="evenodd" d="M40.36 3.17501C40.2474 3.06204 40.0945 2.99854 39.935 2.99854C39.7755 2.99854 39.6226 3.06204 39.51 3.17501L2.17501 40.5C2.06204 40.6126 1.99854 40.7655 1.99854 40.925C1.99854 41.0845 2.06204 41.2374 2.17501 41.35L9.39001 48.57C9.50173 48.6827 9.65383 48.7461 9.81251 48.7461C9.97118 48.7461 10.1233 48.6827 10.235 48.57L47.57 11.235C47.6827 11.1233 47.7461 10.9712 47.7461 10.8125C47.7461 10.6538 47.6827 10.5017 47.57 10.39L40.36 3.17501ZM38.66 12.085C37.7231 11.1476 37.7234 9.62825 38.6606 8.69119C39.5978 7.75413 41.1172 7.75413 42.0544 8.69119C42.9916 9.62825 42.9919 11.1476 42.055 12.085C41.1165 13.0201 39.5985 13.0201 38.66 12.085Z" fill="#8EA4CF"/>
<path d="M10.8734 41.5723L14.0554 44.7543L13.6312 45.1785L10.4492 41.9965C10.332 41.8794 10.332 41.6894 10.4492 41.5723C10.5663 41.4551 10.7563 41.4551 10.8734 41.5723Z" fill="#2A4B8D"/>
<path fill-rule="evenodd" clip-rule="evenodd" d="M47.165 48.165L38.465 44.555L37.83 43.92L42.92 38.83L43.555 39.465L47.165 48.165Z" fill="#F8F9FA"/>
<path d="M42.665 46.295L47.165 48.165L45.295 43.665L42.665 46.295Z" fill="#2A4B8D"/>
<path d="M13.842 36.0543L18.2967 40.5091L17.8725 40.9333L13.4177 36.4786C13.3005 36.3614 13.3005 36.1715 13.4177 36.0543C13.5348 35.9371 13.7248 35.9371 13.842 36.0543Z" fill="#2A4B8D"/>
<path d="M19.3476 33.0979L22.5295 36.2799L22.1053 36.7041L18.9233 33.5221C18.8061 33.405 18.8061 33.215 18.9233 33.0979C19.0405 32.9807 19.2304 32.9807 19.3476 33.0979Z" fill="#2A4B8D"/>
<path d="M22.33 27.5729L26.7848 32.0276L26.3605 32.4519L21.9057 27.9971C21.7886 27.88 21.7886 27.69 21.9057 27.5729C22.0229 27.4557 22.2128 27.4557 22.33 27.5729Z" fill="#2A4B8D"/>
<path d="M27.8321 24.5917L31.014 27.7736L30.5898 28.1979L27.4078 25.0159C27.2906 24.8988 27.2906 24.7088 27.4078 24.5917C27.525 24.4745 27.7149 24.4745 27.8321 24.5917Z" fill="#2A4B8D"/>
<path d="M30.8146 19.0878L35.2517 23.5249L34.8274 23.9492L30.3903 19.5121C30.2732 19.3949 30.2732 19.205 30.3903 19.0878C30.5075 18.9707 30.6974 18.9707 30.8146 19.0878Z" fill="#2A4B8D"/>
<path d="M36.3379 16.1067L39.5199 19.2886L39.0956 19.7129L35.9137 16.5309C35.8574 16.4747 35.8258 16.3984 35.8258 16.3188C35.8258 16.2392 35.8574 16.1629 35.9137 16.1067C36.0308 15.9895 36.2208 15.9895 36.3379 16.1067Z" fill="#2A4B8D"/>
<path d="M8.33001 4.23501C7.39151 3.29992 5.87351 3.29992 4.93501 4.23501L3.23501 5.93501C2.29992 6.87351 2.29992 8.39151 3.23501 9.33001L5.78001 11.875L10.875 6.78001L8.33001 4.23501Z" fill="#7C94C2"/>
<path d="M5.78015 11.8749L10.8713 6.78374L13.4169 9.32932L8.32574 14.4205L5.78015 11.8749Z" fill="#2A4B8D"/>
<path d="M38.465 44.555L8.32996 14.42L13.42 9.32999L43.555 39.465C43.0684 39.2008 42.466 39.2881 42.0746 39.6796C41.6831 40.0711 41.5957 40.6734 41.86 41.16C41.372 40.8972 40.7694 40.9856 40.3775 41.3775C39.9856 41.7694 39.8972 42.372 40.16 42.86C39.6735 42.587 39.0648 42.6709 38.6703 43.0654C38.2759 43.4598 38.192 44.0685 38.465 44.555Z" fill="#DAE4F6"/>
</svg>
