<?xml version="1.0" encoding="utf-8"?>
<svg version="1.1" xmlns:xlink="http://www.w3.org/1999/xlink" width="16px" height="18px" xmlns="http://www.w3.org/2000/svg">
  <g transform="matrix(1 0 0 1 -32 -298 )">
    <path d="M 8 0.428571428571623  C 8.64937777777777 0.428571428571623  9.20432000000013 0.879694285714452  9.3141333333333 1.49686285714298  C 9.42394666666678 2.11404000000006  9.05668444444442 2.71773428571441  8.44444444444434 2.92646571428593  C 8.44444444444434 2.92646571428593  8.44444444444434 4.71360857142862  8.44444444444434 4.71360857142862  C 8.44444444444434 4.71360857142862  14.2266666666668 4.71360857142862  14.2266666666668 4.71360857142862  C 15.2062222222221 4.71360857142862  16 5.48160857142869  16 6.42532285714287  C 16 6.42532285714287  16 12.4278942857143  16 12.4278942857143  L 9.77777777777768 12.4278942857143  L 9.77777777777768 14.14218  C 9.77777777777768 14.14218  14.2266666666668 14.14218  14.2266666666668 14.14218  C 15.2062222222221 14.14218  16 14.9033228571429  16 15.8564657142859  C 16 15.8564657142859  16 17.5707514285715  16 17.5707514285715  L 0 17.5707514285715  C 0 17.5707514285715  0 15.8564657142859  0 15.8564657142859  C 0 14.909322857143  0.793777777777905 14.14218  1.77333333333324 14.14218  C 1.77333333333324 14.14218  6.22222222222232 14.14218  6.22222222222232 14.14218  L 6.22222222222232 12.4278942857143  L 0 12.4278942857143  C 0 12.4278942857143  0 6.42532285714287  0 6.42532285714287  C 0 5.47989428571434  0.793777777777905 4.71360857142862  1.77333333333324 4.71360857142862  C 1.77333333333324 4.71360857142862  7.55555555555566 4.71360857142862  7.55555555555566 4.71360857142862  C 7.55555555555566 4.71360857142862  7.55555555555566 2.92646571428593  7.55555555555566 2.92646571428593  C 6.94331288888892 2.71773428571441  6.57605777777765 2.11404000000006  6.68586933333336 1.49686285714298  C 6.79568088888876 0.879694285714452  7.35061866666668 0.428571428571623  8 0.428571428571623  Z M 6.22222222222202 8.57075142857148  C 6.22222222222202 7.8606685714285  5.62526844444437 7.2850371428572  4.88888888888869 7.2850371428572  C 4.152509333333 7.2850371428572  3.55555555555535 7.8606685714285  3.55555555555535 8.57075142857148  C 3.55555555555535 9.28083171428589  4.152509333333 9.85646571428577  4.88888888888869 9.85646571428577  C 5.62526844444437 9.85646571428577  6.22222222222202 9.28083171428589  6.22222222222202 8.57075142857148  Z M 11.1111111111113 7.2850371428572  C 10.374728888889 7.2850371428572  9.77777777777798 7.8606685714285  9.77777777777798 8.57075142857148  C 9.77777777777798 9.28083171428589  10.374728888889 9.85646571428577  11.1111111111113 9.85646571428577  C 11.8474933333337 9.85646571428577  12.4444444444446 9.28083171428589  12.4444444444446 8.57075142857148  C 12.4444444444446 7.8606685714285  11.8474933333337 7.2850371428572  11.1111111111113 7.2850371428572  Z " fill-rule="nonzero" fill="#14866d" stroke="none" transform="matrix(1 0 0 1 32 298 )" />
  </g>
</svg>