<?xml version="1.0" encoding="UTF-8" standalone="no"?>
<svg width="16px" height="21px" viewBox="0 0 16 21" version="1.1" xmlns="http://www.w3.org/2000/svg" xmlns:xlink="http://www.w3.org/1999/xlink" xmlns:sketch="http://www.bohemiancoding.com/sketch/ns">
    <!-- Generator: Sketch 3.3.3 (12072) - http://www.bohemiancoding.com/sketch -->
    <title>all</title>
    <desc>Created with Sketch.</desc>
    <defs></defs>
    <g id="Page-1" stroke="none" stroke-width="1" fill="none" fill-rule="evenodd" sketch:type="MSPage">
        <g id="Artboard-1-Copy" sketch:type="MSArtboardGroup" transform="translate(-197.000000, -247.000000)" fill="#000000" opacity="0.8">
            <g id="Group" sketch:type="MSLayerGroup" transform="translate(168.000000, 219.000000)">
                <path d="M41.6632933,28 C40.2277867,28 39.0394533,29.0705333 38.85056,30.4556133 L29.3922533,30.4556133 C29.1793867,30.4556133 29.00496,30.63004 29.00496,30.84332 L29,48.0305467 C29,48.13388 29.0405067,48.2322533 29.1132533,48.305 C29.1855867,48.3777467 29.2843733,48.41784 29.3877067,48.41784 L41.6632933,48.41784 C43.2310667,48.41784 44.5066133,47.1422933 44.5066133,45.57452 L44.5066133,30.84332 C44.5066133,29.2755467 43.2310667,28 41.6632933,28 L41.6632933,28 Z M41.6632933,47.64284 L29.775,47.64284 L29.77996,31.2322667 L38.8216267,31.2322667 L38.8216267,32.9132933 L31.8354667,32.9132933 C31.6221867,32.9132933 31.44776,33.0873067 31.44776,33.3005867 C31.44776,33.5138667 31.6221867,33.68788 31.8354667,33.68788 L38.8216267,33.68788 L38.8216267,35.5222533 L31.8354667,35.5222533 C31.6221867,35.5222533 31.44776,35.69668 31.44776,35.90996 C31.44776,36.1228267 31.6221867,36.2972533 31.8354667,36.2972533 L38.8216267,36.2972533 L38.8216267,38.1312133 L31.8354667,38.1312133 C31.6221867,38.1312133 31.44776,38.30564 31.44776,38.51892 C31.44776,38.7322 31.6221867,38.9066267 31.8354667,38.9066267 L38.8216267,38.9066267 L38.8216267,40.7405867 L31.8354667,40.7405867 C31.6221867,40.7405867 31.44776,40.9150133 31.44776,41.12788 C31.44776,41.34116 31.6221867,41.5155867 31.8354667,41.5155867 L38.8216267,41.5155867 L38.8216267,43.34996 L31.8354667,43.34996 C31.6221867,43.34996 31.44776,43.5239733 31.44776,43.7372533 C31.44776,43.9505333 31.6221867,44.1245467 31.8354667,44.1245467 L38.8216267,44.1245467 L38.8216267,45.5778267 C38.8216267,45.7911067 38.9960533,45.9655333 39.20892,45.9655333 C39.4222,45.9655333 39.5966267,45.7911067 39.5966267,45.5778267 C39.5966267,44.4378533 40.52332,43.5095067 41.6649467,43.5095067 C42.80492,43.5095067 43.7332667,44.4362 43.7332667,45.5778267 C43.7332667,46.7178 42.8032667,47.64284 41.6632933,47.64284 L41.6632933,47.64284 Z M41.6632933,42.7312 C40.8477867,42.7312 40.1149467,43.0784 39.5949733,43.62896 L39.5949733,30.84332 C39.5949733,29.7033467 40.5216667,28.775 41.6632933,28.775 C42.8032667,28.775 43.7316133,29.7016933 43.7316133,30.84332 L43.7316133,43.62896 C43.2132933,43.0784 42.4788,42.7312 41.6632933,42.7312 L41.6632933,42.7312 Z" id="all" sketch:type="MSShapeGroup"></path>
            </g>
        </g>
    </g>
</svg>