<?xml version="1.0" encoding="UTF-8" standalone="no"?>
<svg width="25px" height="18px" viewBox="0 0 25 18" version="1.1" xmlns="http://www.w3.org/2000/svg" xmlns:xlink="http://www.w3.org/1999/xlink" xmlns:sketch="http://www.bohemiancoding.com/sketch/ns">
    <!-- Generator: Sketch 3.3.3 (12072) - http://www.bohemiancoding.com/sketch -->
    <title>art</title>
    <desc>Created with Sketch.</desc>
    <defs></defs>
    <g id="Page-1" stroke="none" stroke-width="1" fill="none" fill-rule="evenodd" sketch:type="MSPage">
        <g id="Artboard-1-Copy" sketch:type="MSArtboardGroup" transform="translate(-198.000000, -559.000000)" fill="#000000" opacity="0.8">
            <g id="Group" sketch:type="MSLayerGroup" transform="translate(168.000000, 219.000000)">
                <path d="M51.155,348.789832 C51.155,348.499498 51.3973333,348.263832 51.6953333,348.263832 C51.9936667,348.263832 52.2356667,348.499498 52.2356667,348.789832 C52.2356667,349.080165 51.9936667,349.315832 51.6953333,349.315832 C51.3973333,349.315832 51.155,349.080165 51.155,348.789832 L51.155,348.789832 Z M45.793,343.163498 C45.793,342.873165 45.551,342.638832 45.2526667,342.638832 C44.9543333,342.638832 44.7123333,342.873165 44.7123333,343.163498 C44.7123333,343.453832 44.9543333,343.689498 45.2526667,343.689498 C45.551,343.689498 45.793,343.453832 45.793,343.163498 L45.793,343.163498 Z M45.2526667,349.315832 C45.551,349.315832 45.793,349.080165 45.793,348.789832 C45.793,348.499498 45.551,348.263832 45.2526667,348.263832 C44.9543333,348.263832 44.7123333,348.499498 44.7123333,348.789832 C44.7123333,349.080165 44.9533333,349.315832 45.2526667,349.315832 L45.2526667,349.315832 Z M44.7123333,354.469498 C44.7123333,354.759832 44.9543333,354.995498 45.2526667,354.995498 C45.551,354.995498 45.793,354.759832 45.793,354.469498 C45.793,354.179165 45.551,353.943498 45.2526667,353.943498 C44.9543333,353.943498 44.7123333,354.179165 44.7123333,354.469498 L44.7123333,354.469498 Z M39.8843333,343.163498 C39.8843333,342.873165 39.642,342.638832 39.3436667,342.638832 C39.0456667,342.638832 38.8033333,342.873165 38.8033333,343.163498 C38.8033333,343.453832 39.0456667,343.689498 39.3436667,343.689498 C39.642,343.689498 39.8843333,343.453832 39.8843333,343.163498 L39.8843333,343.163498 Z M39.8843333,348.789832 C39.8843333,348.499498 39.642,348.263832 39.3436667,348.263832 C39.0456667,348.263832 38.8033333,348.499498 38.8033333,348.789832 C38.8033333,349.080165 39.0456667,349.315832 39.3436667,349.315832 C39.642,349.315832 39.8843333,349.080165 39.8843333,348.789832 L39.8843333,348.789832 Z M39.8843333,354.469498 C39.8843333,354.179165 39.642,353.943498 39.3436667,353.943498 C39.0456667,353.943498 38.8033333,354.179165 38.8033333,354.469498 C38.8033333,354.759832 39.0456667,354.995498 39.3436667,354.995498 C39.642,354.995498 39.8843333,354.759832 39.8843333,354.469498 L39.8843333,354.469498 Z M32.7813333,348.263832 C32.483,348.263832 32.241,348.499498 32.241,348.789832 C32.241,349.080165 32.483,349.315832 32.7813333,349.315832 C33.0806667,349.315832 33.3216667,349.080165 33.3216667,348.789832 C33.3216667,348.499498 33.0793333,348.263832 32.7813333,348.263832 L32.7813333,348.263832 Z M36.608,356.978498 C36.1693333,356.561832 35.9543333,355.994165 35.9543333,355.392832 C35.9543333,354.658165 36.2746667,353.873165 36.8983333,353.252165 L37.177,353.517832 L36.9063333,353.244165 L38.677,351.589165 L36.2853333,349.352498 C35.6603333,350.064498 34.155,351.612832 32.9023333,351.612832 C31.302,351.612832 30,350.347165 30,348.791165 C30,347.235165 31.302,345.969498 32.9023333,345.969498 C34.155,345.969498 35.6603333,347.517832 36.2853333,348.229832 L38.677,345.992832 L36.9063333,344.338165 L37.177,344.064498 L36.8983333,344.328832 C36.2746667,343.707832 35.9543333,342.922498 35.9543333,342.188165 C35.9543333,341.586832 36.1693333,341.019165 36.608,340.602498 C37.577,339.683165 39.2683333,339.832832 40.3843333,340.935832 L40.388,340.931832 L42.2396667,342.662165 L44.0923333,340.931832 C45.246,339.845832 46.9426667,339.718165 47.8933333,340.650498 C48.849,341.588165 48.7033333,343.240498 47.569,344.332832 L47.5626667,344.326165 L47.573,344.336832 L45.802,345.991498 L48.194,348.228498 C48.8203333,347.516498 50.3256667,345.968165 51.577,345.968165 C53.177,345.968165 54.4793333,347.235165 54.4793333,348.789832 C54.4793333,350.347165 53.177,351.611498 51.577,351.611498 C50.3243333,351.611498 48.819,350.063165 48.194,349.351165 L45.802,351.588165 L47.573,353.242832 L47.5626667,353.253498 L47.569,353.246832 C48.7033333,354.339165 48.849,355.990498 47.8946667,356.929165 C46.944,357.861498 45.2473333,357.733832 44.0936667,356.647832 L42.241,354.917498 L40.3893333,356.647832 L40.3853333,356.643832 C39.267,357.746832 37.5756667,357.897832 36.608,356.978498 L36.608,356.978498 Z M45.2316667,352.119165 L42.806,354.386165 L44.621,356.082832 C45.452,356.877165 46.6926667,357.019165 47.3333333,356.390165 C47.983,355.752165 47.84,354.585498 47.0143333,353.789832 L47.0183333,353.785832 L45.2316667,352.119165 Z M44.664,351.588165 L42.2383333,349.319832 L39.8126667,351.588165 L42.2383333,353.854832 L44.664,351.588165 Z M48.733,348.789832 C49.4936667,349.668832 50.7813333,350.847165 51.5756667,350.847165 C52.7423333,350.847165 53.6913333,349.923832 53.6913333,348.789832 C53.6913333,347.655832 52.7423333,346.732498 51.5756667,346.732498 C50.7786667,346.732498 49.4923333,347.910832 48.733,348.789832 L48.733,348.789832 Z M45.2316667,346.521498 L42.806,348.789832 L45.2316667,351.058165 L47.6576667,348.789832 L45.2316667,346.521498 Z M44.664,345.991498 L42.2383333,343.723498 L39.8126667,345.991498 L42.2383333,348.259832 L44.664,345.991498 Z M42.806,343.193498 L45.2316667,345.461832 L47.0156667,343.793832 L47.0116667,343.789832 C47.8386667,342.995498 47.9806667,341.828832 47.3306667,341.190832 C46.69,340.561832 45.4506667,340.703832 44.6186667,341.498165 L42.806,343.193498 Z M39.245,345.460498 L41.6706667,343.192165 L39.8413333,341.482498 L40.1133333,341.207832 L39.8293333,341.478498 C39.017,340.670165 37.819,340.521498 37.1576667,341.149165 C36.5053333,341.769165 36.6433333,342.978498 37.4596667,343.793832 L39.245,345.460498 Z M35.7436667,348.789832 C34.983,347.910832 33.6966667,346.732498 32.901,346.732498 C31.7343333,346.732498 30.7853333,347.655832 30.7853333,348.789832 C30.7853333,349.923832 31.7343333,350.847165 32.901,350.847165 C33.698,350.847165 34.9843333,349.668832 35.7436667,348.789832 L35.7436667,348.789832 Z M39.245,351.058165 L41.6706667,348.789832 L39.245,346.522832 L36.819,348.789832 L39.245,351.058165 Z M39.8293333,356.102498 L40.1133333,356.371832 L39.8413333,356.097165 L41.6706667,354.386165 L39.245,352.119165 L37.4596667,353.788498 C36.6433333,354.602498 36.5053333,355.811832 37.1576667,356.433165 C37.8176667,357.058165 39.017,356.910832 39.8293333,356.102498 L39.8293333,356.102498 Z" id="art" sketch:type="MSShapeGroup"></path>
            </g>
        </g>
    </g>
</svg>