<?xml version="1.0" encoding="UTF-8" standalone="no"?>
<svg width="24px" height="21px" viewBox="0 0 24 21" version="1.1" xmlns="http://www.w3.org/2000/svg" xmlns:xlink="http://www.w3.org/1999/xlink" xmlns:sketch="http://www.bohemiancoding.com/sketch/ns">
    <!-- Generator: Sketch 3.3.3 (12072) - http://www.bohemiancoding.com/sketch -->
    <title>everyday</title>
    <desc>Created with Sketch.</desc>
    <defs></defs>
    <g id="Page-1" stroke="none" stroke-width="1" fill="none" fill-rule="evenodd" sketch:type="MSPage">
        <g id="Artboard-1-Copy" sketch:type="MSArtboardGroup" transform="translate(-198.000000, -497.000000)" fill="#000000" opacity="0.8">
            <g id="Group" sketch:type="MSLayerGroup" transform="translate(168.000000, 219.000000)">
                <path d="M53.3098636,284.378397 C53.3239436,284.288637 53.3015036,284.195797 53.2465036,284.125397 C53.2240636,284.096357 50.9400236,281.119317 49.3705436,279.493517 C47.8736636,277.941637 45.8971836,277.982557 44.7144636,278.006757 C44.5820236,278.010277 44.4601436,278.012037 44.3466236,278.012037 C44.1869036,278.012037 44.0562236,278.152837 44.0562236,278.328397 C44.0562236,279.373397 42.9804236,280.222157 41.6569036,280.222157 C40.3333836,280.222157 39.2575836,279.373397 39.2575836,278.328397 C39.2575836,278.154597 39.1269036,278.012037 38.9671836,278.012037 C38.8554236,278.012037 38.7331036,278.008517 38.6011036,278.006757 C37.4183836,277.982557 35.4419036,277.943397 33.9432636,279.493517 C32.3737836,281.119317 30.0897436,284.094597 30.0673036,284.125397 C30.0140636,284.195797 29.9898636,284.288637 30.0039436,284.378397 C30.0175836,284.469477 30.0673036,284.548237 30.1394636,284.596637 L35.2597436,288.003117 L35.2597436,297.588517 C35.2597436,297.937437 35.5211036,298.220797 35.8405436,298.220797 L47.4732636,298.220797 C47.7944636,298.220797 48.0540636,297.937437 48.0540636,297.588517 L48.0540636,288.003117 L53.1743436,284.596637 C53.2465036,284.546477 53.2962236,284.469477 53.3098636,284.378397 L53.3098636,284.378397 Z M48.0540636,287.262157 L48.0540636,281.799997 L47.4732636,281.799997 L47.4732636,297.588517 L35.8405436,297.588517 L35.8405436,281.799997 L35.2597436,281.799997 L35.2597436,287.262157 L30.7325836,284.249477 C31.3375836,283.472437 33.0821836,281.260557 34.3471836,279.950677 C35.6720236,278.579197 37.4289436,278.615277 38.5905436,278.637717 C38.6283836,278.639477 38.6644636,278.639477 38.7005436,278.640797 C38.8827036,279.886877 40.1393436,280.854877 41.6586636,280.854877 C43.1779836,280.854877 44.4341836,279.886877 44.6167836,278.640797 C44.6528636,278.639477 44.6889436,278.639477 44.7267836,278.637717 C45.8901436,278.613517 47.6448636,278.577437 48.9701436,279.950677 C50.2333836,281.260557 51.9797436,283.474197 52.5847436,284.249477 L48.0540636,287.262157 Z" id="everyday" sketch:type="MSShapeGroup"></path>
            </g>
        </g>
    </g>
</svg>