<?xml version="1.0" encoding="UTF-8" standalone="no"?>
<svg width="21px" height="21px" viewBox="0 0 21 21" version="1.1" xmlns="http://www.w3.org/2000/svg" xmlns:xlink="http://www.w3.org/1999/xlink" xmlns:sketch="http://www.bohemiancoding.com/sketch/ns">
    <!-- Generator: Sketch 3.3.3 (12072) - http://www.bohemiancoding.com/sketch -->
    <title>geo</title>
    <desc>Created with Sketch.</desc>
    <defs></defs>
    <g id="Page-1" stroke="none" stroke-width="1" fill="none" fill-rule="evenodd" sketch:type="MSPage">
        <g id="Artboard-1-Copy" sketch:type="MSArtboardGroup" transform="translate(-200.000000, -747.000000)" fill="#000000">
            <g id="Group" sketch:type="MSLayerGroup" transform="translate(168.000000, 219.000000)">
                <path d="M42.2179424,528 C41.9930891,528 41.7579957,528.008533 41.5314357,528.02688 C41.4495157,528.02688 41.3680224,528.0448 41.2882357,528.053333 C41.2349024,528.053333 41.1713291,528.061867 41.1162891,528.061867 C40.9631157,528.079787 40.8180491,528.098133 40.6648757,528.1152 C40.6465291,528.123307 40.6281824,528.123307 40.6013024,528.123307 C40.4664757,528.150187 40.3312224,528.168533 40.1946891,528.194987 C40.1865824,528.194987 40.1763424,528.20352 40.1682357,528.20352 C40.1315424,528.211627 40.1046624,528.221867 40.0679691,528.229973 C39.9331424,528.256853 39.8064224,528.283307 39.6711691,528.311467 C39.5363424,528.34816 39.4096224,528.393387 39.2747957,528.438187 C39.2112224,528.456533 39.1578891,528.47488 39.1028491,528.49152 C39.0030091,528.5184 38.9048757,528.555093 38.8046091,528.581547 C38.7145824,528.61824 38.6330891,528.64512 38.5515957,528.681813 C38.4696757,528.718507 38.3796491,528.74496 38.2981557,528.781653 C38.2798091,528.781653 38.2712757,528.8 38.2529291,528.8 C38.2162357,528.818347 38.1897824,528.826453 38.1530891,528.8448 C37.8096224,528.989867 37.4763957,529.161813 37.1512757,529.341867 C37.1512757,529.349973 37.1431691,529.349973 37.1431691,529.349973 C37.1346357,529.358507 37.1248224,529.358507 37.1162891,529.36832 C35.7445557,530.161493 34.5797557,531.27168 33.7046624,532.59008 C33.6679691,532.626773 33.6415157,532.66176 33.6329824,532.70656 C32.6397024,534.258347 32.0530357,536.090027 32.0265824,538.056533 C31.9898891,538.138453 31.9898891,538.236587 32.0346891,538.308267 C32.0615691,540.2752 32.6397024,542.098347 33.6231691,543.6416 L33.6231691,543.65184 C33.6312757,543.705173 33.6679691,543.749973 33.7131957,543.786667 C33.7213024,543.786667 33.7213024,543.79648 33.7213024,543.79648 C34.5878624,545.094827 35.7347424,546.186667 37.0795957,546.981547 C37.0979424,546.99008 37.1162891,547.008427 37.1431691,547.01824 C37.1965024,547.053227 37.2596491,547.081813 37.3232224,547.1168 C37.3680224,547.135147 37.4132491,547.1616 37.4580491,547.190187 C37.5395424,547.234987 37.6197557,547.279787 37.7114891,547.325013 C37.8915424,547.406507 38.0728757,547.488427 38.2529291,547.568213 C38.3531957,547.604907 38.4513291,547.650133 38.5515957,547.68512 C38.6330891,547.721813 38.7145824,547.748267 38.8046091,547.78496 C38.9048757,547.819947 39.0030091,547.848533 39.1028491,547.874987 C39.1480757,547.893333 39.1847691,547.91168 39.2295691,547.930027 C39.6814091,548.064853 40.1413557,548.173227 40.6013024,548.244907 C40.6281824,548.244907 40.6465291,548.244907 40.6648757,548.25344 C40.8180491,548.271787 40.9631157,548.290133 41.1162891,548.30848 C41.1696224,548.316587 41.2331957,548.316587 41.2882357,548.326827 C41.3697291,548.334933 41.4512224,548.345173 41.5314357,548.345173 C41.7562891,548.36352 41.9913824,548.371627 42.2179424,548.371627 C42.3979957,548.371627 42.5695157,548.36352 42.7414624,548.35328 C42.7947957,548.35328 42.8498357,548.35328 42.9048757,548.345173 C42.9863691,548.345173 43.0678624,548.334933 43.1480757,548.326827 C43.3545824,548.30848 43.5632224,548.2816 43.7611957,548.25344 L43.7697291,548.25344 C43.7961824,548.244907 43.8145291,548.244907 43.8328757,548.244907 C43.9864757,548.218453 44.1315424,548.189867 44.2761824,548.163413 C44.8265824,548.046507 45.3680224,547.88352 45.8932491,547.68512 C45.9747424,547.65824 46.0562357,547.621547 46.1364491,547.595093 C46.1547957,547.58656 46.1731424,547.576747 46.1812491,547.568213 C46.3715424,547.48672 46.5515957,547.4048 46.7231157,547.325013 C46.8498357,547.261867 46.9582091,547.198293 47.0746891,547.135147 C47.0832224,547.135147 47.1015691,547.126613 47.1113824,547.126613 C47.1745291,547.08992 47.2381024,547.053227 47.3012491,547.01824 C47.3281291,546.999893 47.3545824,546.981547 47.3831691,546.955093 C48.7199157,546.161493 49.8663691,545.078187 50.7231157,543.788373 C50.7312224,543.77984 50.7312224,543.77984 50.7414624,543.770027 C50.7679157,543.743147 50.7862624,543.716693 50.7947957,543.688533 C50.7947957,543.68 50.8029024,543.670187 50.8029024,543.661653 C51.8047157,542.093227 52.3999157,540.235093 52.4097291,538.231467 L52.4097291,538.186667 L52.4097291,538.160213 L52.4097291,538.12352 C52.4011957,536.13824 51.8132491,534.280107 50.8114357,532.709973 C50.7930891,532.665173 50.7662091,532.619947 50.7214091,532.583253 C49.8629557,531.2832 48.7079691,530.183253 47.3545824,529.398187 C47.3464757,529.39008 47.3362357,529.37984 47.3281291,529.371733 C47.3195957,529.371733 47.3195957,529.3632 47.3195957,529.3632 C47.3114891,529.3632 47.3114891,529.355093 47.3012491,529.355093 C47.2829024,529.34656 47.2645557,529.34656 47.2479157,529.336747 C46.8865291,529.129813 46.5264224,528.939947 46.1381557,528.786773 C45.9747424,528.715093 45.8130357,528.660053 45.6415157,528.59648 C45.6048224,528.588373 45.5698357,528.570027 45.5246091,528.55168 C45.1546891,528.42496 44.7664224,528.316587 44.3696224,528.235093 C44.1981024,528.1984 44.0180491,528.163413 43.8362891,528.12672 C43.8179424,528.12672 43.7995957,528.12672 43.7731424,528.118187 C43.7731424,528.118187 43.7731424,528.12672 43.7646091,528.118187 C43.5662091,528.091733 43.3579957,528.073387 43.1514891,528.05504 C43.0695691,528.046507 42.9880757,528.02816 42.9078624,528.02816 C42.6778891,528.008533 42.4530357,528 42.2179424,528 L42.2179424,528 Z M42.2179424,528.51328 C43.7978891,528.51328 45.2779957,528.901547 46.5963957,529.57824 C46.2712757,529.741653 45.9282357,529.894827 45.5762357,530.03008 C45.4678624,530.07488 45.3599157,530.111573 45.2430091,530.14656 C45.2246624,530.155093 45.1982091,530.164907 45.1713291,530.17344 C45.0898357,530.199893 44.9912757,530.226773 44.8995424,530.254933 C44.6013024,530.34496 44.3047691,530.426453 43.9881824,530.480213 C43.9165024,530.498133 43.8431157,530.506667 43.7629024,530.525013 C43.6630624,530.54336 43.5563957,530.561707 43.4463157,530.569813 C43.4096224,530.578347 43.3648224,530.578347 43.3298357,530.58816 C43.1762357,530.606507 43.0315957,530.61504 42.8779957,530.624853 C42.8515424,530.624853 42.8331957,530.633387 42.8063157,530.633387 C42.6164491,530.651733 42.4180491,530.651733 42.2196491,530.651733 C42.0395957,530.651733 41.8497291,530.6432 41.6696757,530.633387 L41.6329824,530.633387 C41.4162357,530.624853 41.2080224,530.596693 40.9912757,530.569813 C40.8747957,530.551467 40.7480757,530.53312 40.6213557,530.51648 C40.5680224,530.508373 40.5048757,530.498133 40.4498357,530.480213 C40.2697824,530.453333 40.1063691,530.408533 39.9348491,530.363307 C39.8264757,530.336853 39.7078624,530.309973 39.6011957,530.27328 C39.5563957,530.265173 39.5115957,530.254933 39.4663691,530.236587 C38.9065824,530.065067 38.3647157,529.840213 37.8411957,529.57824 C39.1578891,528.901547 40.6379957,528.51328 42.2179424,528.51328 L42.2179424,528.51328 Z M37.2797024,529.866667 C37.6048224,530.04672 37.9397557,530.22848 38.2913291,530.37184 C37.6863157,531.2832 37.1815691,532.401493 36.8295691,533.664853 C35.9182091,533.403307 35.0597557,533.07008 34.2563424,532.681813 C35.0495157,531.53664 36.0799157,530.57152 37.2797024,529.866667 L37.2797024,529.866667 Z M47.1647157,529.866667 C48.3649291,530.569813 49.3846624,531.53664 50.1714357,532.681813 C49.3765557,533.07008 48.5198091,533.403307 47.6080224,533.664853 C47.2564491,532.401493 46.7598091,531.2832 46.1462624,530.37184 C46.4965557,530.22848 46.8314891,530.048427 47.1647157,529.866667 L47.1647157,529.866667 Z M38.8046091,530.561707 C39.3195957,530.751573 39.8614624,530.894933 40.4114357,530.9952 C40.4647691,531.003307 40.5198091,531.003307 40.5731424,531.013547 C40.7365557,531.049813 40.9063691,531.066453 41.0697824,531.0848 C41.3680224,531.121493 41.6662624,531.148373 41.9632224,531.148373 L41.9632224,534.423467 C40.3380491,534.40512 38.7679157,534.188373 37.3232224,533.80992 C37.6863157,532.54656 38.2013024,531.446613 38.8046091,530.561707 L38.8046091,530.561707 Z M45.6398091,530.561707 C46.2448224,531.444907 46.7495691,532.54656 47.1113824,533.80992 C45.6662624,534.188373 44.1046624,534.40512 42.4713824,534.423467 L42.4713824,531.148373 C42.6164491,531.148373 42.7598091,531.148373 42.9048757,531.13984 L42.9415691,531.13984 C43.1395424,531.121493 43.3379424,531.09504 43.5465824,531.06816 C44.2663691,530.96832 44.9712224,530.806613 45.6398091,530.561707 L45.6398091,530.561707 Z M33.9764491,533.106773 C34.8246624,533.530027 35.7364491,533.883307 36.7028491,534.161493 C36.4229557,535.325013 36.2514357,536.598187 36.2330891,537.933227 L32.5496757,537.933227 C32.5949024,536.16512 33.0996491,534.513493 33.9764491,533.106773 L33.9764491,533.106773 Z M50.4598624,533.106773 C51.3264224,534.523307 51.8495157,536.16512 51.8947424,537.933227 L48.2032224,537.933227 C48.1848757,536.598187 48.0231691,535.31648 47.7330357,534.153387 C48.6998624,533.873493 49.6112224,533.521493 50.4598624,533.106773 L50.4598624,533.106773 Z M37.1982091,534.30656 C38.6881291,534.694827 40.2945291,534.911573 41.9649291,534.92992 L41.9649291,537.934933 L36.7382624,537.934933 C36.7647157,536.643413 36.9178891,535.416747 37.1982091,534.30656 L37.1982091,534.30656 Z M47.2462091,534.30656 C47.5162891,535.416747 47.6797024,536.643413 47.6980491,537.933227 L42.4696757,537.933227 L42.4696757,534.928213 C44.1498891,534.911573 45.7562891,534.694827 47.2462091,534.30656 L47.2462091,534.30656 Z M32.5496757,538.440107 L36.2330891,538.440107 C36.2514357,539.775147 36.4229557,541.046613 36.7028491,542.2016 C35.7364491,542.490027 34.8246624,542.8416 33.9764491,543.256747 C33.1098891,541.850027 32.5949024,540.208213 32.5496757,538.440107 L32.5496757,538.440107 Z M36.7382624,538.440107 L41.9649291,538.440107 L41.9649291,541.44512 C40.2945291,541.463467 38.6881291,541.68832 37.1982091,542.076587 C36.9178891,540.956587 36.7647157,539.72992 36.7382624,538.440107 L36.7382624,538.440107 Z M42.4696757,538.440107 L47.6963424,538.440107 C47.6779957,539.72992 47.5162891,540.956587 47.2445024,542.076587 C45.7545824,541.680213 44.1481824,541.463467 42.4696757,541.44512 L42.4696757,538.440107 Z M48.2032224,538.440107 L51.8947424,538.440107 C51.8495157,540.208213 51.3345291,541.85984 50.4679691,543.26656 C49.6197557,542.85184 48.7079691,542.49984 47.7330357,542.21184 C48.0231691,541.046613 48.1848757,539.775147 48.2032224,538.440107 L48.2032224,538.440107 Z M41.9649291,541.949867 L41.9649291,545.22496 C41.8198624,545.22496 41.6765024,545.22496 41.5314357,545.243307 L41.4862091,545.243307 C41.3961824,545.25312 41.3146891,545.261653 41.2246624,545.271467 C40.3845557,545.353387 39.5645024,545.53344 38.7965024,545.813333 C38.1914891,544.93824 37.6863157,543.82848 37.3347424,542.56512 C38.7781557,542.193493 40.3397557,541.976747 41.9649291,541.949867 L41.9649291,541.949867 Z M42.4696757,541.949867 C44.1029557,541.976747 45.6645557,542.18496 47.1096757,542.563413 C46.7478624,543.826773 46.2431157,544.936533 45.6381024,545.811627 C45.1047691,545.62176 44.5462624,545.4784 43.9779424,545.378133 C43.9779424,545.370027 43.9779424,545.378133 43.9698357,545.378133 C43.6361824,545.314987 43.3012491,545.270187 42.9496757,545.243307 L42.9048757,545.243307 C42.8963424,545.2352 42.8865291,545.243307 42.8779957,545.243307 C42.7431691,545.2352 42.6079157,545.22496 42.4713824,545.22496 L42.4713824,541.949867 L42.4696757,541.949867 Z M36.8197557,542.69824 C37.1713291,543.97184 37.6782091,545.090133 38.2913291,546.010027 C37.9397557,546.155093 37.5962891,546.3168 37.2715957,546.506667 C36.0713824,545.79328 35.0414091,544.82816 34.2482357,543.69152 C35.0495157,543.303253 35.9079691,542.96832 36.8197557,542.69824 L36.8197557,542.69824 Z M47.6063157,542.69824 C48.5181024,542.96832 49.3846624,543.303253 50.1795424,543.69152 C49.3949024,544.82816 48.3649291,545.79328 47.1732491,546.506667 C46.8395957,546.3168 46.5046624,546.155093 46.1530891,546.010027 C46.7679157,545.088427 47.2547424,543.970133 47.6063157,542.69824 L47.6063157,542.69824 Z M42.2179424,545.7216 C42.4163424,545.7216 42.6147424,545.730133 42.8046091,545.739947 C42.8314891,545.739947 42.8498357,545.74848 42.8762891,545.74848 C43.0298891,545.756587 43.1745291,545.766827 43.3281291,545.785173 C43.3648224,545.79328 43.4096224,545.80352 43.4446091,545.80352 C43.5713291,545.821867 43.6980491,545.838507 43.8145291,545.856853 C44.1665291,545.92 44.5014624,546.001493 44.8346891,546.100053 C44.8799157,546.10816 44.9247157,546.126507 44.9695157,546.136747 C45.0228491,546.155093 45.0697824,546.171733 45.1145824,546.181547 C45.6295691,546.353493 46.1262091,546.56 46.5946891,546.795093 C45.7729291,547.218347 44.8880224,547.534933 43.9497824,547.706453 L43.9412491,547.706453 C43.6349024,547.760213 43.3178891,547.80672 43.0030091,547.833173 C42.7414624,547.85152 42.4799157,547.869867 42.2179424,547.869867 C41.9649291,547.869867 41.7029557,547.85152 41.4597557,547.833173 C41.1346357,547.80672 40.8095157,547.760213 40.5031691,547.706453 L40.4762891,547.706453 C39.5465824,547.534933 38.6612491,547.220053 37.8399157,546.795093 C38.6881291,546.3616 39.6097291,546.03648 40.5846624,545.86496 C40.7297291,545.8368 40.8730891,545.82016 41.0181557,545.801813 C41.0365024,545.801813 41.0446091,545.791573 41.0548491,545.791573 L41.0996491,545.791573 C41.2797024,545.773227 41.4512224,545.746773 41.6329824,545.73824 L41.6696757,545.73824 C41.8480224,545.730133 42.0378891,545.7216 42.2179424,545.7216 L42.2179424,545.7216 Z" id="geo" sketch:type="MSShapeGroup"></path>
            </g>
        </g>
    </g>
</svg>