<?xml version="1.0" encoding="UTF-8" standalone="no"?>
<svg width="23px" height="19px" viewBox="0 0 23 19" version="1.1" xmlns="http://www.w3.org/2000/svg" xmlns:xlink="http://www.w3.org/1999/xlink" xmlns:sketch="http://www.bohemiancoding.com/sketch/ns">
    <!-- Generator: Sketch 3.3.3 (12072) - http://www.bohemiancoding.com/sketch -->
    <title>history</title>
    <desc>Created with Sketch.</desc>
    <defs></defs>
    <g id="Page-1" stroke="none" stroke-width="1" fill="none" fill-rule="evenodd" sketch:type="MSPage">
        <g id="Artboard-1-Copy" sketch:type="MSArtboardGroup" transform="translate(-200.000000, -622.000000)" fill="#000000">
            <g id="Group" sketch:type="MSLayerGroup" transform="translate(168.000000, 219.000000)">
                <g id="history" transform="translate(32.000000, 403.000000)" sketch:type="MSShapeGroup">
                    <path d="M8.44517333,17.64 C8.21333333,17.64 8.02517333,17.45184 8.02517333,17.22 L8.02517333,6.71253333 C8.02517333,6.48069333 8.21333333,6.29253333 8.44517333,6.29253333 C8.67701333,6.29253333 8.86517333,6.48069333 8.86517333,6.71253333 L8.86517333,17.22 C8.86517333,17.45184 8.67701333,17.64 8.44517333,17.64 L8.44517333,17.64 Z" id="Fill-1"></path>
                    <path d="M5.50517333,16.38 C5.27333333,16.38 5.08517333,16.19184 5.08517333,15.96 L5.08517333,8.26298667 C5.08517333,8.03114667 5.27333333,7.84298667 5.50517333,7.84298667 C5.73701333,7.84298667 5.92517333,8.03114667 5.92517333,8.26298667 L5.92517333,15.96 C5.92517333,16.19184 5.73701333,16.38 5.50517333,16.38 L5.50517333,16.38 Z" id="Fill-2"></path>
                    <path d="M17.2651733,16.38 C17.0333333,16.38 16.8451733,16.19184 16.8451733,15.96 L16.8451733,8.26298667 C16.8451733,8.03114667 17.0333333,7.84298667 17.2651733,7.84298667 C17.4970133,7.84298667 17.6851733,8.03114667 17.6851733,8.26298667 L17.6851733,15.96 C17.6851733,16.19184 17.4970133,16.38 17.2651733,16.38 L17.2651733,16.38 Z" id="Fill-3"></path>
                    <path d="M14.3251733,17.64 C14.0933333,17.64 13.9051733,17.45184 13.9051733,17.22 L13.9051733,6.71253333 C13.9051733,6.48069333 14.0933333,6.29253333 14.3251733,6.29253333 C14.5570133,6.29253333 14.7451733,6.48069333 14.7451733,6.71253333 L14.7451733,17.22 C14.7451733,17.45184 14.5570133,17.64 14.3251733,17.64 L14.3251733,17.64 Z" id="Fill-4"></path>
                    <path d="M11.3851733,18.06 C11.1533333,18.06 10.9651733,17.87184 10.9651733,17.64 L10.9651733,5.45253333 C10.9651733,5.22069333 11.1533333,5.03253333 11.3851733,5.03253333 C11.6170133,5.03253333 11.8051733,5.22069333 11.8051733,5.45253333 L11.8051733,17.64 C11.8051733,17.87184 11.6170133,18.06 11.3851733,18.06 L11.3851733,18.06 Z" id="Fill-5"></path>
                    <path d="M18.73536,7.4592 C17.7101867,7.4592 16.81008,7.0672 16.1993067,6.35674667 C15.5952533,5.65413333 15.3458667,4.72490667 15.4978133,3.74192 C15.63184,2.86570667 16.1085867,2.1392 16.80448,1.74869333 C17.44176,1.39141333 18.20448,1.35184 18.8970133,1.64341333 C20.4340267,2.28666667 20.2664,3.51754667 20.21264,3.92149333 C20.1264,4.55728 19.43648,5.11429333 18.73536,5.11429333 C18.21904,5.11429333 17.8542933,4.72789333 17.76096,4.34597333 C17.6721067,3.98570667 17.8121067,3.65008 18.1152533,3.49141333 C18.3224533,3.38314667 18.5748267,3.46341333 18.68272,3.66912 C18.7730667,3.84272 18.73088,4.05141333 18.59088,4.17685333 C18.6125333,4.21904 18.6606933,4.2728 18.7368533,4.2728 C19.0575467,4.2728 19.3565867,3.99018667 19.3812267,3.80762667 C19.43536,3.41114667 19.5167467,2.81157333 18.5733333,2.41658667 C18.1152533,2.22544 17.6325333,2.24746667 17.21552,2.4808 C16.74736,2.74325333 16.42368,3.24912 16.32736,3.86885333 C16.2138667,4.60544 16.39456,5.29536 16.8365867,5.80981333 C17.2842133,6.33210667 17.95808,6.6192 18.73536,6.6192 C20.3,6.6192 21.8851733,5.6728 21.8851733,3.86474667 C21.8851733,2.07648 20.6192,0.875093333 18.73536,0.875093333 L4.04544,0.875093333 C2.16122667,0.875093333 0.895253333,2.07648 0.895253333,3.86474667 C0.895253333,5.6728 2.4808,6.6192 4.04544,6.6192 C4.82122667,6.6192 5.49509333,6.33210667 5.94421333,5.80981333 C6.38586667,5.29536 6.56693333,4.60693333 6.45306667,3.86885333 C6.35824,3.24912 6.03456,2.74325333 5.56490667,2.4808 C5.14789333,2.24597333 4.66666667,2.22544 4.20858667,2.41658667 C3.26517333,2.81157333 3.34693333,3.41114667 3.40069333,3.80613333 C3.42570667,3.99018667 3.72474667,4.2728 4.04544,4.2728 C4.12122667,4.2728 4.16938667,4.21904 4.19141333,4.17685333 C4.05141333,4.05253333 4.00885333,3.84421333 4.0992,3.66912 C4.20746667,3.46341333 4.45946667,3.38314667 4.66666667,3.49141333 C4.96981333,3.64858667 5.10869333,3.98421333 5.02096,4.34597333 C4.92762667,4.72789333 4.56325333,5.11429333 4.04693333,5.11429333 C3.34544,5.11429333 2.65552,4.55728 2.56965333,3.92149333 C2.51402667,3.51754667 2.3464,2.28816 3.88490667,1.64341333 C4.57632,1.35333333 5.33904,1.39141333 5.97632,1.74869333 C6.67184,2.13808 7.14858667,2.86570667 7.28298667,3.74192 C7.43456,4.72490667 7.18517333,5.65413333 6.58149333,6.35674667 C5.97184,7.0672 5.07061333,7.4592 4.04544,7.4592 C1.77034667,7.4592 0.0552533333,5.9136 0.0552533333,3.86474667 C0.0552533333,1.60981333 1.69605333,0.0350933333 4.04544,0.0350933333 L18.7368533,0.0350933333 C21.0858667,0.0350933333 22.7266667,1.60981333 22.7266667,3.86474667 C22.7251733,5.9136 21.01008,7.4592 18.73536,7.4592 L18.73536,7.4592 Z" id="Fill-6"></path>
                    <path d="M14.3251733,3.77253333 L8.44517333,3.77253333 C8.21333333,3.77253333 8.02517333,3.58474667 8.02517333,3.35253333 C8.02517333,3.12069333 8.21333333,2.93253333 8.44517333,2.93253333 L14.3251733,2.93253333 C14.5570133,2.93253333 14.7451733,3.12069333 14.7451733,3.35253333 C14.7451733,3.58474667 14.5570133,3.77253333 14.3251733,3.77253333 L14.3251733,3.77253333 Z" id="Fill-7"></path>
                </g>
            </g>
        </g>
    </g>
</svg>