<?xml version="1.0" encoding="UTF-8" standalone="no"?>
<svg width="26px" height="21px" viewBox="0 0 26 21" version="1.1" xmlns="http://www.w3.org/2000/svg" xmlns:xlink="http://www.w3.org/1999/xlink" xmlns:sketch="http://www.bohemiancoding.com/sketch/ns">
    <!-- Generator: Sketch 3.3.3 (12072) - http://www.bohemiancoding.com/sketch -->
    <title>math</title>
    <desc>Created with Sketch.</desc>
    <defs></defs>
    <g id="Page-1" stroke="none" stroke-width="1" fill="none" fill-rule="evenodd" sketch:type="MSPage">
        <g id="Artboard-1-Copy" sketch:type="MSArtboardGroup" transform="translate(-196.000000, -312.000000)" fill="#000000">
            <g id="Group" sketch:type="MSLayerGroup" transform="translate(168.000000, 219.000000)">
                <g id="math" transform="translate(28.000000, 93.000000)" sketch:type="MSShapeGroup">
                    <path d="M2.89833333,8.16516 L7.96634667,7.46166667 L9.03984,7.31317333 L10.70484,7.09166667 C10.88984,7.05516 11.0018267,6.90666667 10.9633467,6.72166667 L10.7413467,5.16865333 L10.6298533,4.50166667 L10.3328667,2.43016 C10.3328667,2.35665333 10.2598533,2.28166667 10.2213733,2.20865333 C10.1478667,2.17165333 10.07288,2.13514667 9.96286667,2.13514667 L2.15636,3.24514667 C1.97136,3.28165333 1.85986667,3.43014667 1.89834667,3.61514667 L2.48985333,7.87014667 C2.48985333,7.94365333 2.56286667,8.01864 2.60134667,8.09165333 C2.67485333,8.12865333 2.71333333,8.16516 2.78634667,8.16516 L2.89833333,8.16516 L2.89833333,8.16516 Z M2.60134667,3.87365333 L9.77984,2.83666667 L10.0383467,4.68666667 L10.2598533,6.16666667 L10.29636,6.42468 L8.92834667,6.60968 L8.77985333,6.64668 L8.15134667,6.71969333 L7.07834667,6.86818667 L3.19334667,7.42318667 L2.60134667,3.87365333 Z" id="Fill-1"></path>
                    <path d="M5.89484,10.2731733 C6.07984,10.2366667 6.22833333,10.16168 6.33834667,10.01516 C6.44984,9.86666667 6.48634667,9.68166667 6.44984,9.53317333 C6.41333333,9.19968 6.11634667,8.94166667 5.78334667,8.94166667 L5.67136,8.94166667 C5.30136,8.97817333 5.04334667,9.34817333 5.11636,9.68166667 C5.15286667,10.01516 5.44985333,10.2731733 5.78334667,10.2731733 C5.78532,10.30968 5.85833333,10.2731733 5.89484,10.2731733 L5.89484,10.2731733 Z" id="Fill-2"></path>
                    <path d="M3.48984,10.6431733 C3.85984,10.6066667 4.11834667,10.2366667 4.04484,9.90317333 C4.00833333,9.56968 3.71134667,9.31166667 3.37834667,9.31166667 L3.26636,9.31166667 C2.89636,9.34817333 2.63834667,9.71817333 2.71136,10.0516667 C2.74786667,10.38516 3.04485333,10.6431733 3.37834667,10.6431733 L3.48984,10.6431733 L3.48984,10.6431733 Z" id="Fill-3"></path>
                    <path d="M8.22682667,9.93968 C8.59682667,9.90317333 8.85484,9.53317333 8.78182667,9.16317333 C8.74532,8.82968 8.44833333,8.57166667 8.11484,8.57166667 L8.00334667,8.57166667 C7.63334667,8.60817333 7.37484,8.97817333 7.44834667,9.31166667 C7.48485333,9.64516 7.78134667,9.90317333 8.11484,9.90317333 C8.15134667,9.97865333 8.22682667,9.93968 8.22682667,9.93968 L8.22682667,9.93968 Z" id="Fill-4"></path>
                    <path d="M10.59532,9.60865333 C10.8533333,9.57165333 11.0383333,9.38665333 11.11332,9.16514667 C11.15032,9.05365333 11.15032,8.98014667 11.15032,8.86865333 C11.11332,8.53516 10.8168267,8.27665333 10.4833333,8.27665333 L10.3713467,8.27665333 C10.1863467,8.31365333 10.0383467,8.38864 9.92833333,8.53516 C9.81634667,8.68365333 9.77984,8.86865333 9.77984,9.05365333 C9.81634667,9.38665333 10.1133333,9.64516 10.4468267,9.64516 C10.51984,9.64516 10.59532,9.60865333 10.59532,9.60865333 L10.59532,9.60865333 Z" id="Fill-5"></path>
                    <path d="M6.22833333,12.79016 C6.59833333,12.7536533 6.85634667,12.3836533 6.78333333,12.05016 C6.74682667,11.7166667 6.44984,11.4586533 6.11634667,11.4586533 L6.00485333,11.4586533 C5.63485333,11.49516 5.37634667,11.86516 5.44985333,12.23516 C5.48636,12.5686533 5.78334667,12.8266667 6.11634667,12.8266667 C6.15532,12.79016 6.22833333,12.79016 6.22833333,12.79016 L6.22833333,12.79016 Z" id="Fill-6"></path>
                    <path d="M3.85984,13.1236533 C4.22984,13.0866533 4.48834667,12.7166533 4.41484,12.3836533 C4.37833333,12.05016 4.08134667,11.7916533 3.74834667,11.7916533 L3.63636,11.7916533 C3.26636,11.8286533 3.00834667,12.1986533 3.08136,12.5316533 C3.11786667,12.8651467 3.41485333,13.1236533 3.74834667,13.1236533 L3.85984,13.1236533 L3.85984,13.1236533 Z" id="Fill-7"></path>
                    <path d="M8.59682667,12.4566667 C8.96682667,12.42016 9.22484,12.05016 9.15182667,11.7166667 C9.11532,11.3831733 8.81833333,11.12516 8.48484,11.12516 L8.37334667,11.12516 C8.18834667,11.1616667 8.03985333,11.2366533 7.92984,11.3831733 C7.81834667,11.5316667 7.78134667,11.7166667 7.81834667,11.86516 C7.85485333,12.1986533 8.15134667,12.4566667 8.48484,12.4566667 L8.59682667,12.4566667 L8.59682667,12.4566667 Z" id="Fill-8"></path>
                    <path d="M6.59833333,15.3436533 C6.96833333,15.3066533 7.22634667,14.9366533 7.15333333,14.6036533 C7.11682667,14.27016 6.81984,14.0116533 6.48634667,14.0116533 L6.37485333,14.0116533 C6.00485333,14.0486533 5.74634667,14.4186533 5.81985333,14.7886533 C5.85636,15.1216533 6.15334667,15.38016 6.48634667,15.38016 C6.52532,15.3436533 6.56182667,15.3436533 6.59833333,15.3436533 L6.59833333,15.3436533 Z" id="Fill-9"></path>
                    <path d="M4.19333333,15.67468 C4.56333333,15.6381733 4.82134667,15.2681733 4.74833333,14.93468 C4.71182667,14.60168 4.41484,14.3431733 4.08134667,14.3431733 L3.96985333,14.3431733 C3.59985333,14.37968 3.34134667,14.74968 3.41485333,15.0831733 C3.45136,15.4166667 3.74834667,15.67468 4.08134667,15.67468 L4.19333333,15.67468 L4.19333333,15.67468 Z" id="Fill-10"></path>
                    <path d="M8.96682667,15.01016 C9.33682667,14.9736533 9.59484,14.6036533 9.52182667,14.27016 C9.48532,13.9366667 9.18833333,13.6786533 8.85484,13.6786533 L8.74334667,13.6786533 C8.37334667,13.71516 8.11484,14.08516 8.18834667,14.45516 C8.22485333,14.7886533 8.52134667,15.0466667 8.85484,15.0466667 C8.85484,15.01016 8.93032,15.01016 8.96682667,15.01016 L8.96682667,15.01016 Z" id="Fill-11"></path>
                    <path d="M6.85634667,16.41468 L6.74485333,16.41468 C6.37485333,16.45168 6.11634667,16.82168 6.18985333,17.15468 C6.22636,17.4881733 6.52334667,17.74668 6.85634667,17.74668 L6.96833333,17.74668 C7.33833333,17.70968 7.59634667,17.33968 7.52333333,17.00668 C7.45032,16.67516 7.18984,16.41468 6.85634667,16.41468 L6.85634667,16.41468 Z" id="Fill-12"></path>
                    <path d="M4.45134667,16.7481733 L4.33985333,16.7481733 C3.96985333,16.78468 3.71134667,17.15468 3.78485333,17.52468 C3.82136,17.8581733 4.11834667,18.11668 4.45134667,18.11668 L4.56333333,18.11668 C4.93333333,18.07968 5.19134667,17.70968 5.11833333,17.37668 C5.08182667,17.0086533 4.78484,16.7481733 4.45134667,16.7481733 L4.45134667,16.7481733 Z" id="Fill-13"></path>
                    <path d="M9.18833333,16.0836533 L9.07634667,16.0836533 C8.70634667,16.12016 8.44833333,16.49016 8.52134667,16.8236533 C8.55834667,17.1566533 8.85484,17.41516 9.18833333,17.41516 L9.30032,17.41516 C9.67032,17.3786533 9.92833333,17.0086533 9.85532,16.67516 C9.81634667,16.30516 9.52182667,16.0836533 9.18833333,16.0836533 L9.18833333,16.0836533 Z" id="Fill-14"></path>
                    <path d="M10.96532,12.1231733 C11.33532,12.0866667 11.5933333,11.7166667 11.52032,11.3831733 C11.48332,11.04968 11.1868267,10.7916667 10.8533333,10.7916667 L10.7413467,10.7916667 C10.3713467,10.8281733 10.1133333,11.1981733 10.1863467,11.5316667 C10.2233467,11.86516 10.51984,12.1231733 10.8533333,12.1231733 L10.96532,12.1231733 L10.96532,12.1231733 Z" id="Fill-15"></path>
                    <path d="M12.2213467,16.1931733 L11.9248533,13.9731733 L11.9248533,13.9366667 L11.9248533,13.90016 C11.8883467,13.5666667 11.59136,13.3086533 11.2578667,13.3086533 L11.1463733,13.3086533 C10.81288,13.34516 10.5913733,13.6416533 10.5913733,13.9366667 L10.5913733,14.0486533 L10.9248667,16.3416667 L10.9248667,16.3781733 L10.9248667,16.41468 C10.9613733,16.7481733 11.2578667,17.00668 11.59136,17.00668 L11.7033467,17.00668 C12.0733467,16.96968 12.33136,16.59968 12.2583467,16.26668 L12.2583467,16.22968 C12.2213467,16.22968 12.2213467,16.22968 12.2213467,16.1931733 L12.2213467,16.1931733 Z" id="Fill-16"></path>
                    <path d="M25.0983333,16.12016 L20.13984,1.61468 C20.0668267,1.42968 19.8818267,1.35666667 19.7333333,1.42968 L12.4063467,3.94666667 L12.0363467,1.42968 C11.9248533,0.68968 11.2233333,0.13468 10.4833333,0.246666667 L1.23333333,1.54166667 C0.863333333,1.57817333 0.52984,1.79968 0.308333333,2.09666667 C0.0868266667,2.39365333 0.0113466667,2.76365333 0.05032,3.13365333 L2.38181333,19.4866667 C2.4938,20.1536533 3.0488,20.66968 3.75032,20.66968 L3.93532,20.66968 L13.18532,19.37468 C13.92532,19.2631867 14.48032,18.5616667 14.3683333,17.8216667 L13.3313467,10.4216667 L24.7283333,16.6386533 C24.76484,16.67516 24.84032,16.67516 24.8768267,16.67516 L24.8768267,16.67516 C25.0618267,16.67516 25.21032,16.5266667 25.21032,16.3416667 C25.1713467,16.22968 25.13484,16.1566667 25.0983333,16.12016 L25.0983333,16.12016 Z M13.7013467,17.8581733 C13.7748533,18.26468 13.47984,18.63468 13.0733333,18.67168 L3.82333333,19.96668 C3.41682667,20.0396933 3.04682667,19.74468 3.01032,19.3381733 L0.678333333,2.98516 C0.641826667,2.80016 0.71484,2.61516 0.826826667,2.43016 C0.93832,2.28166667 1.12332,2.17165333 1.30832,2.13317333 L10.55832,0.838173333 L10.6703067,0.838173333 C11.0403067,0.838173333 11.3368,1.09668 11.3738,1.46668 L11.7438,4.12969333 L11.8552933,4.79668 L12.4838,9.16317333 L12.5952933,9.97668 L13.7013467,17.8581733 Z M13.18532,9.56968 L12.4818267,4.57468 L12.5183333,4.57468 L12.6668267,5.05666667 C12.7033333,5.20516 12.8518267,5.27817333 12.96332,5.27817333 L13.0753067,5.27817333 C13.2603067,5.20516 13.33332,5.02016 13.2603067,4.87166667 L13.1118133,4.38968 L13.88832,4.13166667 L14.0368133,4.61365333 C14.07332,4.76165333 14.2218133,4.83516 14.3338,4.83516 L14.4452933,4.83516 C14.6302933,4.76165333 14.7038,4.57665333 14.6302933,4.42865333 L14.5533333,3.87365333 L15.32984,3.61514667 L15.4783333,4.09713333 C15.51484,4.24513333 15.6633333,4.31864 15.77532,4.31864 L15.8868133,4.31864 C16.0718133,4.24513333 16.14532,4.06013333 16.0718133,3.91213333 L15.92332,3.43014667 L16.70032,3.17213333 L16.84832,3.65362667 C16.88532,3.80212 17.03332,3.87513333 17.1453067,3.87513333 L17.2568,3.87513333 C17.4418,3.80212 17.5153067,3.61712 17.4418,3.46862667 L17.2938,2.98713333 L18.0703067,2.72862667 L18.2188,3.21061333 C18.2553067,3.35910667 18.4038,3.43212 18.5152933,3.43212 L18.62728,3.43212 C18.81228,3.35910667 18.8852933,3.17410667 18.81228,3.02561333 L18.6637867,2.54362667 L19.5157733,2.24713333 L19.8487733,3.24514667 L19.4422667,3.39364 C19.2572667,3.46665333 19.1842533,3.65165333 19.2572667,3.80014667 C19.2937733,3.94864 19.4422667,4.02165333 19.5542533,4.02165333 L19.6657467,4.02165333 L20.0727467,3.87365333 L20.33076,4.65016 L19.9242533,4.79865333 C19.7392533,4.87166667 19.6657467,5.05666667 19.7392533,5.20516 C19.77576,5.35365333 19.9242533,5.42666667 20.0357467,5.42666667 L20.1477333,5.42666667 L20.55424,5.27817333 L20.8127467,6.05468 L20.4057467,6.20317333 C20.2207467,6.27668 20.1477333,6.46168 20.2207467,6.60968 C20.2572533,6.75817333 20.4057467,6.83168 20.5177333,6.83168 L20.6292267,6.83168 L21.0362267,6.68318667 L21.29424,7.45969333 L20.8877333,7.60818667 C20.7027333,7.6812 20.6292267,7.8662 20.7027333,8.01469333 C20.73924,8.16318667 20.8877333,8.2362 20.9992267,8.2362 L21.1112133,8.2362 L21.51772,8.0882 L21.7762267,8.86470667 L21.3692267,9.0132 C21.1842267,9.08621333 21.1112133,9.27121333 21.1842267,9.41970667 C21.2212267,9.5682 21.3692267,9.64121333 21.4812133,9.64121333 L21.5932,9.64121333 L21.9997067,9.49272 L22.25772,10.2692267 L21.9533333,10.2731733 C21.7683333,10.34668 21.69532,10.53168 21.7683333,10.67968 C21.80484,10.8281733 21.9533333,10.90168 22.06532,10.90168 L22.1768133,10.90168 L22.58332,10.7531867 L22.8418267,11.5296933 L22.43532,11.6781867 C22.25032,11.7512 22.1768133,11.9362 22.25032,12.0846933 C22.2868267,12.2331867 22.43532,12.3062 22.5468133,12.3062 L22.6588,12.3062 L23.0653067,12.1582 L23.32332,12.9347067 L22.9168133,13.0832 C22.7318133,13.1562133 22.6588,13.3412133 22.7318133,13.4897067 C22.76832,13.6382 22.9168133,13.7112133 23.0288,13.7112133 L23.1402933,13.7112133 L23.5468,13.56272 L24.2502933,15.59772 L13.18532,9.56968 Z" id="Fill-17"></path>
                    <path d="M19.2513467,10.20016 C19.3268267,10.2366667 19.3633333,10.2366667 19.39984,10.2366667 L19.39984,10.2366667 C19.58484,10.2366667 19.7333333,10.0881733 19.7333333,9.90317333 C19.7333333,9.83016 19.6968267,9.75468 19.66032,9.71817333 L18.18032,5.46317333 C18.14332,5.39016 18.1068133,5.31468 18.0318267,5.27817333 C17.95832,5.24166667 17.8468267,5.24166667 17.77332,5.27817333 L13.88832,6.60968 C13.7768267,6.64668 13.6668133,6.75817333 13.6668133,6.90666667 C13.6668133,7.05516 13.70332,7.16468 13.8153067,7.20365333 L19.2513467,10.20016 Z M17.73484,5.98166667 L18.84484,9.19968 L14.8483467,6.94317333 L17.73484,5.98166667 Z" id="Fill-18"></path>
                </g>
            </g>
        </g>
    </g>
</svg>