<?xml version="1.0" encoding="UTF-8" standalone="no"?>
<svg width="16px" height="24px" viewBox="0 0 16 24" version="1.1" xmlns="http://www.w3.org/2000/svg" xmlns:xlink="http://www.w3.org/1999/xlink" xmlns:sketch="http://www.bohemiancoding.com/sketch/ns">
    <!-- Generator: Sketch 3.3.3 (12072) - http://www.bohemiancoding.com/sketch -->
    <title>medicine</title>
    <desc>Created with Sketch.</desc>
    <defs></defs>
    <g id="Page-1" stroke="none" stroke-width="1" fill="none" fill-rule="evenodd" sketch:type="MSPage">
        <g id="Artboard-1-Copy" sketch:type="MSArtboardGroup" transform="translate(-202.000000, -681.000000)" fill="#000000">
            <g id="Group" sketch:type="MSLayerGroup" transform="translate(168.000000, 219.000000)">
                <path d="M48.1235863,473.53946 C48.1212929,473.534874 48.1189996,473.533154 48.1167063,473.528567 C47.3421329,472.408847 46.6409463,471.635994 46.2155329,471.2037 C46.7441463,471.075847 47.3352529,470.986407 48.0610929,470.917034 C48.7594129,470.852247 49.1624663,470.361474 49.1091463,469.64022 C49.0506663,468.818634 48.4188529,467.80842 47.7629596,467.80842 L47.7314263,467.80842 C47.4361596,467.82218 47.0262263,467.842247 46.6094129,467.83766 C46.5847596,465.840167 45.6221329,464.78982 45.1221863,464.379887 C45.3733063,463.9969 45.7293463,463.32266 45.5705329,462.784874 C45.5120529,462.592807 45.3641329,462.332514 44.9811463,462.198354 C44.7059463,462.102034 44.4393463,462.12898 44.2065729,462.2769 C44.1033729,462.341687 44.0116396,462.431127 43.9330929,462.532034 C43.8929596,462.449474 43.8436529,462.37322 43.7834529,462.303847 C43.5971196,462.090567 43.3396929,461.98794 43.0352529,462.001127 C42.7170529,462.01718 42.4550396,462.15134 42.2761596,462.390994 C42.2268529,462.458074 42.1844263,462.52974 42.1505996,462.608287 C42.0989996,462.556687 42.0410929,462.51426 41.9826129,462.475847 C41.8301063,462.384114 41.5772663,462.294674 41.2321196,462.406474 C40.9592129,462.496487 40.7619863,462.67766 40.6610796,462.9305 C40.4598396,463.443634 40.7195596,464.14482 40.8898396,464.50946 C40.6587863,464.726754 40.4707329,464.948634 40.3027463,465.170514 C39.4920529,464.928567 38.0518396,465.08738 37.5237996,465.6137 C37.4584396,465.678487 37.4251863,465.7685 37.4297729,465.860234 C37.4521329,466.271887 37.4274796,467.454674 37.0576796,467.9787 C36.9928929,468.070434 36.8317863,468.236127 36.6454529,468.426474 C35.5211463,469.58002 32.8941329,472.276407 34.5137996,475.906754 C34.5115063,475.924527 34.5092129,475.945167 34.5069196,475.965234 C34.4306663,477.069474 35.2258796,479.6919 37.1786529,481.81266 C38.5133729,483.25918 40.8806663,484.99294 44.5803863,485.03766 L44.6921863,485.03766 C46.8983729,485.03766 48.4326129,484.256207 49.2524796,482.715087 C50.7437196,479.924674 49.3103863,475.264047 48.1235863,473.53946 L48.1235863,473.53946 Z M47.2544129,473.43454 C44.8762263,473.541754 43.5145596,472.993074 43.4451863,472.630154 C43.4090663,472.446687 43.7989329,471.962794 45.4988663,471.409527 C45.7740663,471.66982 46.4551863,472.350367 47.2544129,473.43454 L47.2544129,473.43454 Z M41.5033063,464.832247 C41.6196929,464.73134 41.6489329,464.563354 41.5726796,464.431487 C41.4184529,464.155714 41.1426796,463.488354 41.2659463,463.170154 C41.2860129,463.118554 41.3221329,463.060647 41.4339329,463.024527 C41.5526129,462.986687 41.6110929,463.006754 41.6489329,463.031407 C41.7429596,463.089887 41.9086529,463.282527 42.0473996,463.936127 C42.0697596,464.095514 42.0967063,464.209607 42.1058796,464.245154 C42.1460129,464.41314 42.3162929,464.518634 42.4842796,464.484807 C42.6545596,464.44926 42.7663596,464.288154 42.7371196,464.11558 C42.7193463,464.010087 42.7015729,463.911474 42.6815063,463.817447 C42.6321996,463.45682 42.6321996,462.998154 42.7955996,462.78086 C42.8380263,462.724674 42.9073996,462.657594 43.0685063,462.650714 C43.1986529,462.643834 43.2588529,462.688554 43.2995596,462.733847 C43.4698396,462.928207 43.4921996,463.423567 43.4514929,463.810567 C43.4314263,463.927527 43.4228263,464.010087 43.4205329,464.039327 C43.4021863,464.2119 43.5231596,464.366127 43.6957329,464.39078 C43.8705996,464.415434 44.0271196,464.299047 44.0586529,464.128767 C44.0632396,464.099527 44.0764263,464.01926 44.0901863,463.902874 C44.1549729,463.528487 44.3097729,462.977514 44.5534396,462.823287 C44.5981596,462.79634 44.6589329,462.771687 44.7684396,462.809527 C44.9031729,462.85654 44.9364263,462.917314 44.9524796,462.971207 C45.0419196,463.27106 44.6944796,463.905167 44.4192796,464.258914 C44.3607996,464.332874 44.3384396,464.4269 44.3585063,464.518634 C44.3768529,464.610367 44.4347596,464.688914 44.5155996,464.735927 C44.5310796,464.744527 45.9151063,465.566687 45.9621196,467.806127 C45.7001063,467.77918 45.4581596,467.739047 45.2723996,467.669674 C45.1605996,467.627247 44.9811463,467.53322 44.7953863,467.432314 C44.1125463,467.0671 43.2611463,466.610154 42.6522663,466.943834 C42.3409463,467.114114 42.1660796,467.45238 42.1282396,467.947167 C42.0026796,469.604674 41.8639329,469.8621 40.8898396,469.819674 C40.1685863,468.69078 39.3980263,466.657167 41.5033063,464.832247 L41.5033063,464.832247 Z M37.1115729,468.878834 C37.3334529,468.650647 37.4945596,468.487247 37.5885863,468.352514 C38.0655996,467.67426 38.0925463,466.45822 38.0833729,465.996687 C38.4462929,465.77022 39.3194796,465.631474 39.9381063,465.741554 C38.9794929,467.537234 39.7924796,469.295647 40.3543463,470.17342 C40.2488529,470.42454 39.9381063,470.9887 39.1876129,471.161274 C36.6746929,471.743207 35.3307996,473.248207 34.7912929,474.708487 C34.1239329,471.954194 36.1013596,469.9137 37.1115729,468.878834 L37.1115729,468.878834 Z M48.6877463,482.415234 C47.9779596,483.752247 46.5847596,484.428207 44.5941463,484.394954 C41.1226129,484.35482 38.9055329,482.730567 37.6579596,481.378074 C35.7676796,479.326687 35.0934396,476.872247 35.1542129,476.01454 C35.2614263,474.489474 36.4195596,472.469047 39.3332396,471.792514 C40.3142129,471.564327 40.7573996,470.849954 40.9299729,470.466967 C42.4865729,470.482447 42.6545596,469.57314 42.7732396,467.998767 C42.7864263,467.817594 42.8311463,467.58654 42.9635863,467.513154 C43.2680263,467.346887 44.0339996,467.75682 44.4909463,468.003354 C44.7059463,468.117447 44.8917063,468.218354 45.0442129,468.276834 C45.3778929,468.404114 45.8164929,468.458007 46.2671329,468.478074 C46.2688529,468.478074 46.2711463,468.480367 46.2734396,468.480367 L46.2780263,468.480367 C46.8158129,468.50502 47.3685063,468.480367 47.7830263,468.458007 C47.9647729,468.473487 48.4664396,469.140847 48.4681596,469.768074 C48.4681596,470.094874 48.3271196,470.249674 47.9980263,470.278914 C46.9723329,470.375234 46.1954663,470.516274 45.4810929,470.738154 C43.5638663,471.333847 42.6654529,472.0121 42.8087863,472.75342 C43.0197729,473.830714 45.3887863,474.215994 47.6867063,474.054887 C48.7508129,475.73418 49.9937996,479.962514 48.6877463,482.415234 L48.6877463,482.415234 Z" id="medicine" sketch:type="MSShapeGroup"></path>
            </g>
        </g>
    </g>
</svg>