<?xml version="1.0" encoding="UTF-8" standalone="no"?>
<svg width="18px" height="25px" viewBox="0 0 18 25" version="1.1" xmlns="http://www.w3.org/2000/svg" xmlns:xlink="http://www.w3.org/1999/xlink" xmlns:sketch="http://www.bohemiancoding.com/sketch/ns">
    <!-- Generator: Sketch 3.3.3 (12072) - http://www.bohemiancoding.com/sketch -->
    <title>people</title>
    <desc>Created with Sketch.</desc>
    <defs></defs>
    <g id="Page-1" stroke="none" stroke-width="1" fill="none" fill-rule="evenodd" sketch:type="MSPage">
        <g id="Artboard-1-Copy" sketch:type="MSArtboardGroup" transform="translate(-203.000000, -800.000000)" fill="#000000">
            <path d="M220.776253,808.792944 C218.135502,807.590966 215.10159,806.955948 211.999059,806.955948 C208.898777,806.955948 205.864865,807.590966 203.223551,808.792944 C203.030627,808.880688 202.946821,809.106797 203.035127,809.298033 C203.120621,809.48927 203.34673,809.574764 203.540216,809.48702 C206.082538,808.331164 209.006769,807.720894 211.999059,807.720894 C214.991348,807.720894 217.91783,808.331164 220.460151,809.48927 C220.510772,809.513456 220.565893,809.524705 220.618202,809.524705 C220.763317,809.524705 220.901682,809.440898 220.96524,809.300283 C221.053546,809.106797 220.96749,808.880688 220.776253,808.792944 L220.776253,808.792944 Z M214.25565,808.560085 C214.180843,808.362099 213.960921,808.263106 213.763497,808.337913 C213.565511,808.41272 213.466518,808.63433 213.541325,808.830066 C214.35633,810.985414 216.496492,816.761883 216.626421,817.601074 C216.709665,818.154535 216.648356,818.558944 216.439684,818.800802 C216.234948,819.03816 215.854725,819.160777 215.312513,819.160777 L208.687854,819.160777 C208.14508,819.160777 207.765419,819.039848 207.560683,818.800802 C207.354261,818.558944 207.290702,818.154535 207.376196,817.601074 C207.503875,816.761883 209.645724,810.985414 210.459042,808.830066 C210.533849,808.632643 210.432606,808.41272 210.23687,808.337913 C210.037197,808.265356 209.817275,808.362099 209.744717,808.560085 C209.441551,809.359904 206.785613,816.412595 206.620812,817.486894 C206.502133,818.270964 206.6225,818.881796 206.980787,819.299142 C207.336824,819.7148 207.912221,819.925723 208.687854,819.925723 L215.310263,819.925723 C216.085896,819.925723 216.661293,819.7148 217.017331,819.299142 C217.377868,818.881796 217.498234,818.270964 217.379555,817.486894 C217.217004,816.414845 214.556566,809.359904 214.25565,808.560085 L214.25565,808.560085 Z M211.999059,806.121257 C213.68644,806.121257 215.059406,804.747728 215.059406,803.060347 C215.059406,801.372966 213.68644,800 211.999059,800 C210.311677,800 208.938712,801.372966 208.938712,803.060347 C208.938712,804.747728 210.311677,806.121257 211.999059,806.121257 L211.999059,806.121257 Z M211.999059,800.764384 C213.264595,800.764384 214.295022,801.794811 214.295022,803.060347 C214.295022,804.325883 213.264595,805.356311 211.999059,805.356311 C210.733523,805.356311 209.703095,804.325883 209.703095,803.060347 C209.703095,801.794811 210.733523,800.764384 211.999059,800.764384 L211.999059,800.764384 Z M210.280742,820.369504 C210.069819,820.369504 209.898831,820.540492 209.898831,820.751415 L209.898831,824.190298 C209.898831,824.40122 210.069819,824.572208 210.280742,824.572208 C210.491665,824.572208 210.663215,824.40122 210.663215,824.190298 L210.663215,820.751415 C210.663215,820.538805 210.493915,820.369504 210.280742,820.369504 L210.280742,820.369504 Z M213.954734,820.369504 C213.743811,820.369504 213.57226,820.540492 213.57226,820.751415 L213.57226,824.190298 C213.57226,824.40122 213.743811,824.572208 213.954734,824.572208 C214.165656,824.572208 214.336644,824.40122 214.336644,824.190298 L214.336644,820.751415 C214.336644,820.538805 214.165656,820.369504 213.954734,820.369504 L213.954734,820.369504 Z" id="people" sketch:type="MSShapeGroup"></path>
        </g>
    </g>
</svg>