<?xml version="1.0" encoding="UTF-8" standalone="no"?>
<svg width="21px" height="20px" viewBox="0 0 21 20" version="1.1" xmlns="http://www.w3.org/2000/svg" xmlns:xlink="http://www.w3.org/1999/xlink" xmlns:sketch="http://www.bohemiancoding.com/sketch/ns">
    <!-- Generator: Sketch 3.3.3 (12072) - http://www.bohemiancoding.com/sketch -->
    <title>philosophy</title>
    <desc>Created with Sketch.</desc>
    <defs></defs>
    <g id="Page-1" stroke="none" stroke-width="1" fill="none" fill-rule="evenodd" sketch:type="MSPage">
        <g id="Artboard-1-Copy" sketch:type="MSArtboardGroup" transform="translate(-200.000000, -434.000000)" fill="#000000">
            <g id="Group" sketch:type="MSLayerGroup" transform="translate(168.000000, 219.000000)">
                <g id="philosophy" transform="translate(32.000000, 215.000000)" sketch:type="MSShapeGroup">
                    <path d="M20.0400533,9.96666667 C20.0400533,4.51137333 15.6016667,0.0729866667 10.1463733,0.0729866667 C5.17009333,0.0729866667 1.04328,3.76617333 0.355733333,8.55446667 C0.223866667,9.00342667 0.153333333,9.47661333 0.153333333,9.96666667 C0.153333333,15.42196 4.59172,19.8603467 10.0470133,19.8603467 C15.0229867,19.8603467 19.1510267,16.16716 19.8376533,11.3788667 C19.9679867,10.9299067 20.0400533,10.45672 20.0400533,9.96666667 L20.0400533,9.96666667 Z M10.1463733,0.50324 C15.3646133,0.50324 19.6098,4.74842667 19.6098,9.96666667 C19.6098,12.5169067 17.5352,14.5905867 14.98588,14.5905867 C12.4368667,14.5905867 10.3607333,12.5169067 10.3607333,9.96666667 C10.3607333,7.18029333 8.09324,4.9128 5.30686667,4.9128 C3.56009333,4.9128 2.01725333,5.80274667 1.10921333,7.15392 C2.30950667,3.30494667 5.90701333,0.50324 10.1463733,0.50324 L10.1463733,0.50324 Z M5.30686667,7.81632 C6.49397333,7.81632 7.45690667,8.77956 7.45690667,9.96666667 C7.45690667,11.1537733 6.49397333,12.1170133 5.30686667,12.1170133 C4.11853333,12.1170133 3.15529333,11.1537733 3.15529333,9.96666667 C3.15529333,8.77833333 4.11853333,7.81632 5.30686667,7.81632 L5.30686667,7.81632 Z" id="Fill-1"></path>
                    <path d="M17.1362267,9.96666667 C17.1362267,11.155 16.1729867,12.1170133 14.9846533,12.1170133 C13.7975467,12.1170133 12.8346133,11.155 12.8346133,9.96666667 C12.8346133,8.77833333 13.7975467,7.81632 14.9846533,7.81632 C16.1729867,7.81632 17.1362267,8.77833333 17.1362267,9.96666667" id="Fill-2"></path>
                </g>
            </g>
        </g>
    </g>
</svg>