<?xml version="1.0" encoding="UTF-8" standalone="no"?>
<svg width="48px" height="36px" viewBox="0 0 48 36" version="1.1" xmlns="http://www.w3.org/2000/svg" xmlns:xlink="http://www.w3.org/1999/xlink" xmlns:sketch="http://www.bohemiancoding.com/sketch/ns">
    <!-- Generator: Sketch 3.3.3 (12072) - http://www.bohemiancoding.com/sketch -->
    <title>Imported Layers</title>
    <desc>Created with Sketch.</desc>
    <defs></defs>
    <g id="Page-1" stroke="none" stroke-width="1" fill="none" fill-rule="evenodd" sketch:type="MSPage">
        <g id="Artboard-1-Copy" sketch:type="MSArtboardGroup" transform="translate(-461.000000, -816.000000)" fill="#FFFFFF">
            <g id="card-copy-5" sketch:type="MSLayerGroup" transform="translate(401.000000, 772.000000)">
                <g id="Bitmap" transform="translate(24.000000, 0.000000)" sketch:type="MSShapeGroup">
                    <path d="M79.7506667,79.416 L40.1666667,79.416 C37.8646667,79.416 36,77.552 36,75.2493333 L36,48.1666667 C36,45.864 37.8646667,44 40.1666667,44 L79.7506667,44 C82.0526667,44 83.9173333,45.864 83.9173333,48.1666667 L83.9173333,75.2493333 C83.9173333,77.552 82.0526667,79.416 79.7506667,79.416 L79.7506667,79.416 Z M81.8333333,48.1666667 C81.8333333,47.0153333 80.9013333,46.0826667 79.7506667,46.0826667 L40.1666667,46.0826667 C39.016,46.0826667 38.084,47.0153333 38.084,48.1666667 L38.084,75.2493333 C38.084,76.4006667 39.016,77.3333333 40.1666667,77.3333333 L79.7506667,77.3333333 C80.9013333,77.3333333 81.8333333,76.4006667 81.8333333,75.2493333 L81.8333333,48.1666667 Z M78.016,72.8693333 L71.4173333,66.2706667 L67.646,70.0413333 L71.12,73.5153333 C71.516,73.9113333 71.516,74.5566667 71.12,74.9526667 C70.722,75.3486667 70.0786667,75.3486667 69.6826667,74.9526667 L54.7506667,60.0206667 L41.9013333,72.8693333 C41.5053333,73.2653333 40.86,73.2653333 40.464,72.8693333 C40.068,72.4713333 40.068,71.828 40.464,71.432 L53.9066667,57.9893333 C53.9406667,57.94 53.9613333,57.8853333 54.0053333,57.838 C54.2113333,57.6326667 54.482,57.5386667 54.7506667,57.5466667 C55.0186667,57.5413333 55.2893333,57.6353333 55.4953333,57.838 C55.5393333,57.8826667 55.56,57.9373333 55.594,57.9893333 L66.2086667,68.604 L70.5733333,64.2393333 C70.6073333,64.19 70.628,64.1353333 70.672,64.088 C70.878,63.8853333 71.1486667,63.7886667 71.4173333,63.7966667 C71.6853333,63.7913333 71.956,63.8853333 72.162,64.088 C72.206,64.1326667 72.2266667,64.19 72.2606667,64.2393333 L79.4533333,71.432 C79.8493333,71.828 79.8493333,72.4733333 79.4533333,72.8693333 C79.0553333,73.2653333 78.412,73.2653333 78.016,72.8693333 L78.016,72.8693333 Z M65.1666667,56.5 C62.8646667,56.5 61,54.6353333 61,52.3333333 C61,50.0306667 62.8646667,48.1666667 65.1666667,48.1666667 C67.4693333,48.1666667 69.3333333,50.0306667 69.3333333,52.3333333 C69.3333333,54.6353333 67.4693333,56.5 65.1666667,56.5 L65.1666667,56.5 Z M65.1666667,50.2493333 C64.016,50.2493333 63.084,51.182 63.084,52.3333333 C63.084,53.484 64.016,54.416 65.1666667,54.416 C66.318,54.416 67.2506667,53.484 67.2506667,52.3333333 C67.2506667,51.182 66.318,50.2493333 65.1666667,50.2493333 L65.1666667,50.2493333 Z" id="Imported-Layers"></path>
                </g>
            </g>
        </g>
    </g>
</svg>