<?xml version="1.0" encoding="UTF-8" standalone="no"?>
<svg width="23px" height="21px" viewBox="0 0 23 21" version="1.1" xmlns="http://www.w3.org/2000/svg" xmlns:xlink="http://www.w3.org/1999/xlink" xmlns:sketch="http://www.bohemiancoding.com/sketch/ns">
    <!-- Generator: Sketch 3.3.3 (12072) - http://www.bohemiancoding.com/sketch -->
    <title>science</title>
    <desc>Created with Sketch.</desc>
    <defs></defs>
    <g id="Page-1" stroke="none" stroke-width="1" fill="none" fill-rule="evenodd" sketch:type="MSPage">
        <g id="Artboard-1-Copy" sketch:type="MSArtboardGroup" transform="translate(-197.000000, -372.000000)" fill="#000000">
            <g id="Group" sketch:type="MSLayerGroup" transform="translate(168.000000, 219.000000)">
                <g id="science" transform="translate(29.000000, 153.000000)" sketch:type="MSShapeGroup">
                    <path d="M19.3113333,7.341 C18.6913333,7.142 18.0116667,6.96866667 17.285,6.82433333 C17.522,6.125 17.716,5.44933333 17.853,4.815 C18.349,2.50533333 18.0976667,0.985666667 17.125,0.424333333 C16.8816667,0.284 16.6016667,0.212333333 16.2916667,0.212333333 C15.8346667,0.212333333 15.315,0.373666667 14.754,0.674333333 C14.5506667,0.517 14.2993333,0.419333333 14.0233333,0.419333333 C13.3633333,0.419333333 12.8266667,0.954333333 12.8266667,1.616 C12.8266667,1.763 12.8566667,1.90366667 12.9063333,2.034 C12.4466667,2.453 11.9753333,2.93733333 11.5,3.478 C9.715,1.444 7.97266667,0.212333333 6.707,0.212333333 C6.39833333,0.212333333 6.11833333,0.284 5.87366667,0.424333333 C4.901,0.985666667 4.64966667,2.504 5.146,4.815 C5.28266667,5.44933333 5.47666667,6.125 5.71366667,6.82433333 C4.98833333,6.96866667 4.30733333,7.142 3.68866667,7.341 C1.43866667,8.06633333 0.25,9.043 0.25,10.1666667 C0.25,10.9373333 0.81,11.6393333 1.88933333,12.2383333 C1.86733333,12.3306667 1.85166667,12.4256667 1.85166667,12.5246667 C1.85166667,13.185 2.388,13.7213333 3.04833333,13.7213333 C3.49333333,13.7213333 3.87766667,13.474 4.08333333,13.1133333 C4.59233333,13.263 5.13933333,13.3946667 5.71366667,13.509 C5.47666667,14.2083333 5.28266667,14.884 5.146,15.5183333 C4.64966667,17.8293333 4.901,19.3476667 5.87366667,19.909 C6.11733333,20.0493333 6.397,20.121 6.70566667,20.121 C7.97133333,20.121 9.71233333,18.8893333 11.4986667,16.8553333 C13.285,18.8893333 15.0273333,20.121 16.293,20.121 C16.6016667,20.121 16.8816667,20.0493333 17.125,19.909 C17.866,19.4803333 18.1873333,18.4973333 18.0793333,17.0326667 C18.4946667,16.845 18.785,16.4296667 18.785,15.944 C18.785,15.31 18.2903333,14.797 17.668,14.7553333 C17.56,14.3516667 17.4296667,13.9336667 17.2863333,13.509 C18.013,13.3646667 18.6926667,13.1913333 19.3126667,12.9923333 C21.5613333,12.267 22.75,11.2903333 22.75,10.1666667 C22.75,9.043 21.5613333,8.06633333 19.3113333,7.341 L19.3113333,7.341 Z M13.3516667,2.60533333 C13.543,2.73566667 13.7746667,2.81366667 14.0246667,2.81366667 C14.6863333,2.81366667 15.2213333,2.27733333 15.2213333,1.61733333 C15.2213333,1.49733333 15.198,1.38266667 15.1653333,1.27333333 C15.6003333,1.047 15.9816667,0.931 16.293,0.931 C16.4766667,0.931 16.6316667,0.968666667 16.767,1.047 C17.414,1.42066667 17.5586667,2.77333333 17.151,4.66533333 C17.0143333,5.30333333 16.815,5.987 16.5716667,6.694 C15.6653333,6.54166667 14.6993333,6.431 13.6953333,6.366 C13.1303333,5.517 12.5506667,4.73433333 11.9713333,4.03266667 C12.4466667,3.48566667 12.91,3.009 13.3516667,2.60533333 L13.3516667,2.60533333 Z M14.2316667,11.7433333 C13.922,12.28 13.608,12.789 13.2943333,13.272 C12.716,13.3033333 12.1173333,13.3203333 11.5,13.3203333 C10.8826667,13.3203333 10.284,13.3033333 9.70566667,13.272 C9.392,12.789 9.078,12.28 8.76833333,11.7433333 C8.46366667,11.216 8.18233333,10.6886667 7.91533333,10.1626667 C8.177,9.647 8.461,9.12233333 8.76833333,8.58866667 C9.078,8.052 9.392,7.543 9.70566667,7.06 C10.284,7.02866667 10.8816667,7.01166667 11.5,7.01166667 C12.1173333,7.01166667 12.716,7.02866667 13.2943333,7.06 C13.608,7.543 13.922,8.052 14.2316667,8.58866667 C14.5403333,9.12233333 14.823,9.647 15.0846667,10.1626667 C14.8176667,10.6886667 14.5363333,11.216 14.2316667,11.7433333 L14.2316667,11.7433333 Z M15.478,10.966 C15.802,11.6536667 16.0846667,12.3176667 16.3243333,12.9516667 C15.6563333,13.0613333 14.9413333,13.1483333 14.1836667,13.2123333 C14.41,12.8516667 14.634,12.483 14.853,12.103 C15.0716667,11.724 15.2786667,11.345 15.478,10.966 L15.478,10.966 Z M12.797,14.013 C12.362,14.6433333 11.927,15.2213333 11.5,15.7433333 C11.073,15.22 10.638,14.642 10.203,14.013 C10.6316667,14.0286667 11.0636667,14.0376667 11.5,14.0376667 C11.9373333,14.039 12.3696667,14.03 12.797,14.013 L12.797,14.013 Z M8.81633333,13.2123333 C8.06,13.1496667 7.34366667,13.0613333 6.67566667,12.9516667 C6.91533333,12.3176667 7.198,11.6536667 7.522,10.966 C7.72266667,11.345 7.92833333,11.724 8.147,12.103 C8.366,12.4816667 8.59,12.8516667 8.81633333,13.2123333 L8.81633333,13.2123333 Z M7.52333333,9.36333333 C7.20566667,8.69 6.92066667,8.026 6.67566667,7.38166667 C7.34366667,7.272 8.05866667,7.185 8.815,7.12233333 C8.58866667,7.483 8.36466667,7.85166667 8.146,8.23166667 C7.92833333,8.608 7.72266667,8.98566667 7.52333333,9.36333333 L7.52333333,9.36333333 Z M10.203,6.32033333 C10.638,5.69 11.073,5.112 11.5,4.59 C11.927,5.11333333 12.362,5.69133333 12.797,6.32033333 C12.3683333,6.30466667 11.9363333,6.29566667 11.4986667,6.29566667 C11.0626667,6.29433333 10.6303333,6.30333333 10.203,6.32033333 L10.203,6.32033333 Z M14.853,8.23033333 C14.634,7.85033333 14.41,7.48166667 14.1836667,7.121 C14.94,7.18366667 15.655,7.272 16.323,7.38033333 C16.078,8.026 15.7943333,8.68866667 15.4753333,9.362 C15.2773333,8.98566667 15.0716667,8.608 14.853,8.23033333 L14.853,8.23033333 Z M5.849,4.664 C5.44266667,2.772 5.586,1.41933333 6.233,1.04566667 C6.36833333,0.967333333 6.52333333,0.929666667 6.707,0.929666667 C7.655,0.929666667 9.25533333,1.99733333 11.0286667,4.03133333 C10.4493333,4.73433333 9.86966667,5.517 9.30466667,6.36466667 C8.29933333,6.42966667 7.33333333,6.54033333 6.42833333,6.69266667 C6.185,5.98566667 5.98566667,5.302 5.849,4.664 L5.849,4.664 Z M4.233,12.405 C4.172,11.8006667 3.668,11.328 3.04833333,11.328 C2.75,11.328 2.48166667,11.4413333 2.272,11.621 C1.43366667,11.16 0.967333333,10.655 0.967333333,10.1666667 C0.967333333,9.17833333 2.86833333,8.11466667 5.95566667,7.51033333 C6.27733333,8.371 6.664,9.263 7.10933333,10.1666667 C6.66266667,11.0703333 6.27733333,11.9623333 5.95566667,12.823 C5.332,12.7006667 4.754,12.56 4.233,12.405 L4.233,12.405 Z M6.707,19.4036667 C6.52333333,19.4036667 6.36833333,19.366 6.233,19.2876667 C5.37766667,18.793 5.40633333,16.616 6.427,13.6406667 C7.33333333,13.793 8.29933333,13.9036667 9.30466667,13.9686667 C9.86966667,14.8176667 10.4493333,15.6003333 11.0286667,16.302 C9.25666667,18.336 7.655,19.4036667 6.707,19.4036667 L6.707,19.4036667 Z M16.966,14.9256667 C16.6223333,15.1353333 16.3906667,15.5116667 16.3906667,15.9453333 C16.3906667,16.5273333 16.806,17.0116667 17.358,17.1183333 C17.435,18.246 17.233,19.0183333 16.7656667,19.2876667 C16.6303333,19.366 16.4766667,19.4036667 16.293,19.4036667 C15.3463333,19.4036667 13.7446667,18.336 11.9713333,16.302 C12.5506667,15.599 13.1303333,14.8163333 13.6953333,13.9686667 C14.7006667,13.9036667 15.6666667,13.793 16.573,13.6406667 C16.7266667,14.0873333 16.858,14.5183333 16.966,14.9256667 L16.966,14.9256667 Z M17.043,12.823 C16.7213333,11.9623333 16.336,11.0703333 15.8893333,10.1666667 C16.336,9.263 16.7213333,8.371 17.043,7.51033333 C20.1316667,8.11466667 22.0326667,9.17833333 22.0326667,10.1666667 C22.0326667,11.155 20.1316667,12.2186667 17.043,12.823 L17.043,12.823 Z" id="Fill-1"></path>
                    <path d="M13.1756667,10.1666667 C13.1756667,12.401 9.82433333,12.401 9.82433333,10.1666667 C9.82433333,7.93233333 13.1756667,7.93233333 13.1756667,10.1666667" id="Fill-2"></path>
                </g>
            </g>
        </g>
    </g>
</svg>