<?xml version="1.0" encoding="UTF-8" standalone="no"?>
<svg width="22px" height="22px" viewBox="0 0 22 22" version="1.1" xmlns="http://www.w3.org/2000/svg" xmlns:xlink="http://www.w3.org/1999/xlink" xmlns:sketch="http://www.bohemiancoding.com/sketch/ns">
    <!-- Generator: Sketch 3.3.3 (12072) - http://www.bohemiancoding.com/sketch -->
    <title>society</title>
    <desc>Created with Sketch.</desc>
    <defs></defs>
    <g id="Page-1" stroke="none" stroke-width="1" fill="none" fill-rule="evenodd" sketch:type="MSPage">
        <g id="Artboard-1-Copy" sketch:type="MSArtboardGroup" transform="translate(-202.000000, -853.000000)" fill="#000000">
            <path d="M222.519547,866.701893 L221.5492,860.966933 C221.794133,860.782427 221.95576,860.492613 221.95576,860.162613 C221.95576,859.605573 221.50432,859.154133 220.947573,859.154133 C220.812347,859.154133 220.682693,859.181707 220.564773,859.230987 L217.64288,856.218747 C217.886933,856.001973 218.042693,855.68928 218.042693,855.337573 C218.042693,854.68432 217.51352,854.153973 216.859093,854.153973 C216.45136,854.153973 216.09144,854.360187 215.878187,854.675227 L211.2092,853.67936 C211.13,853.29216 210.787387,853 210.376133,853 C209.906213,853 209.52576,853.380453 209.52576,853.85008 C209.52576,853.999093 209.56712,854.136667 209.634587,854.25928 L205.93712,858.087573 C205.88432,858.07936 205.83152,858.07144 205.776667,858.07144 C205.19,858.07144 204.713333,858.546933 204.713333,859.134773 C204.713333,859.52784 204.929813,859.868107 205.2472,860.05144 L203.322347,864.99792 C203.273067,864.991173 203.22496,864.98296 203.173333,864.98296 C202.586667,864.98296 202.11,865.458747 202.11,866.046587 C202.11,866.489813 202.381627,866.869093 202.767653,867.028373 L202.695493,872.183413 C202.289813,872.3336 202,872.7208 202,873.178107 C202,873.765947 202.475493,874.24144 203.063333,874.24144 C203.60072,874.24144 204.04072,873.841627 204.111707,873.3236 L212.929013,872.740453 C213.0836,873.070453 213.41712,873.30072 213.805493,873.30072 C214.030187,873.30072 214.234053,873.22152 214.398027,873.093333 L218.775147,874.570267 C218.921813,874.82576 219.193147,875 219.50936,875 C219.97928,875 220.359733,874.619547 220.359733,874.149627 C220.359733,874.091253 220.353867,874.034053 220.342427,873.978907 L222.508107,868.613253 C222.974507,868.541973 223.333253,868.143333 223.333253,867.6564 C223.334133,867.173867 222.981253,866.777573 222.519547,866.701893 L222.519547,866.701893 Z M213.14432,861.69352 L216.593333,866.138107 C216.491253,866.261893 216.414693,866.402693 216.367467,866.55992 L209.712613,866.103787 C209.672427,866.0064 209.6164,865.916933 209.549813,865.836853 L212.05136,861.813787 C212.183067,861.858373 212.322693,861.8836 212.46848,861.8836 C212.716933,861.884773 212.9472,861.813787 213.14432,861.69352 L213.14432,861.69352 Z M213.5808,861.256747 C213.65208,861.138827 213.703413,861.00712 213.734507,860.869547 L219.995413,860.482347 C220.03648,860.606133 220.10072,860.717307 220.183147,860.814693 L217.630267,865.704853 C217.594773,865.701627 217.561627,865.694587 217.52496,865.694587 C217.368027,865.694587 217.220187,865.726853 217.082613,865.780533 L213.5808,861.256747 Z M216.180907,856.30352 C216.373333,856.438747 216.60712,856.52 216.860267,856.52 C216.942693,856.52 217.023067,856.51208 217.1008,856.495947 L220.098373,859.62288 C220.038827,859.716747 219.995413,859.82 219.969013,859.931173 L213.74008,860.318373 C213.702533,860.139733 213.631253,859.97224 213.528293,859.82792 L216.180907,856.30352 Z M211.10712,854.277467 L215.68576,855.2528 C215.683413,855.281253 215.67784,855.307653 215.67784,855.3364 C215.67784,855.51504 215.72008,855.683413 215.79136,855.834773 L213.078027,859.4328 C212.92784,859.352427 212.761813,859.301973 212.58288,859.287307 C212.523333,859.27792 212.462613,859.27352 212.40072,859.27352 C212.360533,859.27352 212.322693,859.28144 212.283973,859.28496 L210.84576,854.558187 C210.953413,854.486027 211.041707,854.389813 211.10712,854.277467 L211.10712,854.277467 Z M210.13208,854.659093 C210.16992,854.670533 210.20864,854.67992 210.248827,854.686667 L211.711973,859.487653 C211.48288,859.64576 211.316853,859.883067 211.238827,860.156747 C211.23208,860.1764 211.22504,860.194587 211.219467,860.21424 L206.822693,858.961707 C206.7828,858.71648 206.65784,858.501173 206.48008,858.343067 L210.13208,854.659093 Z M206.74848,859.563333 L211.1872,860.80648 C211.23648,861.09072 211.377573,861.342693 211.579093,861.531893 L209.10424,865.5136 C208.9872,865.469013 208.86136,865.44144 208.72848,865.44144 C208.700907,865.44144 208.67568,865.447307 208.64928,865.44936 L206.425227,859.97136 C206.563973,859.863413 206.676027,859.726133 206.74848,859.563333 L206.74848,859.563333 Z M205.780187,860.196933 C205.828293,860.196933 205.874053,860.189013 205.919813,860.183147 L208.1292,865.625947 C207.927387,865.76352 207.779547,865.970907 207.709733,866.21144 L204.216133,865.85152 C204.168027,865.5928 204.02576,865.370453 203.827467,865.214693 L205.780187,860.196933 Z M203.60424,872.267307 C203.512427,872.21216 203.412693,872.1708 203.30504,872.144693 L203.371627,867.089093 C203.746213,867.018107 204.046587,866.751173 204.171253,866.399467 L207.70064,866.762613 C207.732613,866.888747 207.78424,867.006667 207.8564,867.109627 L203.60424,872.267307 Z M212.854507,872.137653 L204.020187,872.7208 C204.0108,872.70144 203.99936,872.68296 203.989093,872.6636 L208.27792,867.463973 C208.415493,867.52792 208.566853,867.566933 208.72848,867.566933 C208.824693,867.566933 208.916213,867.549627 209.004507,867.525573 L212.98856,871.808827 C212.925493,871.90856 212.87856,872.01856 212.854507,872.137653 L212.854507,872.137653 Z M214.200907,871.444507 C214.079467,871.390533 213.946587,871.35856 213.805493,871.35856 C213.68288,871.35856 213.567307,871.383787 213.45936,871.424853 L209.523413,867.203787 C209.643973,867.067387 209.731973,866.90224 209.769813,866.716853 L216.340187,867.16712 C216.370987,867.309093 216.427307,867.441973 216.503867,867.560187 L214.200907,871.444507 Z M218.701813,873.904693 L214.743867,872.56856 C214.76352,872.491707 214.777307,872.4128 214.777307,872.328907 C214.777307,872.156133 214.728027,871.99568 214.648827,871.854587 L216.950907,867.97144 C217.1228,868.064133 217.315227,868.121627 217.523787,868.121627 C217.537573,868.121627 217.552533,868.118107 217.566027,868.116933 L219.101627,873.409547 C218.91008,873.514853 218.76576,873.69144 218.701813,873.904693 L218.701813,873.904693 Z M219.91856,873.409547 C219.8508,873.37288 219.780987,873.34296 219.704133,873.324773 L218.15064,867.942693 C218.425493,867.775493 218.62936,867.50504 218.70504,867.18296 L221.47,868.038027 C221.555947,868.238373 221.70848,868.4 221.89856,868.504133 L219.91856,873.409547 Z M221.42072,867.43288 L218.686853,866.57576 C218.608827,866.30296 218.4428,866.068293 218.214587,865.91136 L220.7,861.135307 C220.379093,861.02296 220.861627,861.169627 220.947573,861.169627 C220.955493,861.169627 220.962533,861.167573 220.970453,861.167573 L221.920267,866.796933 C221.67152,866.925413 221.486133,867.154507 221.42072,867.43288 L221.42072,867.43288 Z" id="society" sketch:type="MSShapeGroup"></path>
        </g>
    </g>
</svg>