<?xml version="1.0" encoding="UTF-8" standalone="no"?>
<svg width="28px" height="24px" viewBox="0 0 28 24" version="1.1" xmlns="http://www.w3.org/2000/svg" xmlns:xlink="http://www.w3.org/1999/xlink" xmlns:sketch="http://www.bohemiancoding.com/sketch/ns">
    <!-- Generator: Sketch 3.3.3 (12072) - http://www.bohemiancoding.com/sketch -->
    <title>wikipedia-suggestions</title>
    <desc>Created with Sketch.</desc>
    <defs></defs>
    <g id="Page-1" stroke="none" stroke-width="1" fill="none" fill-rule="evenodd" sketch:type="MSPage">
        <g id="Artboard-1-Copy" sketch:type="MSArtboardGroup" transform="translate(-173.000000, -17.000000)" fill="#FFFFFF">
            <g id="wikipedia-suggestions" sketch:type="MSLayerGroup" transform="translate(173.000000, 17.000000)">
                <path d="M22.1369697,19.4518253 L24.9276364,19.9522207 C21.812,22.3345379 17.3107879,22.2299402 14.3215758,19.5070529 C12.4421818,17.7949977 9.99260606,16.908846 7.41406061,17.0067494 C4.83890909,17.108 2.46569697,18.1832644 0.732242424,20.0367356 L1.75975758,20.9714207 C3.24121212,19.3899034 5.26993939,18.4711172 7.47090909,18.3832552 C9.67442424,18.2979034 11.7659394,19.0535172 13.3704242,20.5178851 C15.2167273,22.2006529 17.556,23.0307402 19.8893333,23.0307402 C21.8255758,23.0307402 23.7575758,22.4592184 25.4019394,21.3278897 L24.9972121,23.5244414 L26.3726061,23.7696184 L27.2575758,18.9614713 L22.3821818,18.088708 L22.1369697,19.4518253 Z" id="Fill-1" sketch:type="MSShapeGroup"></path>
                <path d="M22.1369697,11.1986483 L24.9276364,11.6982069 C21.812,14.0813609 17.3107879,13.9767632 14.3215758,11.2538759 C12.4421818,9.54098391 9.99260606,8.65566897 7.41406061,8.75357241 C4.83890909,8.85482299 2.46569697,9.93008736 0.732242424,11.7835586 L1.75975758,12.7182437 C3.24121212,11.1367264 5.26993939,10.2179402 7.47090909,10.1292414 C9.67442424,10.0480736 11.7659394,10.7995034 13.3704242,12.2638713 C15.2167273,13.9474759 17.556,14.7775632 19.8893333,14.7775632 C21.8255758,14.7775632 23.7575758,14.2060414 25.4019394,13.0747126 L24.9972121,15.2712644 L26.3726061,15.5164414 L27.2575758,10.7082943 L22.3821818,9.83553103 L22.1369697,11.1986483 Z" id="Fill-2" sketch:type="MSShapeGroup"></path>
                <path d="M22.1369697,2.94547126 L24.9276364,3.44502989 C21.812,5.82818391 17.3107879,5.72358621 14.3215758,3.00069885 C12.4421818,1.2878069 9.99260606,0.405002299 7.41406061,0.500395402 C4.83890909,0.601645977 2.46569697,1.67691034 0.732242424,3.53038161 L1.75975758,4.46506667 C3.24121212,2.88271264 5.26993939,1.96476322 7.47090909,1.87606437 C9.67442424,1.79154943 11.7659394,2.54632644 13.3704242,4.01069425 C15.2167273,5.69429885 17.556,6.52438621 19.8893333,6.52438621 C21.8255758,6.52438621 23.7575758,5.95202759 25.4019394,4.82153563 L24.9972121,7.01808736 L26.3726061,7.26326437 L27.2575758,2.45511724 L22.3821818,1.58235402 L22.1369697,2.94547126 Z" id="Fill-3" sketch:type="MSShapeGroup"></path>
            </g>
        </g>
    </g>
</svg>