<svg width="20" height="20" viewBox="0 0 20 20" fill="none" xmlns="http://www.w3.org/2000/svg">
<path fill-rule="evenodd" clip-rule="evenodd" d="M10 0C4.47715 0 0 4.47715 0 10C0 15.5228 4.47715 20 10 20C15.5229 20 20 15.5228 20 10C20 4.47715 15.5229 0 10 0ZM11 16H9V14H11V16ZM13.71 8.4C13.6387 8.66218 13.5274 8.91178 13.38 9.14C13.2418 9.34126 13.0807 9.52583 12.9 9.69L12.36 10.17C12.15 10.35 11.95 10.52 11.78 10.69C11.5971 10.853 11.4388 11.0416 11.31 11.25C11.163 11.4796 11.0581 11.7336 11 12C10.9191 12.327 10.8821 12.6633 10.89 13H9.08C9.07396 12.5822 9.09735 12.1645 9.15 11.75C9.18997 11.4396 9.27416 11.1365 9.4 10.85C9.50439 10.6084 9.64242 10.3829 9.81 10.18C9.98295 9.9673 10.1773 9.77295 10.39 9.6C10.56 9.44 10.73 9.3 10.9 9.16C11.058 9.02846 11.2021 8.88102 11.33 8.72C11.4609 8.55527 11.5624 8.36922 11.63 8.17C11.7104 7.93876 11.7477 7.69471 11.74 7.45C11.7457 7.15446 11.6877 6.86115 11.57 6.59C11.3736 6.16597 11.0123 5.84076 10.57 5.69C10.4093 5.63172 10.2407 5.59801 10.07 5.59C9.47826 5.54588 8.90377 5.8012 8.54 6.27C8.18186 6.80707 8.00651 7.44534 8.04 8.09H6.16C6.15113 7.51769 6.246 6.9485 6.44 6.41C6.61083 5.92749 6.8837 5.48749 7.24 5.12C7.60754 4.76135 8.04261 4.47924 8.52 4.29C9.05069 4.09172 9.61351 3.9934 10.18 4C10.6694 3.99678 11.156 4.07449 11.62 4.23C12.041 4.37193 12.4313 4.5925 12.77 4.88C13.1033 5.17301 13.3694 5.5346 13.55 5.94C13.7477 6.39753 13.8465 6.89164 13.84 7.39C13.8478 7.73129 13.8039 8.0718 13.71 8.4Z" fill="#54595D"/>
</svg>
