<svg width="20" height="20" viewBox="0 0 20 20" fill="none" xmlns="http://www.w3.org/2000/svg">
<path fill-rule="evenodd" clip-rule="evenodd" d="M2.27075 5.43805C3.88236 2.69727 6.82052 1.01021 10 1C14.9706 1 19 5.02944 19 10C19 14.9706 14.9706 19 10 19L10 17C13.1036 17 15.8367 14.9565 16.7144 11.9795C17.592 9.00263 16.4047 5.80322 13.7975 4.11955C11.1903 2.43589 7.7857 2.67001 5.43348 4.69472C3.08127 6.71942 2.34309 10.0512 3.62 12.88L6 10.5V16H0.5L2.15 14.35C0.61323 11.5666 0.659129 8.17882 2.27075 5.43805ZM9 11V6H11V10.11L12.95 12.06L11.54 13.47L9.06 11H9Z" fill="black"/>
</svg>
