<svg width="60" height="61" viewBox="0 0 60 61" fill="none" xmlns="http://www.w3.org/2000/svg">
<g opacity="0.8">
<path fill-rule="evenodd" clip-rule="evenodd" d="M44.6605 21.9967C43.0995 22.0932 41.9115 23.4355 42.0055 24.9967C41.9898 25.1212 41.9898 25.2472 42.0055 25.3717C42.1097 26.9247 43.4524 28.0995 45.0055 27.9967C45.1401 28.0117 45.2759 28.0117 45.4105 27.9967C46.9555 27.8848 48.1172 26.5417 48.0055 24.9967C48.0205 24.8621 48.0205 24.7263 48.0055 24.5917C47.8936 23.0467 46.5505 21.885 45.0055 21.9967H44.6605ZM52.5055 7.7917C52.5055 3.8317 49.5055 0.996703 45.0955 0.996703C44.8207 0.981568 44.5453 0.981568 44.2705 0.996703C40.3792 1.15911 37.3533 4.44 37.5055 8.3317H41.3155V8.0767C41.3468 7.16152 41.7406 6.29631 42.4102 5.67169C43.0799 5.04709 43.9703 4.71432 44.8855 4.7467H45.1405C45.9812 4.75456 46.7839 5.09817 47.3699 5.70106C47.9559 6.30396 48.2765 7.1161 48.2605 7.9567C48.2605 9.7267 47.5855 10.6717 45.5755 12.0217C43.4852 13.1412 42.2946 15.4272 42.5755 17.7817V18.9967H46.3405V17.9767C46.3405 16.2067 46.9405 15.2917 49.0705 13.9117C51.2473 12.6522 52.5642 10.306 52.5055 7.7917ZM6 52H48L36.75 37L36 36.01L34.5 34L24 47.5L16.5 38.5L6 52ZM43.5415 32.5H45.75H45.8389C49.5787 32.5 52.8845 30.0696 54 26.5V55C54 58.3137 51.3137 61 48 61H6C2.68629 61 0 58.3137 0 55V25C0 21.6863 2.68629 19 6 19H24H36V25.75C36.427 29.5928 39.6751 32.5 43.5415 32.5Z" fill="#F8F9FA"/>
</g>
</svg>
