<svg width="16" height="18" viewBox="0 0 16 18" fill="none" xmlns="http://www.w3.org/2000/svg">
<path fill-rule="evenodd" clip-rule="evenodd" d="M8.74387 3.85615C8.96341 4.777 9.61237 5.53609 10.4879 5.89615C12.8041 6.98853 14.1367 9.46415 13.7731 11.9991C13.4094 14.5341 11.4346 16.5352 8.90464 16.9324C6.3747 17.3296 3.88166 16.0298 2.75874 13.7282C1.63581 11.4266 2.14576 8.66172 4.01587 6.91215L5.10387 7.92815L5.61587 8.44015L5.97587 8.08015L6.19987 9.30415L4.96787 9.09615L5.32787 8.73615L4.81587 8.22415C4.0989 8.97076 3.68541 9.95745 3.65587 10.9921H4.38387V10.4081L5.39187 11.1361L4.38387 11.8642V11.2801L3.65587 11.2801C3.72028 12.3046 4.12907 13.2773 4.81587 14.0401L5.31987 13.5201L4.95987 13.1601L6.19187 12.9521L5.97587 14.1841L5.61587 13.8241L5.11187 14.3361C5.85646 15.0513 6.83996 15.4646 7.87187 15.4961V14.7681H7.28787L8.01587 13.7521L8.74387 14.7681H8.15987V15.4961C9.18435 15.4317 10.157 15.023 10.9199 14.3361L10.4079 13.8241L10.0479 14.1841L9.83987 12.9521L11.0639 13.1681L10.7039 13.5281L11.2159 14.0401C11.9328 13.2935 12.3463 12.3068 12.3759 11.2722H11.6479V11.8561L10.6399 11.1281L11.6479 10.4001V10.9841H12.3759C12.3115 9.95967 11.9027 8.98704 11.2159 8.22415L10.7199 8.74415L11.0799 9.10415L9.84787 9.31215L10.0559 8.08015L10.4159 8.44015L10.9279 7.93615C10.4383 7.55265 9.90031 7.23526 9.32787 6.99215C8.65514 6.61928 8.10074 6.06488 7.72787 5.39215C7.48202 4.91676 7.33249 4.39748 7.28787 3.86415L5.83187 4.59215L8.01587 0.952148L10.1999 4.58415C10.1999 4.58415 8.81587 3.92815 8.74387 3.85615ZM8.01587 13.1121C9.12044 13.1121 10.0159 12.2167 10.0159 11.1121C10.0159 10.0076 9.12044 9.11215 8.01587 9.11215C6.9113 9.11215 6.01587 10.0076 6.01587 11.1121C6.01587 12.2167 6.9113 13.1121 8.01587 13.1121Z" fill="#3366CC"/>
</svg>
