<svg width="40" height="40" viewBox="0 0 40 40" fill="none" xmlns="http://www.w3.org/2000/svg">
<path d="M30.1126 20.0006C31.2112 20.0098 40 20.1562 40 22.5C40 29.4 36.9001 40 30.0003 40C23.0985 40 20.0006 29.4 20.0006 22.5C20.0006 20.1562 28.7894 20.0098 29.888 20.0006H30.1126ZM31.2503 35H28.7503V37.5H31.2503V35ZM15.9995 20.0006C16.8595 20.0006 17.6595 20.0426 18.4374 20.1046C18.1695 20.3686 17.9995 20.6646 17.9995 21.0006C17.9995 21.7466 18.0415 22.5346 18.1015 23.3406C18.0375 23.5466 17.9995 23.7646 17.9995 24.0006C17.9995 25.9366 18.5674 28.4826 19.5254 30.9726C20.0694 32.7586 20.7614 34.4726 21.6134 36.0006H0V30.0006C0 26.0006 4.16787 20.0006 15.9995 20.0006ZM30.2303 22.5C29.4623 22.5 28.7663 22.622 28.1464 22.868C27.5224 23.112 26.9944 23.456 26.5544 23.904C26.1124 24.352 25.7784 24.888 25.5484 25.518C25.3184 26.144 25.2024 26.844 25.2024 27.612H27.5924C27.5924 26.662 27.7964 25.904 28.2084 25.338C28.6203 24.774 29.2603 24.49 30.1243 24.49C30.3063 24.49 30.5143 24.534 30.7543 24.616C30.9923 24.702 31.2143 24.834 31.4243 25.014C31.6323 25.196 31.8122 25.438 31.9582 25.738C32.1042 26.038 32.1782 26.396 32.1782 26.814C32.1782 27.166 32.1322 27.464 32.0422 27.716C31.9502 27.968 31.8262 28.196 31.6662 28.396C31.5043 28.6 31.3223 28.786 31.1203 28.954C30.9183 29.122 30.7043 29.3 30.4823 29.498C30.2023 29.734 29.9603 29.976 29.7603 30.218C29.5563 30.464 29.3843 30.746 29.2463 31.068C29.1043 31.39 29.0063 31.764 28.9403 32.19C28.8783 32.616 28.8483 33.134 28.8483 33.75H31.1083C31.1083 33.246 31.1563 32.82 31.2463 32.47C31.3383 32.124 31.4663 31.82 31.6323 31.56C31.8002 31.3 31.9962 31.068 32.2202 30.86C32.4422 30.648 32.6882 30.432 32.9522 30.208C33.1782 30.014 33.4002 29.814 33.6222 29.614C33.8482 29.41 34.0462 29.18 34.2202 28.922C34.3942 28.662 34.5342 28.356 34.6402 27.998C34.7442 27.642 34.7962 27.22 34.7962 26.732C34.7962 26.062 34.6782 25.46 34.4402 24.93C34.2022 24.4 33.8782 23.956 33.4662 23.6C33.0542 23.244 32.5722 22.972 32.0202 22.784C31.4683 22.594 30.8723 22.5 30.2303 22.5ZM16.0001 0C20.97 0 24.9998 4.03 24.9998 9C24.9998 13.97 20.97 18 16.0001 18C11.0303 18 7.00039 13.97 7.00039 9C7.00039 4.03 11.0303 0 16.0001 0Z" fill="#54595D"/>
</svg>
