<svg width="20" height="20" viewBox="0 0 20 20" fill="none" xmlns="http://www.w3.org/2000/svg">
<path fill-rule="evenodd" clip-rule="evenodd" d="M15.6495 4.35051C14.2035 2.90151 12.2105 1.99951 10.0005 1.99951C5.58149 1.99951 2.00049 5.58151 2.00049 9.99951C2.00049 14.4175 5.58149 17.9995 10.0005 17.9995C13.3555 17.9995 16.2135 15.9285 17.4005 12.9995H15.1765C14.1395 14.7885 12.2165 15.9995 10.0005 15.9995C6.68649 15.9995 4.00049 13.3135 4.00049 9.99951C4.00049 6.68651 6.68649 3.99951 10.0005 3.99951C11.6575 3.99951 13.1405 4.68851 14.2245 5.77551L11.0005 8.99951H15.9105H17.9305H18.0005V1.99951L15.6495 4.35051Z" fill="#3366CC"/>
</svg>
