<svg width="100" height="20" viewBox="0 0 100 20" fill="none" xmlns="http://www.w3.org/2000/svg">
<g clip-path="url(#clip0)">
<path fill-rule="evenodd" clip-rule="evenodd" d="M86 8V14H94V8C94 5.79 92.21 4 90 4C87.79 4 86 5.79 86 8ZM96 7V13L98 15V16H82V15L84 13V7C84 6.113 84.793 2.874 88.457 2.149C88.403 1.463 88.468 0 90 0C91.532 0 91.597 1.463 91.543 2.149C95.207 2.874 96 6.113 96 7ZM93 17C93 18.657 91.657 20 90 20C88.343 20 87 18.657 87 17H93Z" fill="#54595D"/>
<path fill-rule="evenodd" clip-rule="evenodd" d="M50 11.1105C56.66 11.1105 59 14.4405 59 16.6705V20.0005H41V16.6705C41 14.4405 43.34 11.1105 50 11.1105ZM43 18.0005H57V16.6705C57 14.9205 54.69 13.1105 50 13.1105C45.31 13.1105 43 14.9205 43 16.6705V18.0005ZM50 10.0005C47.2 10.0005 44.94 7.75949 44.94 5.00049C44.94 2.24049 47.2 0.000488281 50 0.000488281C52.8 0.000488281 55.06 2.24049 55.06 5.00049C55.06 7.75949 52.8 10.0005 50 10.0005ZM50 8.00049C51.7 8.00049 53.06 6.65049 53.06 5.00049C53.06 3.34949 51.7 2.00049 50 2.00049C48.3 2.00049 46.94 3.34949 46.94 5.00049C46.94 6.65049 48.3 8.00049 50 8.00049Z" fill="#54595D"/>
<path fill-rule="evenodd" clip-rule="evenodd" d="M12.05 13.46C10.79 14.43 9.21 15 7.5 15C3.36 15 0 11.64 0 7.5C0 3.36 3.36 0 7.5 0C11.64 0 15 3.36 15 7.5C15 9.21 14.43 10.79 13.46 12.05L19.95 18.54L18.54 19.95L12.05 13.46ZM7.5 13C10.54 13 13 10.54 13 7.5C13 4.46 10.54 2 7.5 2C4.46 2 2 4.46 2 7.5C2 10.54 4.46 13 7.5 13Z" fill="#54595D"/>
</g>
<defs>
<clipPath id="clip0">
<rect width="100" height="20" fill="white"/>
</clipPath>
</defs>
</svg>
