<svg width="20" height="20" viewBox="0 0 20 20" fill="none" xmlns="http://www.w3.org/2000/svg">
<path fill-rule="evenodd" clip-rule="evenodd" d="M10.5 4.99921H17.005C18.107 4.99921 19 5.89521 19 6.99621V13.9992H12V15.9992H17.005C18.107 15.9992 19 16.8872 19 17.9992V19.9992H1V17.9992C1 16.8942 1.893 15.9992 2.995 15.9992H8V13.9992H1V6.99621C1 5.89321 1.893 4.99921 2.995 4.99921H9.5V2.91421C8.81123 2.67069 8.39807 1.96638 8.5216 1.24634C8.64514 0.52631 9.26945 0 10 0C10.7305 0 11.3549 0.52631 11.4784 1.24634C11.6019 1.96638 11.1888 2.67069 10.5 2.91421V4.99921ZM6.5 10.9992C7.32843 10.9992 8 10.3276 8 9.49921C8 8.67078 7.32843 7.99921 6.5 7.99921C5.67157 7.99921 5 8.67078 5 9.49921C5 10.3276 5.67157 10.9992 6.5 10.9992ZM13.5 10.9992C14.3284 10.9992 15 10.3276 15 9.49921C15 8.67078 14.3284 7.99921 13.5 7.99921C12.6716 7.99921 12 8.67078 12 9.49921C12 10.3276 12.6716 10.9992 13.5 10.9992Z" fill="#3366cc"/>
</svg>
