<svg width="40" height="40" viewBox="0 0 40 40" fill="none" xmlns="http://www.w3.org/2000/svg">
<g opacity="0.8">
<rect width="40" height="40" rx="20" fill="white"/>
<path fill-rule="evenodd" clip-rule="evenodd" d="M20.5 14.9992H27.005C28.107 14.9992 29 15.8952 29 16.9962V23.9992H22V25.9992H27.005C28.107 25.9992 29 26.8872 29 27.9992V29.9992H11V27.9992C11 26.8942 11.893 25.9992 12.995 25.9992H18V23.9992H11V16.9962C11 15.8932 11.893 14.9992 12.995 14.9992H19.5V12.9142C18.8112 12.6707 18.3981 11.9664 18.5216 11.2463C18.6451 10.5263 19.2694 10 20 10C20.7305 10 21.3549 10.5263 21.4784 11.2463C21.6019 11.9664 21.1888 12.6707 20.5 12.9142V14.9992ZM16.5 20.9992C17.3284 20.9992 18 20.3276 18 19.4992C18 18.6708 17.3284 17.9992 16.5 17.9992C15.6716 17.9992 15 18.6708 15 19.4992C15 20.3276 15.6716 20.9992 16.5 20.9992ZM23.5 20.9992C24.3284 20.9992 25 20.3276 25 19.4992C25 18.6708 24.3284 17.9992 23.5 17.9992C22.6716 17.9992 22 18.6708 22 19.4992C22 20.3276 22.6716 20.9992 23.5 20.9992Z" fill="#72777D"/>
</g>
</svg>
