<?xml version="1.0" encoding="utf-8"?>
<svg version="1.1" xmlns:xlink="http://www.w3.org/1999/xlink" width="14px" height="16px" xmlns="http://www.w3.org/2000/svg">
  <g transform="matrix(1 0 0 1 0 -28 )">
    <path d="M 7 0.380952380952554  C 7.56820555555555 0.380952380952554  8.05378000000011 0.781950476190624  8.14986666666664 1.33054476190487  C 8.24595333333343 1.87914666666672  7.92459888888887 2.41576380952392  7.3888888888888 2.60130285714305  C 7.3888888888888 2.60130285714305  7.3888888888888 4.18987428571433  7.3888888888888 4.18987428571433  C 7.3888888888888 4.18987428571433  12.4483333333334 4.18987428571433  12.4483333333334 4.18987428571433  C 13.3054444444443 4.18987428571433  14 4.87254095238105  14 5.71139809523811  C 14 5.71139809523811  14 11.0470171428572  14 11.0470171428572  L 8.55555555555547 11.0470171428572  L 8.55555555555547 12.5708266666666  C 8.55555555555547 12.5708266666666  12.4483333333334 12.5708266666666  12.4483333333334 12.5708266666666  C 13.3054444444443 12.5708266666666  14 13.2473980952382  14 14.0946361904763  C 14 14.0946361904763  14 15.6184457142858  14 15.6184457142858  L 0 15.6184457142858  C 0 15.6184457142858  0 14.0946361904763  0 14.0946361904763  C 0 13.2527314285715  0.694555555555667 12.5708266666666  1.55166666666658 12.5708266666666  C 1.55166666666658 12.5708266666666  5.44444444444453 12.5708266666666  5.44444444444453 12.5708266666666  L 5.44444444444453 11.0470171428572  L 0 11.0470171428572  C 0 11.0470171428572  0 5.71139809523811  0 5.71139809523811  C 0 4.87101714285719  0.694555555555667 4.18987428571433  1.55166666666658 4.18987428571433  C 1.55166666666658 4.18987428571433  6.6111111111112 4.18987428571433  6.6111111111112 4.18987428571433  C 6.6111111111112 4.18987428571433  6.6111111111112 2.60130285714305  6.6111111111112 2.60130285714305  C 6.0753987777778 2.41576380952392  5.75405055555545 1.87914666666672  5.85013566666669 1.33054476190487  C 5.94622077777766 0.781950476190624  6.43179133333335 0.380952380952554  7 0.380952380952554  Z M 5.44444444444427 7.61844571428576  C 5.44444444444427 6.98726095238089  4.92210988888883 6.47558857142862  4.2777777777776 6.47558857142862  C 3.63344566666638 6.47558857142862  3.11111111111093 6.98726095238089  3.11111111111093 7.61844571428576  C 3.11111111111093 8.24962819047635  3.63344566666638 8.7613028571429  4.2777777777776 8.7613028571429  C 4.92210988888883 8.7613028571429  5.44444444444427 8.24962819047635  5.44444444444427 7.61844571428576  Z M 9.7222222222224 6.47558857142862  C 9.07788777777785 6.47558857142862  8.55555555555573 6.98726095238089  8.55555555555573 7.61844571428576  C 8.55555555555573 8.24962819047635  9.07788777777785 8.7613028571429  9.7222222222224 8.7613028571429  C 10.366556666667 8.7613028571429  10.8888888888891 8.24962819047635  10.8888888888891 7.61844571428576  C 10.8888888888891 6.98726095238089  10.366556666667 6.47558857142862  9.7222222222224 6.47558857142862  Z " fill-rule="nonzero" fill="#14866d" stroke="none" transform="matrix(1 0 0 1 0 28 )" />
  </g>
</svg>