<?xml version="1.0" encoding="utf-8"?>
<svg version="1.1" xmlns:xlink="http://www.w3.org/1999/xlink" width="28px" height="34px" xmlns="http://www.w3.org/2000/svg">
  <g transform="matrix(1 0 0 1 -314 -86 )">
    <path d="M 27.999970644679 13.9995343056684  C 27.9990494223002 7.6808587350315  23.765943288868 2.14589919659305  17.6682193333771 0.490346568176543  C 11.5704953778862 -1.16520606023996  5.11958464572562 1.4690068499503  1.92346753287087 6.91967572535495  C -1.27264957998388 12.3703446007596  -0.421757705253046 19.2864226874494  4.00024117506596 23.7997624958909  C 4.00024117506596 23.7997624958909  8.00019608666814 27.9998602917005  8.00019608666814 29.9999068611337  C 8.00019608666814 29.9999068611337  8.00019608666814 31.9999534305668  8.00019608666814 31.9999534305668  C 8.00019608666814 33.1045486498162  8.89561649362489 34  10.0001735424692 34  C 10.0001735424692 34  18.0000833656736 34  18.0000833656736 34  C 19.1046404145179 34  20.0000608214747 33.1045486498162  20.0000608214747 31.9999534305668  C 20.0000608214747 31.9999534305668  20.0000608214747 29.9999068611337  20.0000608214747 29.9999068611337  C 20.0000608214747 27.9998602917005  24.0000157330768 23.7997624958909  24.0000157330768 23.7997624958909  C 26.5703777860202 21.186287383305  28.0074894798707 17.6652420600889  27.999970644679 13.9995343056684  Z " fill-rule="nonzero" fill="#ffcc33" stroke="none" transform="matrix(1 0 0 1 314 86 )" />
  </g>
</svg>