<?xml version="1.0" encoding="utf-8"?>
<svg version="1.1" xmlns:xlink="http://www.w3.org/1999/xlink" width="6px" height="1px" xmlns="http://www.w3.org/2000/svg">
  <g transform="matrix(1 0 0 1 -324 -124 )">
    <path d="M 5.99995653954181 0.499999999999994  C 6.00126409529243 0.366690918538874  5.97301927488139 0.238133565468196  5.92170924073205 0.1438545024  C 5.87039920658271 0.049575439331792  5.80043370245553 -0.00232269811890332  5.72788213798741 7.985594526982E-05  C 5.72788213798741 7.985594526982E-05  0 7.985594526982E-05  0 7.985594526982E-05  C 0.00372933024009108 0.339669547982109  0.0342786146279731 0.676464246006726  0.0906914671847996 0.99992014405473  C 0.0906914671847996 0.99992014405473  5.72788213798741 0.99992014405473  5.72788213798741 0.99992014405473  C 5.80043370245553 1.0023226981189  5.87039920658272 0.950424560668208  5.92170924073206 0.8561454976  C 5.9730192748814 0.761866434531791  6.00126409529243 0.633309081461101  5.9999565395418 0.499999999999994  Z " fill-rule="nonzero" fill="#72777d" stroke="none" transform="matrix(1 0 0 1 324 124 )" />
  </g>
</svg>