<?xml version="1.0" encoding="utf-8"?>
<svg version="1.1" xmlns:xlink="http://www.w3.org/1999/xlink" width="47px" height="47px" xmlns="http://www.w3.org/2000/svg">
  <g transform="matrix(1 0 0 1 -281 -66 )">
    <path d="M 46.7460504206948 8.81249999999999  C 46.7460504206948 8.65382605027764  46.6826718382482 8.50172501593759  46.5699999999999 8.38999999999999  C 46.5699999999999 8.38999999999999  39.36 1.175  39.36 1.175  C 39.247418876584 1.0620272888855  39.0944908862792 0.998526858652426  38.9349999999999 0.998526858652426  C 38.7755091137207 0.998526858652426  38.6225811234158 1.0620272888855  38.5099999999999 1.175  C 38.5099999999999 1.175  1.17499999999995 38.5  1.17499999999995 38.5  C 1.06202728888547 38.6125811234159  0.998526858652383 38.7655091137207  0.998526858652383 38.925  C 0.998526858652383 39.0844908862793  1.06202728888547 39.2374188765841  1.17499999999995 39.35  C 1.17499999999995 39.35  8.38999999999993 46.57  8.38999999999993 46.57  C 8.50172501593755 46.6826718382482  8.65382605027759 46.7460504206948  8.81249999999994 46.7460504206948  C 8.9711739497223 46.7460504206948  9.12327498406233 46.6826718382482  9.23499999999996 46.57  C 9.23499999999996 46.57  46.5699999999999 9.23499999999999  46.5699999999999 9.23499999999999  C 46.6826718382482 9.12327498406239  46.7460504206948 8.97117394972234  46.7460504206948 8.81249999999999  Z M 41.055 10.085  C 40.1165007514963 11.0200959912675  38.5984992485036 11.0200959912675  37.66 10.085  C 36.7231023329637 9.14761220402757  36.7233672111835 7.6282444420565  37.6605916593268 6.69118337022684  C 38.5978161074701 5.75412229839719  40.1171838925299 5.75412229839719  41.0544083406732 6.69118337022684  C 41.9916327888166 7.6282444420565  41.9918976670364 9.14761220402757  41.055 10.085  Z " fill-rule="nonzero" fill="#8ea4cf" stroke="none" transform="matrix(1 0 0 1 281 66 )" />
  </g>
</svg>