<svg xmlns="http://www.w3.org/2000/svg" width="103" height="42" viewBox="0 0 103 42">
  <g fill="none" fill-rule="evenodd" transform="translate(3.69 .646)">
    <path fill="#3366CC" fill-rule="nonzero" d="M2.66453526e-15,6.50103471 L12,6.50103471 C13.1045695,6.50103471 14,7.39646521 14,8.50103471 C14,9.60560421 13.1045695,10.5010347 12,10.5010347 L2.66453526e-15,10.5010347 C-1.1045695,10.5010347 -2,9.60560421 -2,8.50103471 C-2,7.39646521 -1.1045695,6.50103471 2.66453526e-15,6.50103471 Z" transform="scale(1 -1) rotate(60 20.724 0)"/>
    <path fill="#3366CC" fill-rule="nonzero" d="M8.66306356,4 L20.6630636,4 C21.7676331,4 22.6630636,4.8954305 22.6630636,6 C22.6630636,7.1045695 21.7676331,8 20.6630636,8 L8.66306356,8 C7.55849406,8 6.66306356,7.1045695 6.66306356,6 C6.66306356,4.8954305 7.55849406,4 8.66306356,4 Z" transform="rotate(-150 14.663 6)"/>
    <path stroke="#3366CC" stroke-linecap="round" stroke-linejoin="round" stroke-width="4" d="M9.30941438,31.3543578 C15.8094144,6.35435783 33.3094144,4.35435783 47.3094144,4.35435783 C56.6427477,4.35435783 72.6427477,4.35435783 95.3094144,4.35435783" transform="matrix(1 0 0 -1 0 35.709)"/>
  </g>
</svg>
