<?xml version="1.0" encoding="utf-8"?>
<svg version="1.1" xmlns:xlink="http://www.w3.org/1999/xlink" width="24px" height="24px" viewBox="16 362  24 24" xmlns="http://www.w3.org/2000/svg">
  <path d="M 16.5 364  A 1.5 1.5 0 0 1 18 362.5 L 38 362.5  A 1.5 1.5 0 0 1 39.5 364 L 39.5 384  A 1.5 1.5 0 0 1 38 385.5 L 18 385.5  A 1.5 1.5 0 0 1 16.5 384 L 16.5 364  Z " fill-rule="nonzero" fill="#ffffff" stroke="none" />
  <path d="M 16.5 364  A 1.5 1.5 0 0 1 18 362.5 L 38 362.5  A 1.5 1.5 0 0 1 39.5 364 L 39.5 384  A 1.5 1.5 0 0 1 38 385.5 L 18 385.5  A 1.5 1.5 0 0 1 16.5 384 L 16.5 364  Z " stroke-width="1" stroke="#a2a9b1" fill="none" />
</svg>