<?xml version="1.0" encoding="utf-8"?>
<svg version="1.1" xmlns:xlink="http://www.w3.org/1999/xlink" width="12px" height="14px" xmlns="http://www.w3.org/2000/svg">
  <g transform="matrix(1 0 0 1 -48 -179 )">
    <path d="M 6 0.333333333333485  C 6.48703333333333 0.333333333333485  6.9032400000001 0.684206666666796  6.98559999999998 1.16422666666676  C 7.06796000000008 1.64425333333338  6.79251333333332 2.11379333333343  6.33333333333326 2.27614000000017  C 6.33333333333326 2.27614000000017  6.33333333333326 3.66614000000004  6.33333333333326 3.66614000000004  C 6.33333333333326 3.66614000000004  10.6700000000001 3.66614000000004  10.6700000000001 3.66614000000004  C 11.4046666666666 3.66614000000004  12 4.26347333333342  12 4.99747333333335  C 12 4.99747333333335  12 9.66614000000004  12 9.66614000000004  L 7.33333333333326 9.66614000000004  L 7.33333333333326 10.9994733333333  C 7.33333333333326 10.9994733333333  10.6700000000001 10.9994733333333  10.6700000000001 10.9994733333333  C 11.4046666666666 10.9994733333333  12 11.5914733333334  12 12.3328066666668  C 12 12.3328066666668  12 13.66614  12 13.66614  L 0 13.66614  C 0 13.66614  0 12.3328066666668  0 12.3328066666668  C 0 11.5961400000001  0.595333333333429 10.9994733333333  1.32999999999993 10.9994733333333  C 1.32999999999993 10.9994733333333  4.66666666666674 10.9994733333333  4.66666666666674 10.9994733333333  L 4.66666666666674 9.66614000000004  L 0 9.66614000000004  C 0 9.66614000000004  0 4.99747333333335  0 4.99747333333335  C 0 4.26214000000004  0.595333333333429 3.66614000000004  1.32999999999993 3.66614000000004  C 1.32999999999993 3.66614000000004  5.66666666666674 3.66614000000004  5.66666666666674 3.66614000000004  C 5.66666666666674 3.66614000000004  5.66666666666674 2.27614000000017  5.66666666666674 2.27614000000017  C 5.20748466666669 2.11379333333343  4.93204333333324 1.64425333333338  5.01440200000002 1.16422666666676  C 5.09676066666657 0.684206666666796  5.51296400000001 0.333333333333485  6 0.333333333333485  Z M 4.66666666666652 6.66614000000004  C 4.66666666666652 6.11385333333328  4.21895133333328 5.66614000000004  3.66666666666652 5.66614000000004  C 3.11438199999975 5.66614000000004  2.66666666666652 6.11385333333328  2.66666666666652 6.66614000000004  C 2.66666666666652 7.21842466666681  3.11438199999975 7.66614000000004  3.66666666666652 7.66614000000004  C 4.21895133333328 7.66614000000004  4.66666666666652 7.21842466666681  4.66666666666652 6.66614000000004  Z M 8.33333333333348 5.66614000000004  C 7.78104666666673 5.66614000000004  7.33333333333348 6.11385333333328  7.33333333333348 6.66614000000004  C 7.33333333333348 7.21842466666681  7.78104666666673 7.66614000000004  8.33333333333348 7.66614000000004  C 8.88562000000024 7.66614000000004  9.33333333333348 7.21842466666681  9.33333333333348 6.66614000000004  C 9.33333333333348 6.11385333333328  8.88562000000024 5.66614000000004  8.33333333333348 5.66614000000004  Z " fill-rule="nonzero" fill="#54595d" stroke="none" transform="matrix(1 0 0 1 48 179 )" />
  </g>
</svg>