<?xml version="1.0" encoding="utf-8"?>
<svg version="1.1" xmlns:xlink="http://www.w3.org/1999/xlink" width="14px" height="14px" xmlns="http://www.w3.org/2000/svg">
  <g transform="matrix(1 0 0 1 -192 -361 )">
    <path d="M 10 14  L 10 0  L 14 0  L 14 14  L 10 14  Z M 5.44444444444444 4.66666666666667  L 9.33333333333333 4.66666666666667  L 9.33333333333333 14  L 5.44444444444444 14  L 5.44444444444444 4.66666666666667  Z M 4.66666666666667 14  L 0 14  L 0 9.33333333333333  L 4.66666666666667 9.33333333333333  L 4.66666666666667 14  Z M 10.8888888888889 13.2222222222222  L 13 13.2222222222222  L 13 0.777777777777778  L 10.8888888888889 0.777777777777778  L 10.8888888888889 13.2222222222222  Z M 8.55555555555556 5.44444444444444  L 6.22222222222222 5.44444444444444  L 6.22222222222222 13.2222222222222  L 8.55555555555556 13.2222222222222  L 8.55555555555556 5.44444444444444  Z " fill-rule="nonzero" fill="#14866d" stroke="none" transform="matrix(1 0 0 1 192 361 )" />
  </g>
</svg>