<svg xmlns="http://www.w3.org/2000/svg" viewBox="0 0 920 20" width="920" height="20"><g opacity=".8"><defs><clipPath id="clip_frame0_path"><path d="M10 7c-.633 0-1.251.201-1.763.573-.513.372-.894.898-1.09 1.5-.196.602-.196 1.252 0 1.854.196.602.577 1.128 1.09 1.5.512.372 1.13.573 1.763.573s1.251-.201 1.763-.573c.513-.372.894-.898 1.09-1.5.196-.602.196-1.252 0-1.854-.196-.602-.577-1.128-1.09-1.5C11.251 7.201 10.633 7 10 7z"/></clipPath></defs><path clip-path="url(#clip_frame0_path)" d="M10 8c.53 0 1.039.211 1.414.586S12 9.47 12 10c0 .53-.211 1.039-.586 1.414S10.53 12 10 12c-.53 0-1.039-.211-1.414-.586S8 10.53 8 10c0-.53.211-1.039.586-1.414S9.47 8 10 8zm3.55-2.84c1.018.746 1.775 1.793 2.163 2.993.388 1.201.388 2.493 0 3.694-.388 1.2-1.145 2.247-2.163 2.993l-1.65-1.32c.837-.463 1.481-1.212 1.814-2.109.333-.897.333-1.885 0-2.782S12.737 6.983 11.9 6.52zm-7.1 0L8.1 6.48c-.837.463-1.481 1.212-1.814 2.109-.333.897-.333 1.885 0 2.782s.977 1.646 1.814 2.109l-1.65 1.36c-1.018-.746-1.775-1.793-2.163-2.993-.388-1.201-.388-2.493 0-3.694.388-1.2 1.145-2.247 2.163-2.993zm10.29-2.55c1.374 1.253 2.372 2.865 2.881 4.653.509 1.789.509 3.685 0 5.474-.509 1.788-1.507 3.4-2.881 4.653l-1.59-1.27c1.193-1.004 2.067-2.336 2.513-3.83.446-1.494.446-3.086 0-4.58-.446-1.494-1.32-2.826-2.513-3.83zm-13.48 0l1.59 1.27C3.657 4.884 2.783 6.216 2.337 7.71c-.446 1.494-.446 3.086 0 4.58.446 1.494 1.32 2.826 2.513 3.83l-1.59 1.27C1.886 16.137.888 14.525.379 12.737c-.509-1.789-.509-3.685 0-5.474.509-1.788 1.507-3.4 2.881-4.653z" fill="#14866d" fill-rule="evenodd"/></g><g opacity=".808962" transform="translate(20)"><defs><clipPath id="clip_frame1_path"><path d="M10 6.686c-.723 0-1.428.24-2.001.679-.532.397-.929.949-1.138 1.578-.21.629-.221 1.308-.034 1.942.187.694.598 1.311 1.172 1.75.573.439 1.278.679 2.001.679.723 0 1.428-.24 2.001-.679.532-.397.929-.949 1.138-1.578.21-.629.221-1.308.034-1.942-.187-.694-.598-1.311-1.172-1.75-.573-.439-1.278-.679-2.001-.679z"/></clipPath></defs><path clip-path="url(#clip_frame1_path)" d="M10 8c.53 0 1.039.211 1.414.586S12 9.47 12 10c0 .53-.211 1.039-.586 1.414S10.53 12 10 12c-.53 0-1.039-.211-1.414-.586S8 10.53 8 10c0-.53.211-1.039.586-1.414S9.47 8 10 8zm3.55-2.84c1.018.746 1.775 1.793 2.163 2.993.388 1.201.388 2.493 0 3.694-.388 1.2-1.145 2.247-2.163 2.993l-1.65-1.32c.837-.463 1.481-1.212 1.814-2.109.333-.897.333-1.885 0-2.782S12.737 6.983 11.9 6.52zm-7.1 0L8.1 6.48c-.837.463-1.481 1.212-1.814 2.109-.333.897-.333 1.885 0 2.782s.977 1.646 1.814 2.109l-1.65 1.36c-1.018-.746-1.775-1.793-2.163-2.993-.388-1.201-.388-2.493 0-3.694.388-1.2 1.145-2.247 2.163-2.993zm10.29-2.55c1.374 1.253 2.372 2.865 2.881 4.653.509 1.789.509 3.685 0 5.474-.509 1.788-1.507 3.4-2.881 4.653l-1.59-1.27c1.193-1.004 2.067-2.336 2.513-3.83.446-1.494.446-3.086 0-4.58-.446-1.494-1.32-2.826-2.513-3.83zm-13.48 0l1.59 1.27C3.657 4.884 2.783 6.216 2.337 7.71c-.446 1.494-.446 3.086 0 4.58.446 1.494 1.32 2.826 2.513 3.83l-1.59 1.27C1.886 16.137.888 14.525.379 12.737c-.509-1.789-.509-3.685 0-5.474.509-1.788 1.507-3.4 2.881-4.653z" fill="#14866d" fill-rule="evenodd"/></g><g opacity=".835847" transform="translate(40)"><defs><clipPath id="clip_frame2_path"><path d="M10 5.745c-.995 0-1.958.354-2.714.996-.589.473-1.033 1.103-1.284 1.812-.25.71-.297 1.476-.136 2.208.161.969.663 1.857 1.42 2.498.756.642 1.719.996 2.714.996.995 0 1.958-.354 2.714-.996.589-.473 1.033-1.103 1.284-1.812.25-.71.297-1.476.136-2.208-.161-.969-.663-1.857-1.42-2.498-.756-.642-1.719-.996-2.714-.996z"/></clipPath></defs><path clip-path="url(#clip_frame2_path)" d="M10 8c.53 0 1.039.211 1.414.586S12 9.47 12 10c0 .53-.211 1.039-.586 1.414S10.53 12 10 12c-.53 0-1.039-.211-1.414-.586S8 10.53 8 10c0-.53.211-1.039.586-1.414S9.47 8 10 8zm3.55-2.84c1.018.746 1.775 1.793 2.163 2.993.388 1.201.388 2.493 0 3.694-.388 1.2-1.145 2.247-2.163 2.993l-1.65-1.32c.837-.463 1.481-1.212 1.814-2.109.333-.897.333-1.885 0-2.782S12.737 6.983 11.9 6.52zm-7.1 0L8.1 6.48c-.837.463-1.481 1.212-1.814 2.109-.333.897-.333 1.885 0 2.782s.977 1.646 1.814 2.109l-1.65 1.36c-1.018-.746-1.775-1.793-2.163-2.993-.388-1.201-.388-2.493 0-3.694.388-1.2 1.145-2.247 2.163-2.993zm10.29-2.55c1.374 1.253 2.372 2.865 2.881 4.653.509 1.789.509 3.685 0 5.474-.509 1.788-1.507 3.4-2.881 4.653l-1.59-1.27c1.193-1.004 2.067-2.336 2.513-3.83.446-1.494.446-3.086 0-4.58-.446-1.494-1.32-2.826-2.513-3.83zm-13.48 0l1.59 1.27C3.657 4.884 2.783 6.216 2.337 7.71c-.446 1.494-.446 3.086 0 4.58.446 1.494 1.32 2.826 2.513 3.83l-1.59 1.27C1.886 16.137.888 14.525.379 12.737c-.509-1.789-.509-3.685 0-5.474.509-1.788 1.507-3.4 2.881-4.653z" fill="#14866d" fill-rule="evenodd"/></g><g opacity=".880655" transform="translate(60)"><defs><clipPath id="clip_frame3_path"><path d="M10 4.177c-1.447 0-2.842.545-3.904 1.523-.684.6-1.206 1.36-1.524 2.204-.318.844-.424 1.755-.307 2.649.117 1.428.769 2.769 1.831 3.747 1.062.978 2.457 1.523 3.904 1.523s2.842-.545 3.904-1.523c.684-.6 1.206-1.36 1.524-2.204.318-.844.424-1.755.307-2.649-.117-1.428-.769-2.769-1.831-3.747-1.062-.978-2.457-1.523-3.904-1.523z"/></clipPath></defs><path clip-path="url(#clip_frame3_path)" d="M10 8c.53 0 1.039.211 1.414.586S12 9.47 12 10c0 .53-.211 1.039-.586 1.414S10.53 12 10 12c-.53 0-1.039-.211-1.414-.586S8 10.53 8 10c0-.53.211-1.039.586-1.414S9.47 8 10 8zm3.55-2.84c1.018.746 1.775 1.793 2.163 2.993.388 1.201.388 2.493 0 3.694-.388 1.2-1.145 2.247-2.163 2.993l-1.65-1.32c.837-.463 1.481-1.212 1.814-2.109.333-.897.333-1.885 0-2.782S12.737 6.983 11.9 6.52zm-7.1 0L8.1 6.48c-.837.463-1.481 1.212-1.814 2.109-.333.897-.333 1.885 0 2.782s.977 1.646 1.814 2.109l-1.65 1.36c-1.018-.746-1.775-1.793-2.163-2.993-.388-1.201-.388-2.493 0-3.694.388-1.2 1.145-2.247 2.163-2.993zm10.29-2.55c1.374 1.253 2.372 2.865 2.881 4.653.509 1.789.509 3.685 0 5.474-.509 1.788-1.507 3.4-2.881 4.653l-1.59-1.27c1.193-1.004 2.067-2.336 2.513-3.83.446-1.494.446-3.086 0-4.58-.446-1.494-1.32-2.826-2.513-3.83zm-13.48 0l1.59 1.27C3.657 4.884 2.783 6.216 2.337 7.71c-.446 1.494-.446 3.086 0 4.58.446 1.494 1.32 2.826 2.513 3.83l-1.59 1.27C1.886 16.137.888 14.525.379 12.737c-.509-1.789-.509-3.685 0-5.474.509-1.788 1.507-3.4 2.881-4.653z" fill="#14866d" fill-rule="evenodd"/></g><g opacity=".943386" transform="translate(80)"><defs><clipPath id="clip_frame4_path"><path d="M10 1.981c-2.08 0-4.079.813-5.568 2.263-.818.777-1.451 1.718-1.863 2.75-.412 1.032-.601 2.148-.546 3.268.056 2.071.919 4.045 2.409 5.494 1.489 1.45 3.488 2.263 5.568 2.263 2.08 0 4.079-.813 5.568-2.263.818-.777 1.451-1.718 1.863-2.75.412-1.032.601-2.148.546-3.268-.056-2.071-.919-4.045-2.409-5.494C14.079 2.794 12.08 1.981 10 1.981z"/></clipPath></defs><path clip-path="url(#clip_frame4_path)" d="M10 8c.53 0 1.039.211 1.414.586S12 9.47 12 10c0 .53-.211 1.039-.586 1.414S10.53 12 10 12c-.53 0-1.039-.211-1.414-.586S8 10.53 8 10c0-.53.211-1.039.586-1.414S9.47 8 10 8zm3.55-2.84c1.018.746 1.775 1.793 2.163 2.993.388 1.201.388 2.493 0 3.694-.388 1.2-1.145 2.247-2.163 2.993l-1.65-1.32c.837-.463 1.481-1.212 1.814-2.109.333-.897.333-1.885 0-2.782S12.737 6.983 11.9 6.52zm-7.1 0L8.1 6.48c-.837.463-1.481 1.212-1.814 2.109-.333.897-.333 1.885 0 2.782s.977 1.646 1.814 2.109l-1.65 1.36c-1.018-.746-1.775-1.793-2.163-2.993-.388-1.201-.388-2.493 0-3.694.388-1.2 1.145-2.247 2.163-2.993zm10.29-2.55c1.374 1.253 2.372 2.865 2.881 4.653.509 1.789.509 3.685 0 5.474-.509 1.788-1.507 3.4-2.881 4.653l-1.59-1.27c1.193-1.004 2.067-2.336 2.513-3.83.446-1.494.446-3.086 0-4.58-.446-1.494-1.32-2.826-2.513-3.83zm-13.48 0l1.59 1.27C3.657 4.884 2.783 6.216 2.337 7.71c-.446 1.494-.446 3.086 0 4.58.446 1.494 1.32 2.826 2.513 3.83l-1.59 1.27C1.886 16.137.888 14.525.379 12.737c-.509-1.789-.509-3.685 0-5.474.509-1.788 1.507-3.4 2.881-4.653z" fill="#14866d" fill-rule="evenodd"/></g><g opacity=".987881" transform="translate(100)"><defs><clipPath id="clip_frame5_path"><path d="M10 .424c-2.529 0-4.957 1.002-6.749 2.786-.912.904-1.623 1.974-2.103 3.139C.669 7.515.421 8.775.433 10.056c.012 2.527 1.025 4.95 2.818 6.734 1.792 1.784 4.22 2.786 6.749 2.786s4.957-1.002 6.749-2.786c.912-.904 1.623-1.974 2.103-3.139.479-1.166.727-2.426.715-3.707-.012-2.527-1.025-4.95-2.818-6.734C14.957 1.426 12.529.424 10 .424z"/></clipPath></defs><path clip-path="url(#clip_frame5_path)" d="M10 8c.53 0 1.039.211 1.414.586S12 9.47 12 10c0 .53-.211 1.039-.586 1.414S10.53 12 10 12c-.53 0-1.039-.211-1.414-.586S8 10.53 8 10c0-.53.211-1.039.586-1.414S9.47 8 10 8zm3.55-2.84c1.018.746 1.775 1.793 2.163 2.993.388 1.201.388 2.493 0 3.694-.388 1.2-1.145 2.247-2.163 2.993l-1.65-1.32c.837-.463 1.481-1.212 1.814-2.109.333-.897.333-1.885 0-2.782S12.737 6.983 11.9 6.52zm-7.1 0L8.1 6.48c-.837.463-1.481 1.212-1.814 2.109-.333.897-.333 1.885 0 2.782s.977 1.646 1.814 2.109l-1.65 1.36c-1.018-.746-1.775-1.793-2.163-2.993-.388-1.201-.388-2.493 0-3.694.388-1.2 1.145-2.247 2.163-2.993zm10.29-2.55c1.374 1.253 2.372 2.865 2.881 4.653.509 1.789.509 3.685 0 5.474-.509 1.788-1.507 3.4-2.881 4.653l-1.59-1.27c1.193-1.004 2.067-2.336 2.513-3.83.446-1.494.446-3.086 0-4.58-.446-1.494-1.32-2.826-2.513-3.83zm-13.48 0l1.59 1.27C3.657 4.884 2.783 6.216 2.337 7.71c-.446 1.494-.446 3.086 0 4.58.446 1.494 1.32 2.826 2.513 3.83l-1.59 1.27C1.886 16.137.888 14.525.379 12.737c-.509-1.789-.509-3.685 0-5.474.509-1.788 1.507-3.4 2.881-4.653z" fill="#14866d" fill-rule="evenodd"/></g><g opacity=".955413" transform="translate(120)"><defs><clipPath id="clip_frame6_path"><path d="M10 1.561c-2.201 0-4.317.863-5.888 2.403-.843.812-1.496 1.788-1.927 2.856-.431 1.068-.635 2.222-.592 3.387.044 2.194.948 4.289 2.519 5.829 1.571 1.54 3.687 2.403 5.888 2.403s4.317-.863 5.888-2.403c.843-.812 1.496-1.788 1.927-2.856.431-1.068.635-2.222.592-3.387-.044-2.194-.948-4.289-2.519-5.829-1.571-1.54-3.687-2.403-5.888-2.403z"/></clipPath></defs><path clip-path="url(#clip_frame6_path)" d="M10 8c.53 0 1.039.211 1.414.586S12 9.47 12 10c0 .53-.211 1.039-.586 1.414S10.53 12 10 12c-.53 0-1.039-.211-1.414-.586S8 10.53 8 10c0-.53.211-1.039.586-1.414S9.47 8 10 8zm3.55-2.84c1.018.746 1.775 1.793 2.163 2.993.388 1.201.388 2.493 0 3.694-.388 1.2-1.145 2.247-2.163 2.993l-1.65-1.32c.837-.463 1.481-1.212 1.814-2.109.333-.897.333-1.885 0-2.782S12.737 6.983 11.9 6.52zm-7.1 0L8.1 6.48c-.837.463-1.481 1.212-1.814 2.109-.333.897-.333 1.885 0 2.782s.977 1.646 1.814 2.109l-1.65 1.36c-1.018-.746-1.775-1.793-2.163-2.993-.388-1.201-.388-2.493 0-3.694.388-1.2 1.145-2.247 2.163-2.993zm10.29-2.55c1.374 1.253 2.372 2.865 2.881 4.653.509 1.789.509 3.685 0 5.474-.509 1.788-1.507 3.4-2.881 4.653l-1.59-1.27c1.193-1.004 2.067-2.336 2.513-3.83.446-1.494.446-3.086 0-4.58-.446-1.494-1.32-2.826-2.513-3.83zm-13.48 0l1.59 1.27C3.657 4.884 2.783 6.216 2.337 7.71c-.446 1.494-.446 3.086 0 4.58.446 1.494 1.32 2.826 2.513 3.83l-1.59 1.27C1.886 16.137.888 14.525.379 12.737c-.509-1.789-.509-3.685 0-5.474.509-1.788 1.507-3.4 2.881-4.653z" fill="#14866d" fill-rule="evenodd"/></g><g opacity=".940869" transform="translate(140)"><defs><clipPath id="clip_frame7_path"><path d="M10 2.07c-2.054 0-4.03.801-5.502 2.232-.812.77-1.44 1.704-1.849 2.729-.408 1.024-.594 2.131-.536 3.243.058 2.045.913 3.993 2.385 5.424C5.97 17.129 7.946 17.93 10 17.93s4.03-.801 5.502-2.232c.812-.77 1.44-1.704 1.849-2.729.408-1.024.594-2.131.536-3.243-.058-2.045-.913-3.993-2.385-5.424C14.03 2.871 12.054 2.07 10 2.07z"/></clipPath></defs><path clip-path="url(#clip_frame7_path)" d="M10 8c.53 0 1.039.211 1.414.586S12 9.47 12 10c0 .53-.211 1.039-.586 1.414S10.53 12 10 12c-.53 0-1.039-.211-1.414-.586S8 10.53 8 10c0-.53.211-1.039.586-1.414S9.47 8 10 8zm3.55-2.84c1.018.746 1.775 1.793 2.163 2.993.388 1.201.388 2.493 0 3.694-.388 1.2-1.145 2.247-2.163 2.993l-1.65-1.32c.837-.463 1.481-1.212 1.814-2.109.333-.897.333-1.885 0-2.782S12.737 6.983 11.9 6.52zm-7.1 0L8.1 6.48c-.837.463-1.481 1.212-1.814 2.109-.333.897-.333 1.885 0 2.782s.977 1.646 1.814 2.109l-1.65 1.36c-1.018-.746-1.775-1.793-2.163-2.993-.388-1.201-.388-2.493 0-3.694.388-1.2 1.145-2.247 2.163-2.993zm10.29-2.55c1.374 1.253 2.372 2.865 2.881 4.653.509 1.789.509 3.685 0 5.474-.509 1.788-1.507 3.4-2.881 4.653l-1.59-1.27c1.193-1.004 2.067-2.336 2.513-3.83.446-1.494.446-3.086 0-4.58-.446-1.494-1.32-2.826-2.513-3.83zm-13.48 0l1.59 1.27C3.657 4.884 2.783 6.216 2.337 7.71c-.446 1.494-.446 3.086 0 4.58.446 1.494 1.32 2.826 2.513 3.83l-1.59 1.27C1.886 16.137.888 14.525.379 12.737c-.509-1.789-.509-3.685 0-5.474.509-1.788 1.507-3.4 2.881-4.653z" fill="#14866d" fill-rule="evenodd"/></g><g opacity=".944249" transform="translate(160)"><defs><clipPath id="clip_frame8_path"><path d="M10 1.951c-2.088 0-4.096.817-5.591 2.273-.82.779-1.454 1.723-1.868 2.758-.413 1.035-.603 2.153-.549 3.276.055 2.08.921 4.062 2.417 5.518 1.495 1.456 3.503 2.273 5.591 2.273s4.096-.817 5.591-2.273c.82-.779 1.454-1.723 1.868-2.758.413-1.035.603-2.153.549-3.276-.055-2.08-.921-4.062-2.417-5.518C14.096 2.768 12.088 1.951 10 1.951z"/></clipPath></defs><path clip-path="url(#clip_frame8_path)" d="M10 8c.53 0 1.039.211 1.414.586S12 9.47 12 10c0 .53-.211 1.039-.586 1.414S10.53 12 10 12c-.53 0-1.039-.211-1.414-.586S8 10.53 8 10c0-.53.211-1.039.586-1.414S9.47 8 10 8zm3.55-2.84c1.018.746 1.775 1.793 2.163 2.993.388 1.201.388 2.493 0 3.694-.388 1.2-1.145 2.247-2.163 2.993l-1.65-1.32c.837-.463 1.481-1.212 1.814-2.109.333-.897.333-1.885 0-2.782S12.737 6.983 11.9 6.52zm-7.1 0L8.1 6.48c-.837.463-1.481 1.212-1.814 2.109-.333.897-.333 1.885 0 2.782s.977 1.646 1.814 2.109l-1.65 1.36c-1.018-.746-1.775-1.793-2.163-2.993-.388-1.201-.388-2.493 0-3.694.388-1.2 1.145-2.247 2.163-2.993zm10.29-2.55c1.374 1.253 2.372 2.865 2.881 4.653.509 1.789.509 3.685 0 5.474-.509 1.788-1.507 3.4-2.881 4.653l-1.59-1.27c1.193-1.004 2.067-2.336 2.513-3.83.446-1.494.446-3.086 0-4.58-.446-1.494-1.32-2.826-2.513-3.83zm-13.48 0l1.59 1.27C3.657 4.884 2.783 6.216 2.337 7.71c-.446 1.494-.446 3.086 0 4.58.446 1.494 1.32 2.826 2.513 3.83l-1.59 1.27C1.886 16.137.888 14.525.379 12.737c-.509-1.789-.509-3.685 0-5.474.509-1.788 1.507-3.4 2.881-4.653z" fill="#14866d" fill-rule="evenodd"/></g><g opacity=".965551" transform="translate(180)"><defs><clipPath id="clip_frame9_path"><path d="M10 1.206c-2.303 0-4.516.907-6.157 2.523-.864.84-1.536 1.845-1.982 2.944-.446 1.099-.664 2.286-.63 3.487.034 2.298.972 4.495 2.612 6.111 1.641 1.616 3.854 2.523 6.157 2.523s4.516-.907 6.157-2.523c.864-.84 1.536-1.845 1.982-2.944.446-1.099.664-2.286.63-3.487-.034-2.298-.972-4.495-2.612-6.111C14.516 2.113 12.303 1.206 10 1.206z"/></clipPath></defs><path clip-path="url(#clip_frame9_path)" d="M10 8c.53 0 1.039.211 1.414.586S12 9.47 12 10c0 .53-.211 1.039-.586 1.414S10.53 12 10 12c-.53 0-1.039-.211-1.414-.586S8 10.53 8 10c0-.53.211-1.039.586-1.414S9.47 8 10 8zm3.55-2.84c1.018.746 1.775 1.793 2.163 2.993.388 1.201.388 2.493 0 3.694-.388 1.2-1.145 2.247-2.163 2.993l-1.65-1.32c.837-.463 1.481-1.212 1.814-2.109.333-.897.333-1.885 0-2.782S12.737 6.983 11.9 6.52zm-7.1 0L8.1 6.48c-.837.463-1.481 1.212-1.814 2.109-.333.897-.333 1.885 0 2.782s.977 1.646 1.814 2.109l-1.65 1.36c-1.018-.746-1.775-1.793-2.163-2.993-.388-1.201-.388-2.493 0-3.694.388-1.2 1.145-2.247 2.163-2.993zm10.29-2.55c1.374 1.253 2.372 2.865 2.881 4.653.509 1.789.509 3.685 0 5.474-.509 1.788-1.507 3.4-2.881 4.653l-1.59-1.27c1.193-1.004 2.067-2.336 2.513-3.83.446-1.494.446-3.086 0-4.58-.446-1.494-1.32-2.826-2.513-3.83zm-13.48 0l1.59 1.27C3.657 4.884 2.783 6.216 2.337 7.71c-.446 1.494-.446 3.086 0 4.58.446 1.494 1.32 2.826 2.513 3.83l-1.59 1.27C1.886 16.137.888 14.525.379 12.737c-.509-1.789-.509-3.685 0-5.474.509-1.788 1.507-3.4 2.881-4.653z" fill="#14866d" fill-rule="evenodd"/></g><g opacity=".997372" transform="translate(200)"><defs><clipPath id="clip_frame10_path"><path d="M10 .092c-2.624 0-5.144 1.043-7.001 2.898-.932.93-1.66 2.027-2.154 3.222-.494 1.194-.754 2.484-.751 3.8.002 2.624 1.048 5.143 2.905 6.998 1.857 1.855 4.377 2.898 7.001 2.898 2.624 0 5.144-1.043 7.001-2.898.932-.93 1.66-2.027 2.154-3.222.494-1.194.754-2.484.751-3.8-.002-2.624-1.048-5.143-2.905-6.998C15.144 1.135 12.624.092 10 .092z"/></clipPath></defs><path clip-path="url(#clip_frame10_path)" d="M10 8c.53 0 1.039.211 1.414.586S12 9.47 12 10c0 .53-.211 1.039-.586 1.414S10.53 12 10 12c-.53 0-1.039-.211-1.414-.586S8 10.53 8 10c0-.53.211-1.039.586-1.414S9.47 8 10 8zm3.55-2.84c1.018.746 1.775 1.793 2.163 2.993.388 1.201.388 2.493 0 3.694-.388 1.2-1.145 2.247-2.163 2.993l-1.65-1.32c.837-.463 1.481-1.212 1.814-2.109.333-.897.333-1.885 0-2.782S12.737 6.983 11.9 6.52zm-7.1 0L8.1 6.48c-.837.463-1.481 1.212-1.814 2.109-.333.897-.333 1.885 0 2.782s.977 1.646 1.814 2.109l-1.65 1.36c-1.018-.746-1.775-1.793-2.163-2.993-.388-1.201-.388-2.493 0-3.694.388-1.2 1.145-2.247 2.163-2.993zm10.29-2.55c1.374 1.253 2.372 2.865 2.881 4.653.509 1.789.509 3.685 0 5.474-.509 1.788-1.507 3.4-2.881 4.653l-1.59-1.27c1.193-1.004 2.067-2.336 2.513-3.83.446-1.494.446-3.086 0-4.58-.446-1.494-1.32-2.826-2.513-3.83zm-13.48 0l1.59 1.27C3.657 4.884 2.783 6.216 2.337 7.71c-.446 1.494-.446 3.086 0 4.58.446 1.494 1.32 2.826 2.513 3.83l-1.59 1.27C1.886 16.137.888 14.525.379 12.737c-.509-1.789-.509-3.685 0-5.474.509-1.788 1.507-3.4 2.881-4.653z" fill="#14866d" fill-rule="evenodd"/></g><g opacity=".981379" transform="translate(220)"><defs><clipPath id="clip_frame11_path"><path d="M10 .652c-2.463 0-4.829.974-6.577 2.709-.898.885-1.597 1.936-2.067 3.082C.886 7.59.647 8.828.665 10.086c.019 2.461 1.01 4.818 2.758 6.553 1.748 1.735 4.114 2.709 6.577 2.709s4.829-.974 6.577-2.709c.898-.885 1.597-1.936 2.067-3.082.47-1.147.709-2.385.691-3.643-.019-2.461-1.01-4.818-2.758-6.553C14.829 1.626 12.463.652 10 .652z"/></clipPath></defs><path clip-path="url(#clip_frame11_path)" d="M10 8c.53 0 1.039.211 1.414.586S12 9.47 12 10c0 .53-.211 1.039-.586 1.414S10.53 12 10 12c-.53 0-1.039-.211-1.414-.586S8 10.53 8 10c0-.53.211-1.039.586-1.414S9.47 8 10 8zm3.55-2.84c1.018.746 1.775 1.793 2.163 2.993.388 1.201.388 2.493 0 3.694-.388 1.2-1.145 2.247-2.163 2.993l-1.65-1.32c.837-.463 1.481-1.212 1.814-2.109.333-.897.333-1.885 0-2.782S12.737 6.983 11.9 6.52zm-7.1 0L8.1 6.48c-.837.463-1.481 1.212-1.814 2.109-.333.897-.333 1.885 0 2.782s.977 1.646 1.814 2.109l-1.65 1.36c-1.018-.746-1.775-1.793-2.163-2.993-.388-1.201-.388-2.493 0-3.694.388-1.2 1.145-2.247 2.163-2.993zm10.29-2.55c1.374 1.253 2.372 2.865 2.881 4.653.509 1.789.509 3.685 0 5.474-.509 1.788-1.507 3.4-2.881 4.653l-1.59-1.27c1.193-1.004 2.067-2.336 2.513-3.83.446-1.494.446-3.086 0-4.58-.446-1.494-1.32-2.826-2.513-3.83zm-13.48 0l1.59 1.27C3.657 4.884 2.783 6.216 2.337 7.71c-.446 1.494-.446 3.086 0 4.58.446 1.494 1.32 2.826 2.513 3.83l-1.59 1.27C1.886 16.137.888 14.525.379 12.737c-.509-1.789-.509-3.685 0-5.474.509-1.788 1.507-3.4 2.881-4.653z" fill="#14866d" fill-rule="evenodd"/></g><g opacity=".983309" transform="translate(240)"><defs><clipPath id="clip_frame12_path"><path d="M10 .584c-2.483 0-4.867.983-6.628 2.733-.902.89-1.605 1.947-2.078 3.098C.822 7.567.58 8.812.596 10.077c.017 2.48 1.015 4.857 2.776 6.606 1.761 1.75 4.145 2.733 6.628 2.733 2.483 0 4.867-.983 6.628-2.733.902-.89 1.605-1.947 2.078-3.098.472-1.152.714-2.397.698-3.662-.017-2.48-1.015-4.857-2.776-6.606C14.867 1.567 12.483.584 10 .584z"/></clipPath></defs><path clip-path="url(#clip_frame12_path)" d="M10 8c.53 0 1.039.211 1.414.586S12 9.47 12 10c0 .53-.211 1.039-.586 1.414S10.53 12 10 12c-.53 0-1.039-.211-1.414-.586S8 10.53 8 10c0-.53.211-1.039.586-1.414S9.47 8 10 8zm3.55-2.84c1.018.746 1.775 1.793 2.163 2.993.388 1.201.388 2.493 0 3.694-.388 1.2-1.145 2.247-2.163 2.993l-1.65-1.32c.837-.463 1.481-1.212 1.814-2.109.333-.897.333-1.885 0-2.782S12.737 6.983 11.9 6.52zm-7.1 0L8.1 6.48c-.837.463-1.481 1.212-1.814 2.109-.333.897-.333 1.885 0 2.782s.977 1.646 1.814 2.109l-1.65 1.36c-1.018-.746-1.775-1.793-2.163-2.993-.388-1.201-.388-2.493 0-3.694.388-1.2 1.145-2.247 2.163-2.993zm10.29-2.55c1.374 1.253 2.372 2.865 2.881 4.653.509 1.789.509 3.685 0 5.474-.509 1.788-1.507 3.4-2.881 4.653l-1.59-1.27c1.193-1.004 2.067-2.336 2.513-3.83.446-1.494.446-3.086 0-4.58-.446-1.494-1.32-2.826-2.513-3.83zm-13.48 0l1.59 1.27C3.657 4.884 2.783 6.216 2.337 7.71c-.446 1.494-.446 3.086 0 4.58.446 1.494 1.32 2.826 2.513 3.83l-1.59 1.27C1.886 16.137.888 14.525.379 12.737c-.509-1.789-.509-3.685 0-5.474.509-1.788 1.507-3.4 2.881-4.653z" fill="#14866d" fill-rule="evenodd"/></g><g opacity=".99797" transform="translate(260)"><defs><clipPath id="clip_frame13_path"><path d="M10 .071c-2.631 0-5.156 1.045-7.017 2.905-.933.932-1.662 2.031-2.157 3.227C.331 7.399.071 8.691.073 10.009c.002 2.631 1.049 5.155 2.91 7.015 1.861 1.86 4.386 2.905 7.017 2.905 2.631 0 5.156-1.045 7.017-2.905.933-.932 1.662-2.031 2.157-3.227.495-1.196.755-2.488.753-3.806-.002-2.631-1.049-5.155-2.91-7.015C15.156 1.116 12.631.071 10 .071z"/></clipPath></defs><path clip-path="url(#clip_frame13_path)" d="M10 8c.53 0 1.039.211 1.414.586S12 9.47 12 10c0 .53-.211 1.039-.586 1.414S10.53 12 10 12c-.53 0-1.039-.211-1.414-.586S8 10.53 8 10c0-.53.211-1.039.586-1.414S9.47 8 10 8zm3.55-2.84c1.018.746 1.775 1.793 2.163 2.993.388 1.201.388 2.493 0 3.694-.388 1.2-1.145 2.247-2.163 2.993l-1.65-1.32c.837-.463 1.481-1.212 1.814-2.109.333-.897.333-1.885 0-2.782S12.737 6.983 11.9 6.52zm-7.1 0L8.1 6.48c-.837.463-1.481 1.212-1.814 2.109-.333.897-.333 1.885 0 2.782s.977 1.646 1.814 2.109l-1.65 1.36c-1.018-.746-1.775-1.793-2.163-2.993-.388-1.201-.388-2.493 0-3.694.388-1.2 1.145-2.247 2.163-2.993zm10.29-2.55c1.374 1.253 2.372 2.865 2.881 4.653.509 1.789.509 3.685 0 5.474-.509 1.788-1.507 3.4-2.881 4.653l-1.59-1.27c1.193-1.004 2.067-2.336 2.513-3.83.446-1.494.446-3.086 0-4.58-.446-1.494-1.32-2.826-2.513-3.83zm-13.48 0l1.59 1.27C3.657 4.884 2.783 6.216 2.337 7.71c-.446 1.494-.446 3.086 0 4.58.446 1.494 1.32 2.826 2.513 3.83l-1.59 1.27C1.886 16.137.888 14.525.379 12.737c-.509-1.789-.509-3.685 0-5.474.509-1.788 1.507-3.4 2.881-4.653z" fill="#14866d" fill-rule="evenodd"/></g><g opacity=".990029" transform="translate(280)"><defs><clipPath id="clip_frame14_path"><path d="M10 .349c-2.55 0-4.999 1.011-6.806 2.812-.917.909-1.631 1.985-2.114 3.157C.597 7.49.347 8.757.356 10.046c.01 2.549 1.031 4.993 2.838 6.793C5.001 18.64 7.45 19.651 10 19.651s4.999-1.011 6.806-2.812c.917-.909 1.631-1.985 2.114-3.157.483-1.172.733-2.439.724-3.728-.01-2.549-1.031-4.993-2.838-6.793C14.999 1.36 12.55.349 10 .349z"/></clipPath></defs><path clip-path="url(#clip_frame14_path)" d="M10 8c.53 0 1.039.211 1.414.586S12 9.47 12 10c0 .53-.211 1.039-.586 1.414S10.53 12 10 12c-.53 0-1.039-.211-1.414-.586S8 10.53 8 10c0-.53.211-1.039.586-1.414S9.47 8 10 8zm3.55-2.84c1.018.746 1.775 1.793 2.163 2.993.388 1.201.388 2.493 0 3.694-.388 1.2-1.145 2.247-2.163 2.993l-1.65-1.32c.837-.463 1.481-1.212 1.814-2.109.333-.897.333-1.885 0-2.782S12.737 6.983 11.9 6.52zm-7.1 0L8.1 6.48c-.837.463-1.481 1.212-1.814 2.109-.333.897-.333 1.885 0 2.782s.977 1.646 1.814 2.109l-1.65 1.36c-1.018-.746-1.775-1.793-2.163-2.993-.388-1.201-.388-2.493 0-3.694.388-1.2 1.145-2.247 2.163-2.993zm10.29-2.55c1.374 1.253 2.372 2.865 2.881 4.653.509 1.789.509 3.685 0 5.474-.509 1.788-1.507 3.4-2.881 4.653l-1.59-1.27c1.193-1.004 2.067-2.336 2.513-3.83.446-1.494.446-3.086 0-4.58-.446-1.494-1.32-2.826-2.513-3.83zm-13.48 0l1.59 1.27C3.657 4.884 2.783 6.216 2.337 7.71c-.446 1.494-.446 3.086 0 4.58.446 1.494 1.32 2.826 2.513 3.83l-1.59 1.27C1.886 16.137.888 14.525.379 12.737c-.509-1.789-.509-3.685 0-5.474.509-1.788 1.507-3.4 2.881-4.653z" fill="#14866d" fill-rule="evenodd"/></g><g transform="translate(300)"><defs><clipPath id="clip_frame15_path"><path d="M10 0C7.349 0 4.804 1.054 2.929 2.929c-.937.937-1.67 2.042-2.168 3.244C.264 7.375 0 8.675 0 10c0 2.651 1.054 5.196 2.929 7.071C4.804 18.946 7.349 20 10 20s5.196-1.054 7.071-2.929c.938-.937 1.67-2.043 2.168-3.245.497-1.202.761-2.501.761-3.826 0-2.651-1.054-5.196-2.929-7.071C15.196 1.054 12.651 0 10 0z"/></clipPath></defs><path clip-path="url(#clip_frame15_path)" d="M10 8c.53 0 1.039.211 1.414.586S12 9.47 12 10c0 .53-.211 1.039-.586 1.414S10.53 12 10 12c-.53 0-1.039-.211-1.414-.586S8 10.53 8 10c0-.53.211-1.039.586-1.414S9.47 8 10 8zm3.55-2.84c1.018.746 1.775 1.793 2.163 2.993.388 1.201.388 2.493 0 3.694-.388 1.2-1.145 2.247-2.163 2.993l-1.65-1.32c.837-.463 1.481-1.212 1.814-2.109.333-.897.333-1.885 0-2.782S12.737 6.983 11.9 6.52zm-7.1 0L8.1 6.48c-.837.463-1.481 1.212-1.814 2.109-.333.897-.333 1.885 0 2.782s.977 1.646 1.814 2.109l-1.65 1.36c-1.018-.746-1.775-1.793-2.163-2.993-.388-1.201-.388-2.493 0-3.694.388-1.2 1.145-2.247 2.163-2.993zm10.29-2.55c1.374 1.253 2.372 2.865 2.881 4.653.509 1.789.509 3.685 0 5.474-.509 1.788-1.507 3.4-2.881 4.653l-1.59-1.27c1.193-1.004 2.067-2.336 2.513-3.83.446-1.494.446-3.086 0-4.58-.446-1.494-1.32-2.826-2.513-3.83zm-13.48 0l1.59 1.27C3.657 4.884 2.783 6.216 2.337 7.71c-.446 1.494-.446 3.086 0 4.58.446 1.494 1.32 2.826 2.513 3.83l-1.59 1.27C1.886 16.137.888 14.525.379 12.737c-.509-1.789-.509-3.685 0-5.474.509-1.788 1.507-3.4 2.881-4.653z" fill="#14866d" fill-rule="evenodd"/></g><g transform="translate(320)"><defs><clipPath id="clip_frame16_path"><path d="M10 0C7.349 0 4.804 1.054 2.929 2.929c-.937.937-1.67 2.042-2.168 3.244C.264 7.375 0 8.675 0 10c0 2.651 1.054 5.196 2.929 7.071C4.804 18.946 7.349 20 10 20s5.196-1.054 7.071-2.929c.938-.937 1.67-2.043 2.168-3.245.497-1.202.761-2.501.761-3.826 0-2.651-1.054-5.196-2.929-7.071C15.196 1.054 12.651 0 10 0z"/></clipPath></defs><path clip-path="url(#clip_frame16_path)" d="M10 8c.53 0 1.039.211 1.414.586S12 9.47 12 10c0 .53-.211 1.039-.586 1.414S10.53 12 10 12c-.53 0-1.039-.211-1.414-.586S8 10.53 8 10c0-.53.211-1.039.586-1.414S9.47 8 10 8zm3.55-2.84c1.018.746 1.775 1.793 2.163 2.993.388 1.201.388 2.493 0 3.694-.388 1.2-1.145 2.247-2.163 2.993l-1.65-1.32c.837-.463 1.481-1.212 1.814-2.109.333-.897.333-1.885 0-2.782S12.737 6.983 11.9 6.52zm-7.1 0L8.1 6.48c-.837.463-1.481 1.212-1.814 2.109-.333.897-.333 1.885 0 2.782s.977 1.646 1.814 2.109l-1.65 1.36c-1.018-.746-1.775-1.793-2.163-2.993-.388-1.201-.388-2.493 0-3.694.388-1.2 1.145-2.247 2.163-2.993zm10.29-2.55c1.374 1.253 2.372 2.865 2.881 4.653.509 1.789.509 3.685 0 5.474-.509 1.788-1.507 3.4-2.881 4.653l-1.59-1.27c1.193-1.004 2.067-2.336 2.513-3.83.446-1.494.446-3.086 0-4.58-.446-1.494-1.32-2.826-2.513-3.83zm-13.48 0l1.59 1.27C3.657 4.884 2.783 6.216 2.337 7.71c-.446 1.494-.446 3.086 0 4.58.446 1.494 1.32 2.826 2.513 3.83l-1.59 1.27C1.886 16.137.888 14.525.379 12.737c-.509-1.789-.509-3.685 0-5.474.509-1.788 1.507-3.4 2.881-4.653z" fill="#14866d" fill-rule="evenodd"/></g><g transform="translate(340)"><defs><clipPath id="clip_frame17_path"><path d="M10 0C7.349 0 4.804 1.054 2.929 2.929c-.937.937-1.67 2.042-2.168 3.244C.264 7.375 0 8.675 0 10c0 2.651 1.054 5.196 2.929 7.071C4.804 18.946 7.349 20 10 20s5.196-1.054 7.071-2.929c.938-.937 1.67-2.043 2.168-3.245.497-1.202.761-2.501.761-3.826 0-2.651-1.054-5.196-2.929-7.071C15.196 1.054 12.651 0 10 0z"/></clipPath></defs><path clip-path="url(#clip_frame17_path)" d="M10 8c.53 0 1.039.211 1.414.586S12 9.47 12 10c0 .53-.211 1.039-.586 1.414S10.53 12 10 12c-.53 0-1.039-.211-1.414-.586S8 10.53 8 10c0-.53.211-1.039.586-1.414S9.47 8 10 8zm3.55-2.84c1.018.746 1.775 1.793 2.163 2.993.388 1.201.388 2.493 0 3.694-.388 1.2-1.145 2.247-2.163 2.993l-1.65-1.32c.837-.463 1.481-1.212 1.814-2.109.333-.897.333-1.885 0-2.782S12.737 6.983 11.9 6.52zm-7.1 0L8.1 6.48c-.837.463-1.481 1.212-1.814 2.109-.333.897-.333 1.885 0 2.782s.977 1.646 1.814 2.109l-1.65 1.36c-1.018-.746-1.775-1.793-2.163-2.993-.388-1.201-.388-2.493 0-3.694.388-1.2 1.145-2.247 2.163-2.993zm10.29-2.55c1.374 1.253 2.372 2.865 2.881 4.653.509 1.789.509 3.685 0 5.474-.509 1.788-1.507 3.4-2.881 4.653l-1.59-1.27c1.193-1.004 2.067-2.336 2.513-3.83.446-1.494.446-3.086 0-4.58-.446-1.494-1.32-2.826-2.513-3.83zm-13.48 0l1.59 1.27C3.657 4.884 2.783 6.216 2.337 7.71c-.446 1.494-.446 3.086 0 4.58.446 1.494 1.32 2.826 2.513 3.83l-1.59 1.27C1.886 16.137.888 14.525.379 12.737c-.509-1.789-.509-3.685 0-5.474.509-1.788 1.507-3.4 2.881-4.653z" fill="#14866d" fill-rule="evenodd"/></g><g transform="translate(360)"><defs><clipPath id="clip_frame18_path"><path d="M10 0C7.349 0 4.804 1.054 2.929 2.929c-.937.937-1.67 2.042-2.168 3.244C.264 7.375 0 8.675 0 10c0 2.651 1.054 5.196 2.929 7.071C4.804 18.946 7.349 20 10 20s5.196-1.054 7.071-2.929c.938-.937 1.67-2.043 2.168-3.245.497-1.202.761-2.501.761-3.826 0-2.651-1.054-5.196-2.929-7.071C15.196 1.054 12.651 0 10 0z"/></clipPath></defs><path clip-path="url(#clip_frame18_path)" d="M10 8c.53 0 1.039.211 1.414.586S12 9.47 12 10c0 .53-.211 1.039-.586 1.414S10.53 12 10 12c-.53 0-1.039-.211-1.414-.586S8 10.53 8 10c0-.53.211-1.039.586-1.414S9.47 8 10 8zm3.55-2.84c1.018.746 1.775 1.793 2.163 2.993.388 1.201.388 2.493 0 3.694-.388 1.2-1.145 2.247-2.163 2.993l-1.65-1.32c.837-.463 1.481-1.212 1.814-2.109.333-.897.333-1.885 0-2.782S12.737 6.983 11.9 6.52zm-7.1 0L8.1 6.48c-.837.463-1.481 1.212-1.814 2.109-.333.897-.333 1.885 0 2.782s.977 1.646 1.814 2.109l-1.65 1.36c-1.018-.746-1.775-1.793-2.163-2.993-.388-1.201-.388-2.493 0-3.694.388-1.2 1.145-2.247 2.163-2.993zm10.29-2.55c1.374 1.253 2.372 2.865 2.881 4.653.509 1.789.509 3.685 0 5.474-.509 1.788-1.507 3.4-2.881 4.653l-1.59-1.27c1.193-1.004 2.067-2.336 2.513-3.83.446-1.494.446-3.086 0-4.58-.446-1.494-1.32-2.826-2.513-3.83zm-13.48 0l1.59 1.27C3.657 4.884 2.783 6.216 2.337 7.71c-.446 1.494-.446 3.086 0 4.58.446 1.494 1.32 2.826 2.513 3.83l-1.59 1.27C1.886 16.137.888 14.525.379 12.737c-.509-1.789-.509-3.685 0-5.474.509-1.788 1.507-3.4 2.881-4.653z" fill="#14866d" fill-rule="evenodd"/></g><g opacity=".985997" transform="translate(380)"><defs><clipPath id="clip_frame19_path"><path d="M10 .49c-2.51 0-4.92.994-6.699 2.764-.908.898-1.616 1.962-2.093 3.122C.732 7.536.487 8.791.5 10.065c.014 2.507 1.021 4.911 2.801 6.681C5.08 18.516 7.49 19.51 10 19.51s4.92-.994 6.699-2.764c.909-.898 1.616-1.963 2.093-3.123.476-1.16.721-2.414.708-3.688-.014-2.507-1.021-4.911-2.801-6.681C14.92 1.484 12.51.49 10 .49z"/></clipPath></defs><path clip-path="url(#clip_frame19_path)" d="M10 8c.53 0 1.039.211 1.414.586S12 9.47 12 10c0 .53-.211 1.039-.586 1.414S10.53 12 10 12c-.53 0-1.039-.211-1.414-.586S8 10.53 8 10c0-.53.211-1.039.586-1.414S9.47 8 10 8zm3.55-2.84c1.018.746 1.775 1.793 2.163 2.993.388 1.201.388 2.493 0 3.694-.388 1.2-1.145 2.247-2.163 2.993l-1.65-1.32c.837-.463 1.481-1.212 1.814-2.109.333-.897.333-1.885 0-2.782S12.737 6.983 11.9 6.52zm-7.1 0L8.1 6.48c-.837.463-1.481 1.212-1.814 2.109-.333.897-.333 1.885 0 2.782s.977 1.646 1.814 2.109l-1.65 1.36c-1.018-.746-1.775-1.793-2.163-2.993-.388-1.201-.388-2.493 0-3.694.388-1.2 1.145-2.247 2.163-2.993zm10.29-2.55c1.374 1.253 2.372 2.865 2.881 4.653.509 1.789.509 3.685 0 5.474-.509 1.788-1.507 3.4-2.881 4.653l-1.59-1.27c1.193-1.004 2.067-2.336 2.513-3.83.446-1.494.446-3.086 0-4.58-.446-1.494-1.32-2.826-2.513-3.83zm-13.48 0l1.59 1.27C3.657 4.884 2.783 6.216 2.337 7.71c-.446 1.494-.446 3.086 0 4.58.446 1.494 1.32 2.826 2.513 3.83l-1.59 1.27C1.886 16.137.888 14.525.379 12.737c-.509-1.789-.509-3.685 0-5.474.509-1.788 1.507-3.4 2.881-4.653z" fill="#14866d" fill-rule="evenodd"/></g><g opacity=".94399" transform="translate(400)"><defs><clipPath id="clip_frame20_path"><path d="M10 1.96c-2.086 0-4.091.815-5.584 2.27-.819.778-1.453 1.721-1.867 2.755-.412 1.034-.602 2.152-.547 3.275.054 2.077.92 4.056 2.414 5.51 1.493 1.455 3.498 2.27 5.584 2.27 2.086 0 4.091-.815 5.584-2.27.819-.778 1.453-1.722 1.867-2.756.412-1.034.602-2.151.547-3.274-.054-2.077-.92-4.056-2.414-5.51C14.091 2.775 12.086 1.96 10 1.96z"/></clipPath></defs><path clip-path="url(#clip_frame20_path)" d="M10 8c.53 0 1.039.211 1.414.586S12 9.47 12 10c0 .53-.211 1.039-.586 1.414S10.53 12 10 12c-.53 0-1.039-.211-1.414-.586S8 10.53 8 10c0-.53.211-1.039.586-1.414S9.47 8 10 8zm3.55-2.84c1.018.746 1.775 1.793 2.163 2.993.388 1.201.388 2.493 0 3.694-.388 1.2-1.145 2.247-2.163 2.993l-1.65-1.32c.837-.463 1.481-1.212 1.814-2.109.333-.897.333-1.885 0-2.782S12.737 6.983 11.9 6.52zm-7.1 0L8.1 6.48c-.837.463-1.481 1.212-1.814 2.109-.333.897-.333 1.885 0 2.782s.977 1.646 1.814 2.109l-1.65 1.36c-1.018-.746-1.775-1.793-2.163-2.993-.388-1.201-.388-2.493 0-3.694.388-1.2 1.145-2.247 2.163-2.993zm10.29-2.55c1.374 1.253 2.372 2.865 2.881 4.653.509 1.789.509 3.685 0 5.474-.509 1.788-1.507 3.4-2.881 4.653l-1.59-1.27c1.193-1.004 2.067-2.336 2.513-3.83.446-1.494.446-3.086 0-4.58-.446-1.494-1.32-2.826-2.513-3.83zm-13.48 0l1.59 1.27C3.657 4.884 2.783 6.216 2.337 7.71c-.446 1.494-.446 3.086 0 4.58.446 1.494 1.32 2.826 2.513 3.83l-1.59 1.27C1.886 16.137.888 14.525.379 12.737c-.509-1.789-.509-3.685 0-5.474.509-1.788 1.507-3.4 2.881-4.653z" fill="#14866d" fill-rule="evenodd"/></g><g opacity=".873977" transform="translate(420)"><defs><clipPath id="clip_frame21_path"><path d="M10 4.411c-1.379 0-2.71.516-3.726 1.444-.67.581-1.181 1.321-1.489 2.145-.307.824-.405 1.715-.282 2.584.124 1.36.754 2.633 1.771 3.561 1.016.928 2.347 1.444 3.726 1.444s2.71-.516 3.726-1.444c.671-.581 1.181-1.322 1.489-2.146.307-.824.405-1.714.282-2.583-.124-1.36-.754-2.633-1.771-3.561C12.71 4.927 11.379 4.411 10 4.411z"/></clipPath></defs><path clip-path="url(#clip_frame21_path)" d="M10 8c.53 0 1.039.211 1.414.586S12 9.47 12 10c0 .53-.211 1.039-.586 1.414S10.53 12 10 12c-.53 0-1.039-.211-1.414-.586S8 10.53 8 10c0-.53.211-1.039.586-1.414S9.47 8 10 8zm3.55-2.84c1.018.746 1.775 1.793 2.163 2.993.388 1.201.388 2.493 0 3.694-.388 1.2-1.145 2.247-2.163 2.993l-1.65-1.32c.837-.463 1.481-1.212 1.814-2.109.333-.897.333-1.885 0-2.782S12.737 6.983 11.9 6.52zm-7.1 0L8.1 6.48c-.837.463-1.481 1.212-1.814 2.109-.333.897-.333 1.885 0 2.782s.977 1.646 1.814 2.109l-1.65 1.36c-1.018-.746-1.775-1.793-2.163-2.993-.388-1.201-.388-2.493 0-3.694.388-1.2 1.145-2.247 2.163-2.993zm10.29-2.55c1.374 1.253 2.372 2.865 2.881 4.653.509 1.789.509 3.685 0 5.474-.509 1.788-1.507 3.4-2.881 4.653l-1.59-1.27c1.193-1.004 2.067-2.336 2.513-3.83.446-1.494.446-3.086 0-4.58-.446-1.494-1.32-2.826-2.513-3.83zm-13.48 0l1.59 1.27C3.657 4.884 2.783 6.216 2.337 7.71c-.446 1.494-.446 3.086 0 4.58.446 1.494 1.32 2.826 2.513 3.83l-1.59 1.27C1.886 16.137.888 14.525.379 12.737c-.509-1.789-.509-3.685 0-5.474.509-1.788 1.507-3.4 2.881-4.653z" fill="#14866d" fill-rule="evenodd"/></g><g opacity=".812119" transform="translate(440)"><defs><clipPath id="clip_frame22_path"><path d="M10 6.576c-.755 0-1.49.253-2.085.716-.538.406-.941.967-1.155 1.605-.214.639-.23 1.328-.046 1.974.184.726.606 1.374 1.201 1.837.595.463 1.33.716 2.085.716.755 0 1.49-.253 2.085-.716.538-.406.941-.967 1.155-1.605.214-.639.23-1.328.046-1.974-.184-.726-.606-1.374-1.201-1.837-.595-.463-1.33-.716-2.085-.716z"/></clipPath></defs><path clip-path="url(#clip_frame22_path)" d="M10 8c.53 0 1.039.211 1.414.586S12 9.47 12 10c0 .53-.211 1.039-.586 1.414S10.53 12 10 12c-.53 0-1.039-.211-1.414-.586S8 10.53 8 10c0-.53.211-1.039.586-1.414S9.47 8 10 8zm3.55-2.84c1.018.746 1.775 1.793 2.163 2.993.388 1.201.388 2.493 0 3.694-.388 1.2-1.145 2.247-2.163 2.993l-1.65-1.32c.837-.463 1.481-1.212 1.814-2.109.333-.897.333-1.885 0-2.782S12.737 6.983 11.9 6.52zm-7.1 0L8.1 6.48c-.837.463-1.481 1.212-1.814 2.109-.333.897-.333 1.885 0 2.782s.977 1.646 1.814 2.109l-1.65 1.36c-1.018-.746-1.775-1.793-2.163-2.993-.388-1.201-.388-2.493 0-3.694.388-1.2 1.145-2.247 2.163-2.993zm10.29-2.55c1.374 1.253 2.372 2.865 2.881 4.653.509 1.789.509 3.685 0 5.474-.509 1.788-1.507 3.4-2.881 4.653l-1.59-1.27c1.193-1.004 2.067-2.336 2.513-3.83.446-1.494.446-3.086 0-4.58-.446-1.494-1.32-2.826-2.513-3.83zm-13.48 0l1.59 1.27C3.657 4.884 2.783 6.216 2.337 7.71c-.446 1.494-.446 3.086 0 4.58.446 1.494 1.32 2.826 2.513 3.83l-1.59 1.27C1.886 16.137.888 14.525.379 12.737c-.509-1.789-.509-3.685 0-5.474.509-1.788 1.507-3.4 2.881-4.653z" fill="#14866d" fill-rule="evenodd"/></g><g opacity=".849903" transform="translate(460)"><defs><clipPath id="clip_frame23_path"><path d="M10 5.253c-1.137 0-2.235.414-3.087 1.161-.619.513-1.088 1.184-1.359 1.935-.272.752-.337 1.564-.19 2.347.147 1.113.696 2.143 1.549 2.89.852.747 1.95 1.161 3.087 1.161 1.137 0 2.235-.414 3.087-1.161.619-.513 1.088-1.184 1.359-1.936.272-.751.337-1.563.19-2.346-.147-1.113-.696-2.143-1.549-2.89-.852-.747-1.95-1.161-3.087-1.161z"/></clipPath></defs><path clip-path="url(#clip_frame23_path)" d="M10 8c.53 0 1.039.211 1.414.586S12 9.47 12 10c0 .53-.211 1.039-.586 1.414S10.53 12 10 12c-.53 0-1.039-.211-1.414-.586S8 10.53 8 10c0-.53.211-1.039.586-1.414S9.47 8 10 8zm3.55-2.84c1.018.746 1.775 1.793 2.163 2.993.388 1.201.388 2.493 0 3.694-.388 1.2-1.145 2.247-2.163 2.993l-1.65-1.32c.837-.463 1.481-1.212 1.814-2.109.333-.897.333-1.885 0-2.782S12.737 6.983 11.9 6.52zm-7.1 0L8.1 6.48c-.837.463-1.481 1.212-1.814 2.109-.333.897-.333 1.885 0 2.782s.977 1.646 1.814 2.109l-1.65 1.36c-1.018-.746-1.775-1.793-2.163-2.993-.388-1.201-.388-2.493 0-3.694.388-1.2 1.145-2.247 2.163-2.993zm10.29-2.55c1.374 1.253 2.372 2.865 2.881 4.653.509 1.789.509 3.685 0 5.474-.509 1.788-1.507 3.4-2.881 4.653l-1.59-1.27c1.193-1.004 2.067-2.336 2.513-3.83.446-1.494.446-3.086 0-4.58-.446-1.494-1.32-2.826-2.513-3.83zm-13.48 0l1.59 1.27C3.657 4.884 2.783 6.216 2.337 7.71c-.446 1.494-.446 3.086 0 4.58.446 1.494 1.32 2.826 2.513 3.83l-1.59 1.27C1.886 16.137.888 14.525.379 12.737c-.509-1.789-.509-3.685 0-5.474.509-1.788 1.507-3.4 2.881-4.653z" fill="#14866d" fill-rule="evenodd"/></g><g opacity=".859681" transform="translate(480)"><defs><clipPath id="clip_frame24_path"><path d="M10 4.911c-1.235 0-2.428.456-3.347 1.276-.639.541-1.126 1.24-1.412 2.021-.285.781-.364 1.625-.227 2.442.138 1.214.72 2.342 1.639 3.163.919.82 2.112 1.276 3.347 1.276 1.235 0 2.428-.456 3.347-1.276.64-.541 1.126-1.24 1.412-2.021.285-.781.364-1.625.227-2.442-.138-1.214-.72-2.342-1.639-3.163-.919-.82-2.112-1.276-3.347-1.276z"/></clipPath></defs><path clip-path="url(#clip_frame24_path)" d="M10 8c.53 0 1.039.211 1.414.586S12 9.47 12 10c0 .53-.211 1.039-.586 1.414S10.53 12 10 12c-.53 0-1.039-.211-1.414-.586S8 10.53 8 10c0-.53.211-1.039.586-1.414S9.47 8 10 8zm3.55-2.84c1.018.746 1.775 1.793 2.163 2.993.388 1.201.388 2.493 0 3.694-.388 1.2-1.145 2.247-2.163 2.993l-1.65-1.32c.837-.463 1.481-1.212 1.814-2.109.333-.897.333-1.885 0-2.782S12.737 6.983 11.9 6.52zm-7.1 0L8.1 6.48c-.837.463-1.481 1.212-1.814 2.109-.333.897-.333 1.885 0 2.782s.977 1.646 1.814 2.109l-1.65 1.36c-1.018-.746-1.775-1.793-2.163-2.993-.388-1.201-.388-2.493 0-3.694.388-1.2 1.145-2.247 2.163-2.993zm10.29-2.55c1.374 1.253 2.372 2.865 2.881 4.653.509 1.789.509 3.685 0 5.474-.509 1.788-1.507 3.4-2.881 4.653l-1.59-1.27c1.193-1.004 2.067-2.336 2.513-3.83.446-1.494.446-3.086 0-4.58-.446-1.494-1.32-2.826-2.513-3.83zm-13.48 0l1.59 1.27C3.657 4.884 2.783 6.216 2.337 7.71c-.446 1.494-.446 3.086 0 4.58.446 1.494 1.32 2.826 2.513 3.83l-1.59 1.27C1.886 16.137.888 14.525.379 12.737c-.509-1.789-.509-3.685 0-5.474.509-1.788 1.507-3.4 2.881-4.653z" fill="#14866d" fill-rule="evenodd"/></g><g opacity=".841455" transform="translate(500)"><defs><clipPath id="clip_frame25_path"><path d="M10 5.549c-1.051 0-2.069.378-2.863 1.061-.601.49-1.055 1.136-1.314 1.862-.258.726-.313 1.511-.157 2.263.155 1.027.675 1.971 1.471 2.655.794.683 1.812 1.061 2.863 1.061s2.069-.378 2.863-1.061c.601-.49 1.055-1.136 1.314-1.862.258-.726.313-1.511.157-2.263-.155-1.027-.675-1.971-1.471-2.655-.794-.683-1.812-1.061-2.863-1.061z"/></clipPath></defs><path clip-path="url(#clip_frame25_path)" d="M10 8c.53 0 1.039.211 1.414.586S12 9.47 12 10c0 .53-.211 1.039-.586 1.414S10.53 12 10 12c-.53 0-1.039-.211-1.414-.586S8 10.53 8 10c0-.53.211-1.039.586-1.414S9.47 8 10 8zm3.55-2.84c1.018.746 1.775 1.793 2.163 2.993.388 1.201.388 2.493 0 3.694-.388 1.2-1.145 2.247-2.163 2.993l-1.65-1.32c.837-.463 1.481-1.212 1.814-2.109.333-.897.333-1.885 0-2.782S12.737 6.983 11.9 6.52zm-7.1 0L8.1 6.48c-.837.463-1.481 1.212-1.814 2.109-.333.897-.333 1.885 0 2.782s.977 1.646 1.814 2.109l-1.65 1.36c-1.018-.746-1.775-1.793-2.163-2.993-.388-1.201-.388-2.493 0-3.694.388-1.2 1.145-2.247 2.163-2.993zm10.29-2.55c1.374 1.253 2.372 2.865 2.881 4.653.509 1.789.509 3.685 0 5.474-.509 1.788-1.507 3.4-2.881 4.653l-1.59-1.27c1.193-1.004 2.067-2.336 2.513-3.83.446-1.494.446-3.086 0-4.58-.446-1.494-1.32-2.826-2.513-3.83zm-13.48 0l1.59 1.27C3.657 4.884 2.783 6.216 2.337 7.71c-.446 1.494-.446 3.086 0 4.58.446 1.494 1.32 2.826 2.513 3.83l-1.59 1.27C1.886 16.137.888 14.525.379 12.737c-.509-1.789-.509-3.685 0-5.474.509-1.788 1.507-3.4 2.881-4.653z" fill="#14866d" fill-rule="evenodd"/></g><g opacity=".802628" transform="translate(520)"><defs><clipPath id="clip_frame26_path"><path d="M10 6.908c-.66 0-1.303.212-1.833.604-.518.379-.904.913-1.104 1.523-.2.61-.203 1.268-.01 1.88.194.629.583 1.181 1.114 1.573.53.392 1.173.604 1.833.604.66 0 1.303-.212 1.833-.604.518-.379.904-.913 1.104-1.523.2-.61.203-1.268.01-1.88-.194-.629-.583-1.181-1.114-1.573-.53-.392-1.173-.604-1.833-.604z"/></clipPath></defs><path clip-path="url(#clip_frame26_path)" d="M10 8c.53 0 1.039.211 1.414.586S12 9.47 12 10c0 .53-.211 1.039-.586 1.414S10.53 12 10 12c-.53 0-1.039-.211-1.414-.586S8 10.53 8 10c0-.53.211-1.039.586-1.414S9.47 8 10 8zm3.55-2.84c1.018.746 1.775 1.793 2.163 2.993.388 1.201.388 2.493 0 3.694-.388 1.2-1.145 2.247-2.163 2.993l-1.65-1.32c.837-.463 1.481-1.212 1.814-2.109.333-.897.333-1.885 0-2.782S12.737 6.983 11.9 6.52zm-7.1 0L8.1 6.48c-.837.463-1.481 1.212-1.814 2.109-.333.897-.333 1.885 0 2.782s.977 1.646 1.814 2.109l-1.65 1.36c-1.018-.746-1.775-1.793-2.163-2.993-.388-1.201-.388-2.493 0-3.694.388-1.2 1.145-2.247 2.163-2.993zm10.29-2.55c1.374 1.253 2.372 2.865 2.881 4.653.509 1.789.509 3.685 0 5.474-.509 1.788-1.507 3.4-2.881 4.653l-1.59-1.27c1.193-1.004 2.067-2.336 2.513-3.83.446-1.494.446-3.086 0-4.58-.446-1.494-1.32-2.826-2.513-3.83zm-13.48 0l1.59 1.27C3.657 4.884 2.783 6.216 2.337 7.71c-.446 1.494-.446 3.086 0 4.58.446 1.494 1.32 2.826 2.513 3.83l-1.59 1.27C1.886 16.137.888 14.525.379 12.737c-.509-1.789-.509-3.685 0-5.474.509-1.788 1.507-3.4 2.881-4.653z" fill="#14866d" fill-rule="evenodd"/></g><g opacity=".819819" transform="translate(540)"><defs><clipPath id="clip_frame27_path"><path d="M10 6.306c-.833 0-1.642.286-2.289.807-.555.428-.971 1.011-1.197 1.673-.226.661-.252 1.375-.075 2.049.176.805.624 1.531 1.272 2.052.647.521 1.456.807 2.289.807.833 0 1.642-.286 2.289-.807.555-.428.971-1.011 1.197-1.673.226-.661.252-1.375.075-2.049-.176-.805-.624-1.531-1.272-2.052-.647-.521-1.456-.807-2.289-.807z"/></clipPath></defs><path clip-path="url(#clip_frame27_path)" d="M10 8c.53 0 1.039.211 1.414.586S12 9.47 12 10c0 .53-.211 1.039-.586 1.414S10.53 12 10 12c-.53 0-1.039-.211-1.414-.586S8 10.53 8 10c0-.53.211-1.039.586-1.414S9.47 8 10 8zm3.55-2.84c1.018.746 1.775 1.793 2.163 2.993.388 1.201.388 2.493 0 3.694-.388 1.2-1.145 2.247-2.163 2.993l-1.65-1.32c.837-.463 1.481-1.212 1.814-2.109.333-.897.333-1.885 0-2.782S12.737 6.983 11.9 6.52zm-7.1 0L8.1 6.48c-.837.463-1.481 1.212-1.814 2.109-.333.897-.333 1.885 0 2.782s.977 1.646 1.814 2.109l-1.65 1.36c-1.018-.746-1.775-1.793-2.163-2.993-.388-1.201-.388-2.493 0-3.694.388-1.2 1.145-2.247 2.163-2.993zm10.29-2.55c1.374 1.253 2.372 2.865 2.881 4.653.509 1.789.509 3.685 0 5.474-.509 1.788-1.507 3.4-2.881 4.653l-1.59-1.27c1.193-1.004 2.067-2.336 2.513-3.83.446-1.494.446-3.086 0-4.58-.446-1.494-1.32-2.826-2.513-3.83zm-13.48 0l1.59 1.27C3.657 4.884 2.783 6.216 2.337 7.71c-.446 1.494-.446 3.086 0 4.58.446 1.494 1.32 2.826 2.513 3.83l-1.59 1.27C1.886 16.137.888 14.525.379 12.737c-.509-1.789-.509-3.685 0-5.474.509-1.788 1.507-3.4 2.881-4.653z" fill="#14866d" fill-rule="evenodd"/></g><g opacity=".809004" transform="translate(560)"><defs><clipPath id="clip_frame28_path"><path d="M10 6.685c-.724 0-1.429.239-2.002.679-.532.397-.929.949-1.139 1.578-.209.629-.221 1.309-.034 1.943.187.695.599 1.311 1.173 1.751.573.44 1.278.679 2.002.679.724 0 1.429-.239 2.002-.679.532-.397.929-.949 1.139-1.578.209-.629.221-1.309.034-1.943-.187-.695-.599-1.311-1.173-1.751-.573-.44-1.278-.679-2.002-.679z"/></clipPath></defs><path clip-path="url(#clip_frame28_path)" d="M10 8c.53 0 1.039.211 1.414.586S12 9.47 12 10c0 .53-.211 1.039-.586 1.414S10.53 12 10 12c-.53 0-1.039-.211-1.414-.586S8 10.53 8 10c0-.53.211-1.039.586-1.414S9.47 8 10 8zm3.55-2.84c1.018.746 1.775 1.793 2.163 2.993.388 1.201.388 2.493 0 3.694-.388 1.2-1.145 2.247-2.163 2.993l-1.65-1.32c.837-.463 1.481-1.212 1.814-2.109.333-.897.333-1.885 0-2.782S12.737 6.983 11.9 6.52zm-7.1 0L8.1 6.48c-.837.463-1.481 1.212-1.814 2.109-.333.897-.333 1.885 0 2.782s.977 1.646 1.814 2.109l-1.65 1.36c-1.018-.746-1.775-1.793-2.163-2.993-.388-1.201-.388-2.493 0-3.694.388-1.2 1.145-2.247 2.163-2.993zm10.29-2.55c1.374 1.253 2.372 2.865 2.881 4.653.509 1.789.509 3.685 0 5.474-.509 1.788-1.507 3.4-2.881 4.653l-1.59-1.27c1.193-1.004 2.067-2.336 2.513-3.83.446-1.494.446-3.086 0-4.58-.446-1.494-1.32-2.826-2.513-3.83zm-13.48 0l1.59 1.27C3.657 4.884 2.783 6.216 2.337 7.71c-.446 1.494-.446 3.086 0 4.58.446 1.494 1.32 2.826 2.513 3.83l-1.59 1.27C1.886 16.137.888 14.525.379 12.737c-.509-1.789-.509-3.685 0-5.474.509-1.788 1.507-3.4 2.881-4.653z" fill="#14866d" fill-rule="evenodd"/></g><g opacity=".809666" transform="translate(580)"><defs><clipPath id="clip_frame29_path"><path d="M10 6.662c-.731 0-1.442.242-2.02.687-.533.399-.931.953-1.142 1.584-.21.631-.223 1.312-.036 1.949.186.701.6 1.325 1.178 1.769.578.445 1.289.687 2.02.687.731 0 1.442-.242 2.02-.687.533-.399.931-.953 1.142-1.584.21-.631.223-1.312.036-1.949-.186-.701-.6-1.325-1.178-1.769-.578-.445-1.289-.687-2.02-.687z"/></clipPath></defs><path clip-path="url(#clip_frame29_path)" d="M10 8c.53 0 1.039.211 1.414.586S12 9.47 12 10c0 .53-.211 1.039-.586 1.414S10.53 12 10 12c-.53 0-1.039-.211-1.414-.586S8 10.53 8 10c0-.53.211-1.039.586-1.414S9.47 8 10 8zm3.55-2.84c1.018.746 1.775 1.793 2.163 2.993.388 1.201.388 2.493 0 3.694-.388 1.2-1.145 2.247-2.163 2.993l-1.65-1.32c.837-.463 1.481-1.212 1.814-2.109.333-.897.333-1.885 0-2.782S12.737 6.983 11.9 6.52zm-7.1 0L8.1 6.48c-.837.463-1.481 1.212-1.814 2.109-.333.897-.333 1.885 0 2.782s.977 1.646 1.814 2.109l-1.65 1.36c-1.018-.746-1.775-1.793-2.163-2.993-.388-1.201-.388-2.493 0-3.694.388-1.2 1.145-2.247 2.163-2.993zm10.29-2.55c1.374 1.253 2.372 2.865 2.881 4.653.509 1.789.509 3.685 0 5.474-.509 1.788-1.507 3.4-2.881 4.653l-1.59-1.27c1.193-1.004 2.067-2.336 2.513-3.83.446-1.494.446-3.086 0-4.58-.446-1.494-1.32-2.826-2.513-3.83zm-13.48 0l1.59 1.27C3.657 4.884 2.783 6.216 2.337 7.71c-.446 1.494-.446 3.086 0 4.58.446 1.494 1.32 2.826 2.513 3.83l-1.59 1.27C1.886 16.137.888 14.525.379 12.737c-.509-1.789-.509-3.685 0-5.474.509-1.788 1.507-3.4 2.881-4.653z" fill="#14866d" fill-rule="evenodd"/></g><g opacity=".8" transform="translate(600)"><defs><clipPath id="clip_frame30_path"><path d="M10 7c-.633 0-1.251.201-1.763.573-.513.372-.894.898-1.09 1.5-.196.602-.196 1.252 0 1.854.196.602.577 1.128 1.09 1.5.512.372 1.13.573 1.763.573s1.251-.201 1.763-.573c.513-.372.894-.898 1.09-1.5.196-.602.196-1.252 0-1.854-.196-.602-.577-1.128-1.09-1.5C11.251 7.201 10.633 7 10 7z"/></clipPath></defs><path clip-path="url(#clip_frame30_path)" d="M10 8c.53 0 1.039.211 1.414.586S12 9.47 12 10c0 .53-.211 1.039-.586 1.414S10.53 12 10 12c-.53 0-1.039-.211-1.414-.586S8 10.53 8 10c0-.53.211-1.039.586-1.414S9.47 8 10 8zm3.55-2.84c1.018.746 1.775 1.793 2.163 2.993.388 1.201.388 2.493 0 3.694-.388 1.2-1.145 2.247-2.163 2.993l-1.65-1.32c.837-.463 1.481-1.212 1.814-2.109.333-.897.333-1.885 0-2.782S12.737 6.983 11.9 6.52zm-7.1 0L8.1 6.48c-.837.463-1.481 1.212-1.814 2.109-.333.897-.333 1.885 0 2.782s.977 1.646 1.814 2.109l-1.65 1.36c-1.018-.746-1.775-1.793-2.163-2.993-.388-1.201-.388-2.493 0-3.694.388-1.2 1.145-2.247 2.163-2.993zm10.29-2.55c1.374 1.253 2.372 2.865 2.881 4.653.509 1.789.509 3.685 0 5.474-.509 1.788-1.507 3.4-2.881 4.653l-1.59-1.27c1.193-1.004 2.067-2.336 2.513-3.83.446-1.494.446-3.086 0-4.58-.446-1.494-1.32-2.826-2.513-3.83zm-13.48 0l1.59 1.27C3.657 4.884 2.783 6.216 2.337 7.71c-.446 1.494-.446 3.086 0 4.58.446 1.494 1.32 2.826 2.513 3.83l-1.59 1.27C1.886 16.137.888 14.525.379 12.737c-.509-1.789-.509-3.685 0-5.474.509-1.788 1.507-3.4 2.881-4.653z" fill="#14866d" fill-rule="evenodd"/></g><g opacity=".808962" transform="translate(620)"><defs><clipPath id="clip_frame31_path"><path d="M10 6.686c-.723 0-1.428.24-2.001.679-.532.397-.929.949-1.138 1.578-.21.629-.221 1.308-.034 1.942.187.694.598 1.311 1.172 1.75.573.439 1.278.679 2.001.679.723 0 1.428-.24 2.001-.679.532-.397.929-.949 1.138-1.578.21-.629.221-1.308.034-1.942-.187-.694-.598-1.311-1.172-1.75-.573-.439-1.278-.679-2.001-.679z"/></clipPath></defs><path clip-path="url(#clip_frame31_path)" d="M10 8c.53 0 1.039.211 1.414.586S12 9.47 12 10c0 .53-.211 1.039-.586 1.414S10.53 12 10 12c-.53 0-1.039-.211-1.414-.586S8 10.53 8 10c0-.53.211-1.039.586-1.414S9.47 8 10 8zm3.55-2.84c1.018.746 1.775 1.793 2.163 2.993.388 1.201.388 2.493 0 3.694-.388 1.2-1.145 2.247-2.163 2.993l-1.65-1.32c.837-.463 1.481-1.212 1.814-2.109.333-.897.333-1.885 0-2.782S12.737 6.983 11.9 6.52zm-7.1 0L8.1 6.48c-.837.463-1.481 1.212-1.814 2.109-.333.897-.333 1.885 0 2.782s.977 1.646 1.814 2.109l-1.65 1.36c-1.018-.746-1.775-1.793-2.163-2.993-.388-1.201-.388-2.493 0-3.694.388-1.2 1.145-2.247 2.163-2.993zm10.29-2.55c1.374 1.253 2.372 2.865 2.881 4.653.509 1.789.509 3.685 0 5.474-.509 1.788-1.507 3.4-2.881 4.653l-1.59-1.27c1.193-1.004 2.067-2.336 2.513-3.83.446-1.494.446-3.086 0-4.58-.446-1.494-1.32-2.826-2.513-3.83zm-13.48 0l1.59 1.27C3.657 4.884 2.783 6.216 2.337 7.71c-.446 1.494-.446 3.086 0 4.58.446 1.494 1.32 2.826 2.513 3.83l-1.59 1.27C1.886 16.137.888 14.525.379 12.737c-.509-1.789-.509-3.685 0-5.474.509-1.788 1.507-3.4 2.881-4.653z" fill="#14866d" fill-rule="evenodd"/></g><g opacity=".835847" transform="translate(640)"><defs><clipPath id="clip_frame32_path"><path d="M10 5.745c-.995 0-1.958.354-2.714.996-.589.473-1.033 1.103-1.284 1.812-.25.71-.297 1.476-.136 2.208.161.969.663 1.857 1.42 2.498.756.642 1.719.996 2.714.996.995 0 1.958-.354 2.714-.996.59-.473 1.033-1.103 1.284-1.812.25-.71.297-1.476.136-2.208-.161-.969-.663-1.857-1.42-2.498-.756-.642-1.719-.996-2.714-.996z"/></clipPath></defs><path clip-path="url(#clip_frame32_path)" d="M10 8c.53 0 1.039.211 1.414.586S12 9.47 12 10c0 .53-.211 1.039-.586 1.414S10.53 12 10 12c-.53 0-1.039-.211-1.414-.586S8 10.53 8 10c0-.53.211-1.039.586-1.414S9.47 8 10 8zm3.55-2.84c1.018.746 1.775 1.793 2.163 2.993.388 1.201.388 2.493 0 3.694-.388 1.2-1.145 2.247-2.163 2.993l-1.65-1.32c.837-.463 1.481-1.212 1.814-2.109.333-.897.333-1.885 0-2.782S12.737 6.983 11.9 6.52zm-7.1 0L8.1 6.48c-.837.463-1.481 1.212-1.814 2.109-.333.897-.333 1.885 0 2.782s.977 1.646 1.814 2.109l-1.65 1.36c-1.018-.746-1.775-1.793-2.163-2.993-.388-1.201-.388-2.493 0-3.694.388-1.2 1.145-2.247 2.163-2.993zm10.29-2.55c1.374 1.253 2.372 2.865 2.881 4.653.509 1.789.509 3.685 0 5.474-.509 1.788-1.507 3.4-2.881 4.653l-1.59-1.27c1.193-1.004 2.067-2.336 2.513-3.83.446-1.494.446-3.086 0-4.58-.446-1.494-1.32-2.826-2.513-3.83zm-13.48 0l1.59 1.27C3.657 4.884 2.783 6.216 2.337 7.71c-.446 1.494-.446 3.086 0 4.58.446 1.494 1.32 2.826 2.513 3.83l-1.59 1.27C1.886 16.137.888 14.525.379 12.737c-.509-1.789-.509-3.685 0-5.474.509-1.788 1.507-3.4 2.881-4.653z" fill="#14866d" fill-rule="evenodd"/></g><g opacity=".880655" transform="translate(660)"><defs><clipPath id="clip_frame33_path"><path d="M10 4.177c-1.447 0-2.842.545-3.904 1.523-.684.6-1.207 1.36-1.524 2.204-.318.843-.424 1.756-.307 2.649.117 1.428.769 2.769 1.831 3.747 1.062.978 2.457 1.523 3.904 1.523s2.842-.545 3.904-1.523c.684-.6 1.207-1.36 1.524-2.204.318-.844.424-1.756.307-2.649-.117-1.428-.769-2.769-1.831-3.747-1.062-.978-2.457-1.523-3.904-1.523z"/></clipPath></defs><path clip-path="url(#clip_frame33_path)" d="M10 8c.53 0 1.039.211 1.414.586S12 9.47 12 10c0 .53-.211 1.039-.586 1.414S10.53 12 10 12c-.53 0-1.039-.211-1.414-.586S8 10.53 8 10c0-.53.211-1.039.586-1.414S9.47 8 10 8zm3.55-2.84c1.018.746 1.775 1.793 2.163 2.993.388 1.201.388 2.493 0 3.694-.388 1.2-1.145 2.247-2.163 2.993l-1.65-1.32c.837-.463 1.481-1.212 1.814-2.109.333-.897.333-1.885 0-2.782S12.737 6.983 11.9 6.52zm-7.1 0L8.1 6.48c-.837.463-1.481 1.212-1.814 2.109-.333.897-.333 1.885 0 2.782s.977 1.646 1.814 2.109l-1.65 1.36c-1.018-.746-1.775-1.793-2.163-2.993-.388-1.201-.388-2.493 0-3.694.388-1.2 1.145-2.247 2.163-2.993zm10.29-2.55c1.374 1.253 2.372 2.865 2.881 4.653.509 1.789.509 3.685 0 5.474-.509 1.788-1.507 3.4-2.881 4.653l-1.59-1.27c1.193-1.004 2.067-2.336 2.513-3.83.446-1.494.446-3.086 0-4.58-.446-1.494-1.32-2.826-2.513-3.83zm-13.48 0l1.59 1.27C3.657 4.884 2.783 6.216 2.337 7.71c-.446 1.494-.446 3.086 0 4.58.446 1.494 1.32 2.826 2.513 3.83l-1.59 1.27C1.886 16.137.888 14.525.379 12.737c-.509-1.789-.509-3.685 0-5.474.509-1.788 1.507-3.4 2.881-4.653z" fill="#14866d" fill-rule="evenodd"/></g><g opacity=".943386" transform="translate(680)"><defs><clipPath id="clip_frame34_path"><path d="M10 1.981c-2.08 0-4.079.813-5.568 2.263-.817.777-1.451 1.718-1.863 2.75-.412 1.032-.601 2.148-.546 3.268.056 2.071.919 4.045 2.409 5.494 1.489 1.45 3.488 2.263 5.568 2.263 2.08 0 4.079-.813 5.568-2.263.818-.777 1.451-1.718 1.863-2.751.412-1.032.601-2.147.546-3.267-.056-2.071-.919-4.045-2.409-5.494C14.079 2.794 12.08 1.981 10 1.981z"/></clipPath></defs><path clip-path="url(#clip_frame34_path)" d="M10 8c.53 0 1.039.211 1.414.586S12 9.47 12 10c0 .53-.211 1.039-.586 1.414S10.53 12 10 12c-.53 0-1.039-.211-1.414-.586S8 10.53 8 10c0-.53.211-1.039.586-1.414S9.47 8 10 8zm3.55-2.84c1.018.746 1.775 1.793 2.163 2.993.388 1.201.388 2.493 0 3.694-.388 1.2-1.145 2.247-2.163 2.993l-1.65-1.32c.837-.463 1.481-1.212 1.814-2.109.333-.897.333-1.885 0-2.782S12.737 6.983 11.9 6.52zm-7.1 0L8.1 6.48c-.837.463-1.481 1.212-1.814 2.109-.333.897-.333 1.885 0 2.782s.977 1.646 1.814 2.109l-1.65 1.36c-1.018-.746-1.775-1.793-2.163-2.993-.388-1.201-.388-2.493 0-3.694.388-1.2 1.145-2.247 2.163-2.993zm10.29-2.55c1.374 1.253 2.372 2.865 2.881 4.653.509 1.789.509 3.685 0 5.474-.509 1.788-1.507 3.4-2.881 4.653l-1.59-1.27c1.193-1.004 2.067-2.336 2.513-3.83.446-1.494.446-3.086 0-4.58-.446-1.494-1.32-2.826-2.513-3.83zm-13.48 0l1.59 1.27C3.657 4.884 2.783 6.216 2.337 7.71c-.446 1.494-.446 3.086 0 4.58.446 1.494 1.32 2.826 2.513 3.83l-1.59 1.27C1.886 16.137.888 14.525.379 12.737c-.509-1.789-.509-3.685 0-5.474.509-1.788 1.507-3.4 2.881-4.653z" fill="#14866d" fill-rule="evenodd"/></g><g opacity=".987881" transform="translate(700)"><defs><clipPath id="clip_frame35_path"><path d="M10 .424c-2.529 0-4.957 1.002-6.749 2.786-.912.903-1.623 1.973-2.103 3.139C.669 7.514.421 8.775.433 10.056c.012 2.527 1.025 4.95 2.818 6.734 1.792 1.784 4.22 2.786 6.749 2.786s4.957-1.002 6.749-2.786c.913-.903 1.623-1.974 2.103-3.14.479-1.165.727-2.425.715-3.706-.012-2.527-1.025-4.95-2.818-6.734C14.957 1.426 12.529.424 10 .424z"/></clipPath></defs><path clip-path="url(#clip_frame35_path)" d="M10 8c.53 0 1.039.211 1.414.586S12 9.47 12 10c0 .53-.211 1.039-.586 1.414S10.53 12 10 12c-.53 0-1.039-.211-1.414-.586S8 10.53 8 10c0-.53.211-1.039.586-1.414S9.47 8 10 8zm3.55-2.84c1.018.746 1.775 1.793 2.163 2.993.388 1.201.388 2.493 0 3.694-.388 1.2-1.145 2.247-2.163 2.993l-1.65-1.32c.837-.463 1.481-1.212 1.814-2.109.333-.897.333-1.885 0-2.782S12.737 6.983 11.9 6.52zm-7.1 0L8.1 6.48c-.837.463-1.481 1.212-1.814 2.109-.333.897-.333 1.885 0 2.782s.977 1.646 1.814 2.109l-1.65 1.36c-1.018-.746-1.775-1.793-2.163-2.993-.388-1.201-.388-2.493 0-3.694.388-1.2 1.145-2.247 2.163-2.993zm10.29-2.55c1.374 1.253 2.372 2.865 2.881 4.653.509 1.789.509 3.685 0 5.474-.509 1.788-1.507 3.4-2.881 4.653l-1.59-1.27c1.193-1.004 2.067-2.336 2.513-3.83.446-1.494.446-3.086 0-4.58-.446-1.494-1.32-2.826-2.513-3.83zm-13.48 0l1.59 1.27C3.657 4.884 2.783 6.216 2.337 7.71c-.446 1.494-.446 3.086 0 4.58.446 1.494 1.32 2.826 2.513 3.83l-1.59 1.27C1.886 16.137.888 14.525.379 12.737c-.509-1.789-.509-3.685 0-5.474.509-1.788 1.507-3.4 2.881-4.653z" fill="#14866d" fill-rule="evenodd"/></g><g opacity=".955413" transform="translate(720)"><defs><clipPath id="clip_frame36_path"><path d="M10 1.561c-2.201 0-4.317.863-5.888 2.403-.842.811-1.497 1.787-1.927 2.856-.43 1.068-.635 2.223-.592 3.387.044 2.194.948 4.289 2.519 5.829 1.571 1.54 3.687 2.403 5.888 2.403s4.317-.863 5.888-2.403c.843-.811 1.497-1.788 1.927-2.856.43-1.069.635-2.223.592-3.387-.044-2.194-.948-4.289-2.519-5.829-1.571-1.54-3.687-2.403-5.888-2.403z"/></clipPath></defs><path clip-path="url(#clip_frame36_path)" d="M10 8c.53 0 1.039.211 1.414.586S12 9.47 12 10c0 .53-.211 1.039-.586 1.414S10.53 12 10 12c-.53 0-1.039-.211-1.414-.586S8 10.53 8 10c0-.53.211-1.039.586-1.414S9.47 8 10 8zm3.55-2.84c1.018.746 1.775 1.793 2.163 2.993.388 1.201.388 2.493 0 3.694-.388 1.2-1.145 2.247-2.163 2.993l-1.65-1.32c.837-.463 1.481-1.212 1.814-2.109.333-.897.333-1.885 0-2.782S12.737 6.983 11.9 6.52zm-7.1 0L8.1 6.48c-.837.463-1.481 1.212-1.814 2.109-.333.897-.333 1.885 0 2.782s.977 1.646 1.814 2.109l-1.65 1.36c-1.018-.746-1.775-1.793-2.163-2.993-.388-1.201-.388-2.493 0-3.694.388-1.2 1.145-2.247 2.163-2.993zm10.29-2.55c1.374 1.253 2.372 2.865 2.881 4.653.509 1.789.509 3.685 0 5.474-.509 1.788-1.507 3.4-2.881 4.653l-1.59-1.27c1.193-1.004 2.067-2.336 2.513-3.83.446-1.494.446-3.086 0-4.58-.446-1.494-1.32-2.826-2.513-3.83zm-13.48 0l1.59 1.27C3.657 4.884 2.783 6.216 2.337 7.71c-.446 1.494-.446 3.086 0 4.58.446 1.494 1.32 2.826 2.513 3.83l-1.59 1.27C1.886 16.137.888 14.525.379 12.737c-.509-1.789-.509-3.685 0-5.474.509-1.788 1.507-3.4 2.881-4.653z" fill="#14866d" fill-rule="evenodd"/></g><g opacity=".940869" transform="translate(740)"><defs><clipPath id="clip_frame37_path"><path d="M10 2.07c-2.054 0-4.03.801-5.502 2.232-.811.77-1.44 1.704-1.849 2.728-.408 1.025-.594 2.133-.536 3.244.058 2.045.913 3.993 2.385 5.424C5.97 17.129 7.946 17.93 10 17.93s4.03-.801 5.502-2.232c.812-.77 1.44-1.704 1.849-2.729.408-1.025.594-2.132.536-3.243-.058-2.045-.913-3.993-2.385-5.424C14.03 2.871 12.054 2.07 10 2.07z"/></clipPath></defs><path clip-path="url(#clip_frame37_path)" d="M10 8c.53 0 1.039.211 1.414.586S12 9.47 12 10c0 .53-.211 1.039-.586 1.414S10.53 12 10 12c-.53 0-1.039-.211-1.414-.586S8 10.53 8 10c0-.53.211-1.039.586-1.414S9.47 8 10 8zm3.55-2.84c1.018.746 1.775 1.793 2.163 2.993.388 1.201.388 2.493 0 3.694-.388 1.2-1.145 2.247-2.163 2.993l-1.65-1.32c.837-.463 1.481-1.212 1.814-2.109.333-.897.333-1.885 0-2.782S12.737 6.983 11.9 6.52zm-7.1 0L8.1 6.48c-.837.463-1.481 1.212-1.814 2.109-.333.897-.333 1.885 0 2.782s.977 1.646 1.814 2.109l-1.65 1.36c-1.018-.746-1.775-1.793-2.163-2.993-.388-1.201-.388-2.493 0-3.694.388-1.2 1.145-2.247 2.163-2.993zm10.29-2.55c1.374 1.253 2.372 2.865 2.881 4.653.509 1.789.509 3.685 0 5.474-.509 1.788-1.507 3.4-2.881 4.653l-1.59-1.27c1.193-1.004 2.067-2.336 2.513-3.83.446-1.494.446-3.086 0-4.58-.446-1.494-1.32-2.826-2.513-3.83zm-13.48 0l1.59 1.27C3.657 4.884 2.783 6.216 2.337 7.71c-.446 1.494-.446 3.086 0 4.58.446 1.494 1.32 2.826 2.513 3.83l-1.59 1.27C1.886 16.137.888 14.525.379 12.737c-.509-1.789-.509-3.685 0-5.474.509-1.788 1.507-3.4 2.881-4.653z" fill="#14866d" fill-rule="evenodd"/></g><g opacity=".944249" transform="translate(760)"><defs><clipPath id="clip_frame38_path"><path d="M10 1.951c-2.088 0-4.096.817-5.591 2.273-.819.779-1.454 1.723-1.868 2.757-.413 1.035-.603 2.154-.549 3.277.055 2.08.921 4.062 2.417 5.518 1.495 1.456 3.503 2.273 5.591 2.273s4.096-.817 5.591-2.273c.82-.779 1.454-1.723 1.868-2.758.413-1.035.603-2.153.549-3.276-.055-2.08-.921-4.062-2.417-5.518C14.096 2.768 12.088 1.951 10 1.951z"/></clipPath></defs><path clip-path="url(#clip_frame38_path)" d="M10 8c.53 0 1.039.211 1.414.586S12 9.47 12 10c0 .53-.211 1.039-.586 1.414S10.53 12 10 12c-.53 0-1.039-.211-1.414-.586S8 10.53 8 10c0-.53.211-1.039.586-1.414S9.47 8 10 8zm3.55-2.84c1.018.746 1.775 1.793 2.163 2.993.388 1.201.388 2.493 0 3.694-.388 1.2-1.145 2.247-2.163 2.993l-1.65-1.32c.837-.463 1.481-1.212 1.814-2.109.333-.897.333-1.885 0-2.782S12.737 6.983 11.9 6.52zm-7.1 0L8.1 6.48c-.837.463-1.481 1.212-1.814 2.109-.333.897-.333 1.885 0 2.782s.977 1.646 1.814 2.109l-1.65 1.36c-1.018-.746-1.775-1.793-2.163-2.993-.388-1.201-.388-2.493 0-3.694.388-1.2 1.145-2.247 2.163-2.993zm10.29-2.55c1.374 1.253 2.372 2.865 2.881 4.653.509 1.789.509 3.685 0 5.474-.509 1.788-1.507 3.4-2.881 4.653l-1.59-1.27c1.193-1.004 2.067-2.336 2.513-3.83.446-1.494.446-3.086 0-4.58-.446-1.494-1.32-2.826-2.513-3.83zm-13.48 0l1.59 1.27C3.657 4.884 2.783 6.216 2.337 7.71c-.446 1.494-.446 3.086 0 4.58.446 1.494 1.32 2.826 2.513 3.83l-1.59 1.27C1.886 16.137.888 14.525.379 12.737c-.509-1.789-.509-3.685 0-5.474.509-1.788 1.507-3.4 2.881-4.653z" fill="#14866d" fill-rule="evenodd"/></g><g opacity=".965551" transform="translate(780)"><defs><clipPath id="clip_frame39_path"><path d="M10 1.206c-2.303 0-4.516.907-6.157 2.523-.864.84-1.536 1.845-1.982 2.944-.445 1.098-.664 2.286-.63 3.487.034 2.298.972 4.495 2.612 6.111 1.641 1.616 3.854 2.523 6.157 2.523s4.516-.907 6.157-2.523c.865-.84 1.536-1.846 1.982-2.944.445-1.099.664-2.286.63-3.487-.034-2.298-.972-4.495-2.612-6.111C14.516 2.113 12.303 1.206 10 1.206z"/></clipPath></defs><path clip-path="url(#clip_frame39_path)" d="M10 8c.53 0 1.039.211 1.414.586S12 9.47 12 10c0 .53-.211 1.039-.586 1.414S10.53 12 10 12c-.53 0-1.039-.211-1.414-.586S8 10.53 8 10c0-.53.211-1.039.586-1.414S9.47 8 10 8zm3.55-2.84c1.018.746 1.775 1.793 2.163 2.993.388 1.201.388 2.493 0 3.694-.388 1.2-1.145 2.247-2.163 2.993l-1.65-1.32c.837-.463 1.481-1.212 1.814-2.109.333-.897.333-1.885 0-2.782S12.737 6.983 11.9 6.52zm-7.1 0L8.1 6.48c-.837.463-1.481 1.212-1.814 2.109-.333.897-.333 1.885 0 2.782s.977 1.646 1.814 2.109l-1.65 1.36c-1.018-.746-1.775-1.793-2.163-2.993-.388-1.201-.388-2.493 0-3.694.388-1.2 1.145-2.247 2.163-2.993zm10.29-2.55c1.374 1.253 2.372 2.865 2.881 4.653.509 1.789.509 3.685 0 5.474-.509 1.788-1.507 3.4-2.881 4.653l-1.59-1.27c1.193-1.004 2.067-2.336 2.513-3.83.446-1.494.446-3.086 0-4.58-.446-1.494-1.32-2.826-2.513-3.83zm-13.48 0l1.59 1.27C3.657 4.884 2.783 6.216 2.337 7.71c-.446 1.494-.446 3.086 0 4.58.446 1.494 1.32 2.826 2.513 3.83l-1.59 1.27C1.886 16.137.888 14.525.379 12.737c-.509-1.789-.509-3.685 0-5.474.509-1.788 1.507-3.4 2.881-4.653z" fill="#14866d" fill-rule="evenodd"/></g><g opacity=".997372" transform="translate(800)"><defs><clipPath id="clip_frame40_path"><path d="M10 .092c-2.624 0-5.144 1.043-7.001 2.898-.932.93-1.66 2.027-2.154 3.221C.352 7.405.091 8.697.094 10.012c.002 2.624 1.048 5.143 2.905 6.998 1.857 1.855 4.377 2.898 7.001 2.898 2.624 0 5.144-1.043 7.001-2.898.933-.93 1.66-2.028 2.154-3.222.493-1.194.754-2.485.751-3.8-.002-2.624-1.048-5.143-2.905-6.998C15.144 1.135 12.624.092 10 .092z"/></clipPath></defs><path clip-path="url(#clip_frame40_path)" d="M10 8c.53 0 1.039.211 1.414.586S12 9.47 12 10c0 .53-.211 1.039-.586 1.414S10.53 12 10 12c-.53 0-1.039-.211-1.414-.586S8 10.53 8 10c0-.53.211-1.039.586-1.414S9.47 8 10 8zm3.55-2.84c1.018.746 1.775 1.793 2.163 2.993.388 1.201.388 2.493 0 3.694-.388 1.2-1.145 2.247-2.163 2.993l-1.65-1.32c.837-.463 1.481-1.212 1.814-2.109.333-.897.333-1.885 0-2.782S12.737 6.983 11.9 6.52zm-7.1 0L8.1 6.48c-.837.463-1.481 1.212-1.814 2.109-.333.897-.333 1.885 0 2.782s.977 1.646 1.814 2.109l-1.65 1.36c-1.018-.746-1.775-1.793-2.163-2.993-.388-1.201-.388-2.493 0-3.694.388-1.2 1.145-2.247 2.163-2.993zm10.29-2.55c1.374 1.253 2.372 2.865 2.881 4.653.509 1.789.509 3.685 0 5.474-.509 1.788-1.507 3.4-2.881 4.653l-1.59-1.27c1.193-1.004 2.067-2.336 2.513-3.83.446-1.494.446-3.086 0-4.58-.446-1.494-1.32-2.826-2.513-3.83zm-13.48 0l1.59 1.27C3.657 4.884 2.783 6.216 2.337 7.71c-.446 1.494-.446 3.086 0 4.58.446 1.494 1.32 2.826 2.513 3.83l-1.59 1.27C1.886 16.137.888 14.525.379 12.737c-.509-1.789-.509-3.685 0-5.474.509-1.788 1.507-3.4 2.881-4.653z" fill="#14866d" fill-rule="evenodd"/></g><g opacity=".981379" transform="translate(820)"><defs><clipPath id="clip_frame41_path"><path d="M10 .652c-2.463 0-4.829.974-6.577 2.709-.897.885-1.598 1.936-2.067 3.082C.887 7.589.647 8.829.665 10.086c.019 2.461 1.01 4.818 2.758 6.553 1.748 1.735 4.114 2.709 6.577 2.709s4.829-.974 6.577-2.709c.898-.885 1.598-1.937 2.067-3.083.469-1.146.709-2.385.691-3.642-.019-2.461-1.01-4.818-2.758-6.553C14.829 1.626 12.463.652 10 .652z"/></clipPath></defs><path clip-path="url(#clip_frame41_path)" d="M10 8c.53 0 1.039.211 1.414.586S12 9.47 12 10c0 .53-.211 1.039-.586 1.414S10.53 12 10 12c-.53 0-1.039-.211-1.414-.586S8 10.53 8 10c0-.53.211-1.039.586-1.414S9.47 8 10 8zm3.55-2.84c1.018.746 1.775 1.793 2.163 2.993.388 1.201.388 2.493 0 3.694-.388 1.2-1.145 2.247-2.163 2.993l-1.65-1.32c.837-.463 1.481-1.212 1.814-2.109.333-.897.333-1.885 0-2.782S12.737 6.983 11.9 6.52zm-7.1 0L8.1 6.48c-.837.463-1.481 1.212-1.814 2.109-.333.897-.333 1.885 0 2.782s.977 1.646 1.814 2.109l-1.65 1.36c-1.018-.746-1.775-1.793-2.163-2.993-.388-1.201-.388-2.493 0-3.694.388-1.2 1.145-2.247 2.163-2.993zm10.29-2.55c1.374 1.253 2.372 2.865 2.881 4.653.509 1.789.509 3.685 0 5.474-.509 1.788-1.507 3.4-2.881 4.653l-1.59-1.27c1.193-1.004 2.067-2.336 2.513-3.83.446-1.494.446-3.086 0-4.58-.446-1.494-1.32-2.826-2.513-3.83zm-13.48 0l1.59 1.27C3.657 4.884 2.783 6.216 2.337 7.71c-.446 1.494-.446 3.086 0 4.58.446 1.494 1.32 2.826 2.513 3.83l-1.59 1.27C1.886 16.137.888 14.525.379 12.737c-.509-1.789-.509-3.685 0-5.474.509-1.788 1.507-3.4 2.881-4.653z" fill="#14866d" fill-rule="evenodd"/></g><g opacity=".983309" transform="translate(840)"><defs><clipPath id="clip_frame42_path"><path d="M10 .584c-2.483 0-4.867.983-6.628 2.733-.902.889-1.605 1.946-2.078 3.098C.822 7.567.58 8.813.596 10.077c.017 2.48 1.015 4.857 2.776 6.606 1.761 1.75 4.145 2.733 6.628 2.733 2.483 0 4.867-.983 6.628-2.733.903-.889 1.605-1.947 2.078-3.099.472-1.152.714-2.397.698-3.661-.017-2.48-1.015-4.857-2.776-6.606C14.867 1.567 12.483.584 10 .584z"/></clipPath></defs><path clip-path="url(#clip_frame42_path)" d="M10 8c.53 0 1.039.211 1.414.586S12 9.47 12 10c0 .53-.211 1.039-.586 1.414S10.53 12 10 12c-.53 0-1.039-.211-1.414-.586S8 10.53 8 10c0-.53.211-1.039.586-1.414S9.47 8 10 8zm3.55-2.84c1.018.746 1.775 1.793 2.163 2.993.388 1.201.388 2.493 0 3.694-.388 1.2-1.145 2.247-2.163 2.993l-1.65-1.32c.837-.463 1.481-1.212 1.814-2.109.333-.897.333-1.885 0-2.782S12.737 6.983 11.9 6.52zm-7.1 0L8.1 6.48c-.837.463-1.481 1.212-1.814 2.109-.333.897-.333 1.885 0 2.782s.977 1.646 1.814 2.109l-1.65 1.36c-1.018-.746-1.775-1.793-2.163-2.993-.388-1.201-.388-2.493 0-3.694.388-1.2 1.145-2.247 2.163-2.993zm10.29-2.55c1.374 1.253 2.372 2.865 2.881 4.653.509 1.789.509 3.685 0 5.474-.509 1.788-1.507 3.4-2.881 4.653l-1.59-1.27c1.193-1.004 2.067-2.336 2.513-3.83.446-1.494.446-3.086 0-4.58-.446-1.494-1.32-2.826-2.513-3.83zm-13.48 0l1.59 1.27C3.657 4.884 2.783 6.216 2.337 7.71c-.446 1.494-.446 3.086 0 4.58.446 1.494 1.32 2.826 2.513 3.83l-1.59 1.27C1.886 16.137.888 14.525.379 12.737c-.509-1.789-.509-3.685 0-5.474.509-1.788 1.507-3.4 2.881-4.653z" fill="#14866d" fill-rule="evenodd"/></g><g opacity=".99797" transform="translate(860)"><defs><clipPath id="clip_frame43_path"><path d="M10 .071c-2.631 0-5.156 1.045-7.017 2.905-.933.931-1.662 2.031-2.157 3.226-.494 1.196-.755 2.49-.753 3.807.002 2.631 1.049 5.155 2.91 7.015 1.861 1.86 4.386 2.905 7.017 2.905 2.631 0 5.156-1.045 7.017-2.905.934-.931 1.662-2.032 2.157-3.227.494-1.196.755-2.489.753-3.806-.002-2.631-1.049-5.155-2.91-7.015C15.156 1.116 12.631.071 10 .071z"/></clipPath></defs><path clip-path="url(#clip_frame43_path)" d="M10 8c.53 0 1.039.211 1.414.586S12 9.47 12 10c0 .53-.211 1.039-.586 1.414S10.53 12 10 12c-.53 0-1.039-.211-1.414-.586S8 10.53 8 10c0-.53.211-1.039.586-1.414S9.47 8 10 8zm3.55-2.84c1.018.746 1.775 1.793 2.163 2.993.388 1.201.388 2.493 0 3.694-.388 1.2-1.145 2.247-2.163 2.993l-1.65-1.32c.837-.463 1.481-1.212 1.814-2.109.333-.897.333-1.885 0-2.782S12.737 6.983 11.9 6.52zm-7.1 0L8.1 6.48c-.837.463-1.481 1.212-1.814 2.109-.333.897-.333 1.885 0 2.782s.977 1.646 1.814 2.109l-1.65 1.36c-1.018-.746-1.775-1.793-2.163-2.993-.388-1.201-.388-2.493 0-3.694.388-1.2 1.145-2.247 2.163-2.993zm10.29-2.55c1.374 1.253 2.372 2.865 2.881 4.653.509 1.789.509 3.685 0 5.474-.509 1.788-1.507 3.4-2.881 4.653l-1.59-1.27c1.193-1.004 2.067-2.336 2.513-3.83.446-1.494.446-3.086 0-4.58-.446-1.494-1.32-2.826-2.513-3.83zm-13.48 0l1.59 1.27C3.657 4.884 2.783 6.216 2.337 7.71c-.446 1.494-.446 3.086 0 4.58.446 1.494 1.32 2.826 2.513 3.83l-1.59 1.27C1.886 16.137.888 14.525.379 12.737c-.509-1.789-.509-3.685 0-5.474.509-1.788 1.507-3.4 2.881-4.653z" fill="#14866d" fill-rule="evenodd"/></g><g opacity=".990029" transform="translate(880)"><defs><clipPath id="clip_frame44_path"><path d="M10 .349c-2.55 0-4.999 1.011-6.806 2.812-.916.908-1.632 1.984-2.115 3.157C.597 7.49.347 8.757.356 10.046c.01 2.549 1.031 4.993 2.838 6.793C5.001 18.64 7.45 19.651 10 19.651s4.999-1.011 6.806-2.812c.917-.908 1.632-1.985 2.115-3.158.482-1.172.732-2.438.723-3.727-.01-2.549-1.031-4.993-2.838-6.793C14.999 1.36 12.55.349 10 .349z"/></clipPath></defs><path clip-path="url(#clip_frame44_path)" d="M10 8c.53 0 1.039.211 1.414.586S12 9.47 12 10c0 .53-.211 1.039-.586 1.414S10.53 12 10 12c-.53 0-1.039-.211-1.414-.586S8 10.53 8 10c0-.53.211-1.039.586-1.414S9.47 8 10 8zm3.55-2.84c1.018.746 1.775 1.793 2.163 2.993.388 1.201.388 2.493 0 3.694-.388 1.2-1.145 2.247-2.163 2.993l-1.65-1.32c.837-.463 1.481-1.212 1.814-2.109.333-.897.333-1.885 0-2.782S12.737 6.983 11.9 6.52zm-7.1 0L8.1 6.48c-.837.463-1.481 1.212-1.814 2.109-.333.897-.333 1.885 0 2.782s.977 1.646 1.814 2.109l-1.65 1.36c-1.018-.746-1.775-1.793-2.163-2.993-.388-1.201-.388-2.493 0-3.694.388-1.2 1.145-2.247 2.163-2.993zm10.29-2.55c1.374 1.253 2.372 2.865 2.881 4.653.509 1.789.509 3.685 0 5.474-.509 1.788-1.507 3.4-2.881 4.653l-1.59-1.27c1.193-1.004 2.067-2.336 2.513-3.83.446-1.494.446-3.086 0-4.58-.446-1.494-1.32-2.826-2.513-3.83zm-13.48 0l1.59 1.27C3.657 4.884 2.783 6.216 2.337 7.71c-.446 1.494-.446 3.086 0 4.58.446 1.494 1.32 2.826 2.513 3.83l-1.59 1.27C1.886 16.137.888 14.525.379 12.737c-.509-1.789-.509-3.685 0-5.474.509-1.788 1.507-3.4 2.881-4.653z" fill="#14866d" fill-rule="evenodd"/></g><g transform="translate(900)"><defs><clipPath id="clip_frame45_path"><path d="M10 0C7.349 0 4.804 1.054 2.929 2.929c-.937.937-1.67 2.042-2.168 3.244C.264 7.375 0 8.675 0 10c0 2.651 1.054 5.196 2.929 7.071C4.804 18.946 7.349 20 10 20s5.196-1.054 7.071-2.929c.938-.937 1.67-2.043 2.168-3.245.497-1.202.761-2.501.761-3.826 0-2.651-1.054-5.196-2.929-7.071C15.196 1.054 12.651 0 10 0z"/></clipPath></defs><path clip-path="url(#clip_frame45_path)" d="M10 8c.53 0 1.039.211 1.414.586S12 9.47 12 10c0 .53-.211 1.039-.586 1.414S10.53 12 10 12c-.53 0-1.039-.211-1.414-.586S8 10.53 8 10c0-.53.211-1.039.586-1.414S9.47 8 10 8zm3.55-2.84c1.018.746 1.775 1.793 2.163 2.993.388 1.201.388 2.493 0 3.694-.388 1.2-1.145 2.247-2.163 2.993l-1.65-1.32c.837-.463 1.481-1.212 1.814-2.109.333-.897.333-1.885 0-2.782S12.737 6.983 11.9 6.52zm-7.1 0L8.1 6.48c-.837.463-1.481 1.212-1.814 2.109-.333.897-.333 1.885 0 2.782s.977 1.646 1.814 2.109l-1.65 1.36c-1.018-.746-1.775-1.793-2.163-2.993-.388-1.201-.388-2.493 0-3.694.388-1.2 1.145-2.247 2.163-2.993zm10.29-2.55c1.374 1.253 2.372 2.865 2.881 4.653.509 1.789.509 3.685 0 5.474-.509 1.788-1.507 3.4-2.881 4.653l-1.59-1.27c1.193-1.004 2.067-2.336 2.513-3.83.446-1.494.446-3.086 0-4.58-.446-1.494-1.32-2.826-2.513-3.83zm-13.48 0l1.59 1.27C3.657 4.884 2.783 6.216 2.337 7.71c-.446 1.494-.446 3.086 0 4.58.446 1.494 1.32 2.826 2.513 3.83l-1.59 1.27C1.886 16.137.888 14.525.379 12.737c-.509-1.789-.509-3.685 0-5.474.509-1.788 1.507-3.4 2.881-4.653z" fill="#14866d" fill-rule="evenodd"/></g></svg>