<?xml version="1.0" encoding="utf-8"?>
<svg version="1.1" xmlns:xlink="http://www.w3.org/1999/xlink" width="117px" height="18px" xmlns="http://www.w3.org/2000/svg">
  <g transform="matrix(1 0 0 1 -56 -17 )">
    <path d="M 55.2 5.19000000000001  C 56.26 5.19000000000001  56.88 5.24000000000001  57.94 5.24000000000001  C 58.61 5.24000000000001  59.65 5.19000000000001  60.56 5.19000000000001  C 64.07 5.19000000000001  64.81 7.04000000000001  64.81 8.42000000000001  C 64.83523 9.55827400000001  64.38017 10.654597  63.55629 11.440425  C 62.73241 12.226253  61.6158 12.628996  60.48 12.55  C 59.96919 12.552929  59.46396 12.443691  59 12.23  C 59 12.23  59 14.23  59 14.23  C 59 16.389999  59.25 16.49  60.76 16.6  C 60.90577 16.871679  60.85578 17.1983223  60.71 17.4700012  C 59.65 17.4700012  59.03 17.420002  57.97 17.420002  C 56.91 17.420002  56.24 17.420002  55.2 17.4700012  C 55.05239 17.198782  55.05239 16.871218  55.2 16.6  C 56.71 16.470001  56.98 16.390001  56.98 14.190001  C 56.98 14.190001  56.98 8.47000000000001  56.98 8.47000000000001  C 56.98 6.27000000000001  56.71 6.17000000000001  55.2 6.06000000000001  C 55.05239 5.78878000000001  55.05239 5.46122000000001  55.2 5.19000000000001  Z M 78.8099999999999 16.589998  C 80.3200099999999 16.459999  80.5899999999999 16.379999  80.5899999999999 14.179998  C 80.5899999999999 14.179998  80.5899999999999 8.47000000000001  80.5899999999999 8.47000000000001  C 80.5899999999999 6.27000000000001  80.3200099999999 6.17000000000001  78.8100099999999 6.06000000000001  C 78.6624 5.78878000000001  78.6624 5.46122000000001  78.8099999999999 5.19000000000001  C 79.8699999999999 5.19000000000001  80.49001 5.24000000000001  81.55 5.24000000000001  C 81.9999999999999 5.24000000000001  84.1999999999999 5.19000000000001  84.8399999999999 5.19000000000001  C 88.9999999999999 5.19000000000001  90.9999999999999 7.94000000000001  90.9999999999999 11.46  C 90.9999999999999 16.09  87.9399999999999 17.4599991  85.1899999999999 17.4599991  C 83.1899999999999 17.4599991  82.32 17.4099998  81.5799999999999 17.4099998  C 80.49001 17.4099998  79.85 17.4099998  78.8100099999999 17.4599991  C 78.6624 17.1887798  78.6624 16.861216  78.8099999999999 16.589998  Z M 105.14 11.45  C 105.14 11.45  103.78 15.29  103.78 15.29  C 103.4 16.42  104.56 16.530001  105.49 16.6  C 105.6376 16.87122  105.6276 17.1987839  105.48 17.4699993  C 104.57 17.4700012  103.33 17.420002  102.32 17.420002  C 101.31 17.420002  101.04 17.420002  100.12 17.4700012  C 99.97421 17.1983223  99.97421 16.871679  100.12 16.6  C 101.2936 16.666021  102.341 15.868814  102.59 14.72  C 102.59 14.72  108.09 0.95000000000001  108.09 0.95000000000001  C 108.37 0.240000000000009  108.56 0  108.92 0  C 109.28 0  109.41 0.280000000000012  109.59 0.800000000000011  C 109.59 0.800000000000011  114.66 15.150001  114.66 15.150001  C 115.12 16.51  115.93 16.51  116.88 16.610001  C 117.0276 16.881218  117.0276 17.2087822  116.88 17.4800014  C 115.97 17.4800014  115.08 17.4300022  114.06 17.4300022  C 113.04 17.4300022  111.74 17.4300022  110.82 17.4800014  C 110.6742 17.2083225  110.6742 16.88168  110.82 16.610001  C 112 16.52  113.02 16.610001  112.65 15.530001  C 112.65 15.530001  111.15 11  111.15 11  C 111.15 11  106 11  106 11  C 105.41 11  105.26 11.1  105.14 11.45  Z M 12.76 8.28000000000001  C 12.76 8.28000000000001  10.72 3.58000000000001  10.72 3.58000000000001  C 9.90000000000001 1.70000000000001  9.7 1.33000000000001  8.64 1.17000000000001  C 8.494218 0.898320000000009  8.494218 0.571680000000008  8.64 0.300000000000011  C 9.43000000000001 0.300000000000011  9.85000000000001 0.350000000000009  10.84 0.350000000000009  C 11.83 0.350000000000009  12.2 0.350000000000009  13.09 0.300000000000011  C 13.2376 0.571220000000011  13.2376 0.898780000000009  13.09 1.17000000000001  C 12.09 1.33000000000001  12.15 1.78000000000001  12.83 3.29000000000001  C 12.83 3.29000000000001  14 6.00000000000001  14 6.00000000000001  L 14.11 6.12000000000001  C 14.11 6.12000000000001  15.42 3.49000000000001  15.42 3.49000000000001  C 16.18 1.96000000000001  16.28 1.37000000000001  15.22 1.21000000000001  C 15.05874 0.923570000000009  15.06255 0.572860000000009  15.23 0.29000000000001  C 16.14 0.29000000000001  16.61 0.340000000000011  17.23 0.340000000000011  C 17.85 0.340000000000011  18.42 0.340000000000011  19.03 0.29000000000001  C 19.17578 0.56168000000001  19.17578 0.888320000000011  19.03 1.16000000000001  C 17.75 1.37000000000001  17.21 2.38000000000001  16.6 3.62000000000001  C 16.6 3.62000000000001  14.75 7.31000000000001  14.75 7.31000000000001  L 17.91 14.309999  C 17.91 14.309999  22.72 3.44000000000001  22.72 3.44000000000001  C 23.31 2.01000000000001  23.26 1.30000000000001  21.66 1.16000000000001  C 21.51239 0.888780000000008  21.51239 0.561220000000009  21.66 0.29000000000001  C 22.82 0.29000000000001  23.54 0.340000000000011  24.11 0.340000000000011  C 24.68 0.340000000000011  25.3 0.340000000000011  26.28 0.29000000000001  C 26.4276 0.561220000000009  26.4276 0.888780000000008  26.28 1.16000000000001  C 24.65 1.37000000000001  24.37 2.38000000000001  23.85 3.62000000000001  C 23.85 3.62000000000001  18 17.1299992  18 17.1299992  C 17.83 17.5299988  17.68 17.7399998  17.41 17.7399998  C 17.14 17.7399998  16.97 17.5300007  16.84 17.1299992  C 16.84 17.1299992  13.52 9.44000000000001  13.52 9.44000000000001  C 13.52 9.44000000000001  9.87 17.1299992  9.87 17.1299992  C 9.72 17.5299988  9.55000000000001 17.7399998  9.28 17.7399998  C 9.00999899999999 17.7399998  8.86 17.5300007  8.71000000000001 17.1299992  C 8.71000000000001 17.1299992  3.34 3.58000000000001  3.34 3.58000000000001  C 2.58 1.70000000000001  2.53 1.30000000000001  1.12 1.17000000000001  C 0.962472269999999 0.899620000000009  0.95491878 0.567260000000008  1.1 0.29000000000001  C 2.26000000000001 0.29000000000001  2.68 0.340000000000011  3.67 0.340000000000011  C 4.66 0.340000000000011  5.25000000000001 0.320000000000011  6.41 0.29000000000001  C 6.557604 0.561220000000009  6.557604 0.888780000000008  6.41 1.16000000000001  C 4.85 1.34000000000001  4.79000000000001 1.76000000000001  5.41 3.28000000000001  C 5.41 3.28000000000001  9.93000000000001 14.28  9.93000000000001 14.28  L 12.76 8.28000000000001  Z M 28.55 17.420002  C 27.49 17.420002  26.82 17.420002  25.78 17.4700012  C 25.63421 17.1983223  25.63422 16.871679  25.78 16.6  C 27.29 16.470001  27.56 16.390001  27.56 14.190001  C 27.56 14.190001  27.56 8.47000000000001  27.56 8.47000000000001  C 27.56 6.27000000000001  27.29 6.17000000000001  25.78 6.06000000000001  C 25.63421 5.78832000000001  25.63422 5.46168000000001  25.78 5.19000000000001  C 26.84 5.19000000000001  27.46 5.24000000000001  28.52 5.24000000000001  C 29.58 5.24000000000001  30.25 5.24000000000001  31.29 5.19000000000001  C 31.4376 5.46122000000001  31.4376 5.78878000000001  31.29 6.06000000000001  C 29.78 6.19000000000001  29.51 6.27000000000001  29.51 8.47000000000001  C 29.51 8.47000000000001  29.51 14.190001  29.51 14.19  C 29.51 16.389999  29.78 16.49  31.29 16.6  C 31.4376 16.87122  31.4376 17.1987839  31.29 17.4699993  C 30.23 17.4700012  29.61 17.420002  28.55 17.420002  Z M 41.64 15.999998  C 41.64 15.999998  38.9 12.39  38.9 12.39  C 38.53082 11.930136  37.95784 11.682969  37.37 11.73  C 37.37 11.73  37.37 14.190001  37.37 14.190001  C 37.37 16.390001  37.59 16.470001  38.78 16.6  C 38.92579 16.871679  38.92579 17.1983223  38.78 17.4700012  C 37.72 17.4700012  37.32 17.420002  36.41 17.420002  C 35.32 17.420002  34.68 17.420002  33.64 17.4700012  C 33.49422 17.1983223  33.49422 16.871679  33.64 16.6  C 35.15 16.470001  35.42 16.390001  35.42 14.190001  C 35.42 14.190001  35.42 8.47000000000001  35.42 8.47000000000001  C 35.41 6.27000000000001  35.14 6.19000000000001  33.63 6.06000000000001  C 33.48421 5.78832000000001  33.48421 5.46168000000001  33.63 5.19000000000001  C 34.63 5.19000000000001  35.31 5.24000000000001  36.4 5.24000000000001  C 37.31 5.24000000000001  37.71 5.24000000000001  38.77 5.19000000000001  C 38.91578 5.46168000000001  38.91578 5.78832000000001  38.77 6.06000000000001  C 37.58 6.19000000000001  37.36 6.27000000000001  37.36 8.46999900000001  C 37.36 8.46999900000001  37.36 10.83  37.36 10.83  C 38.17 10.83  38.9 10.41  39.95 9.13999900000001  C 41.85 6.84000000000001  42.1 6.14000000000001  40.86 6.07000000000001  C 40.71239 5.79878000000001  40.71239 5.47122000000001  40.86 5.20000000000001  C 41.92 5.20000000000001  42.86 5.25000000000001  43.58 5.25000000000001  C 44.3 5.25000000000001  44.64 5.25000000000001  45.31 5.20000000000001  C 45.45578 5.47168000000001  45.45578 5.79832000000001  45.31 6.07000000000001  C 44.3051 6.00834000000001  43.32891 6.41878000000001  42.67 7.18000000000001  C 42.67 7.18000000000001  40.55 9.79000000000001  40.55 9.79000000000001  C 40.13 10.27  39.98 10.559999  39.98 10.79  C 40.00113 10.960327  40.07856 11.118711  40.2 11.239999  C 40.2 11.239999  43.86 15.85  43.86 15.85  C 44.27096 16.296413  44.83518 16.571384  45.44 16.619999  C 45.58784 16.884052  45.58784 17.2059498  45.44 17.4700012  C 45.44 17.4700012  43.54 17.4700012  43.54 17.4700012  C 42.9 17.4700012  42.28 17.4700012  42.01 17.5200005  C 42.01 17.5200005  42.01 17.1  42.01 17.1  C 42.04769 16.697517  41.91327 16.297886  41.64 15.999998  Z M 47.27 16.6  C 48.77999 16.470001  49.05 16.390001  49.05 14.190001  C 49.05 14.190001  49.05 8.47000000000001  49.05 8.47000000000001  C 49.05 6.27000000000001  48.77999 6.17000000000001  47.27 6.06000000000001  C 47.12421 5.78832000000001  47.12421 5.46168000000001  47.27 5.19000000000001  C 48.33 5.19000000000001  48.95 5.24000000000001  50.01 5.24000000000001  C 51.07 5.24000000000001  51.74 5.24000000000001  52.78 5.19000000000001  C 52.9276 5.46122000000001  52.9276 5.78878000000001  52.77999 6.06000000000001  C 51.32 6.20000000000001  51 6.27000000000001  51 8.47000000000001  C 51 8.47000000000001  51 14.190001  51 14.19  C 51 16.389999  51.27 16.49  52.78 16.6  C 52.9276 16.87122  52.9276 17.1987839  52.77999 17.4699993  C 51.72 17.4700012  51.1 17.420002  50.04 17.420002  C 48.98 17.420002  48.31 17.420002  47.27 17.4700012  C 47.12421 17.1983223  47.12421 16.871679  47.27 16.6  Z M 73.58 9.13999900000001  C 73.79102 9.00784700000001  74.05899 9.00784700000001  74.27 9.13999900000001  C 74.27 9.79999900000001  74.27 10.28  74.27 11.02  C 74.27 11.759999  74.27 12.19  74.27 12.95  C 74.05899 13.08215  73.79102 13.082152  73.58 12.949999  C 73.53 11.95  73.58 11.469999  71.88 11.469999  C 71.88 11.469999  70.46 11.469999  70.46 11.469999  C 70.46 11.469999  70.49 15.46  70.49 15.46  C 70.49 15.96  70.84 16.630001  71.28 16.630001  C 71.28 16.630001  73.33 16.630001  73.33 16.630001  C 74.89 16.630001  75.6 15.310001  76 13.740002  C 76.2346 13.667436  76.4896 13.708086  76.69 13.849998  C 76.50517 15.078388  76.25819 16.296619  75.95001 17.5000019  C 75.95 17.5000019  74.32001 17.4500027  73.33 17.4500027  C 73.33 17.4500027  69.5 17.4500027  69.5 17.4500027  C 69.5 17.4500027  66.73 17.5000019  66.73 17.5000019  C 66.58423 17.2283211  66.58423 16.90168  66.73 16.630001  C 68.24001 16.500002  68.51 16.420002  68.51 14.220001  C 68.51 14.220001  68.51 8.47000000000001  68.51 8.47000000000001  C 68.51 6.27000000000001  68.24001 6.17000000000001  66.73 6.06000000000001  C 66.58423 5.78832000000001  66.58423 5.46168000000001  66.73 5.19000000000001  C 66.73 5.19000000000001  69.47 5.24000000000001  69.47 5.24000000000001  C 69.47 5.24000000000001  74.58 5.24000000000001  74.58 5.24000000000001  C 74.91581 5.23961000000001  75.25076 5.20611000000001  75.58 5.14000000000001  C 75.63 5.14000000000001  75.65 5.14000000000001  75.65 5.22000000000001  C 75.65 5.30000000000001  76 7.47000000000001  76.09 8.37000100000001  C 75.88519 8.48073800000001  75.65137 8.52610400000001  75.42001 8.50000000000001  C 75 7.00000000000001  74.69 6.12000000000001  73.16 6.12000000000001  C 73.16 6.12000000000001  71.26 6.12000000000001  71.26 6.12000000000001  C 71.05371 6.09974000000001  70.84869 6.16937000000001  70.6974 6.31107000000001  C 70.54612 6.45278000000001  70.46325 6.65282000000001  70.47 6.86000000000001  C 70.47 6.86000000000001  70.47 10.62  70.47 10.62  C 70.47 10.62  71.88 10.62  71.88 10.62  C 73.61001 10.62  73.53001 10.33  73.58 9.13999900000001  Z M 95.7 5.24000000000001  C 96.75999 5.24000000000001  97.43 5.24000000000001  98.46999 5.19000000000001  C 98.61577 5.46168000000001  98.61577 5.78832000000001  98.46999 6.06000000000001  C 97 6.20000000000001  96.7 6.27000000000001  96.7 8.47000000000001  C 96.7 8.47000000000001  96.68999 14.190001  96.68999 14.190001  C 96.68999 16.390001  96.95999 16.49  98.46999 16.6  C 98.61577 16.871679  98.61578 17.1983223  98.46999 17.4700012  C 97.41 17.4700012  96.78999 17.420002  95.73 17.420002  C 94.67 17.420002  93.99999 17.420002  92.96 17.4700012  C 92.81422 17.1983223  92.81422 16.871679  92.96 16.6  C 94.47 16.470001  94.74 16.390001  94.74 14.190001  C 94.74 14.190001  94.74 8.47000000000001  94.74 8.47000000000001  C 94.74 6.27000000000001  94.47 6.17000000000001  92.96 6.06000000000001  C 92.81422 5.78832000000001  92.81422 5.46168000000001  92.96 5.19000000000001  C 94.02 5.19000000000001  94.64 5.24000000000001  95.7 5.24000000000001  Z M 62.74 8.73000000000001  C 62.74 6.79000000000001  61.95 6.06000000000001  60.49 6.06000000000001  C 59.3 6.06000000000001  59.01 6.40000000000001  59.01 7.25000000000001  C 59.01 7.25000000000001  59 11.38  59 11.38  C 59.5131 11.579042  60.0597 11.677499  60.61 11.67  C 62.09 11.67  62.74 10.67  62.74 8.73000000000001  Z M 84.59 16.6  C 87.31 16.6  88.84 15.6  88.84 11.91  C 88.84 9.16000000000001  88.27 6.06000000000001  84.12 6.06000000000001  C 83.12 6.06000000000001  82.53999 6.22000000000001  82.53999 6.88000000000001  C 82.53999 6.88000000000001  82.53999 15.400001  82.53999 15.400001  C 82.54 16.15  82.72 16.6  84.59 16.6  Z M 105.81 9.58000000000001  C 105.71 9.87000000000001  105.88 9.93000000000001  106.43 9.93000000000001  C 106.43 9.93000000000001  110.74 9.93000000000001  110.74 9.93000000000001  L 108.34 2.86000000000001  C 108.34 2.86000000000001  105.81 9.58000000000001  105.81 9.58000000000001  Z " fill-rule="nonzero" fill="#54595d" stroke="none" transform="matrix(1 0 0 1 56 17 )" />
  </g>
</svg>