<?xml version="1.0" encoding="utf-8"?>
<svg version="1.1" xmlns:xlink="http://www.w3.org/1999/xlink" width="20px" height="20px" xmlns="http://www.w3.org/2000/svg">
  <g transform="matrix(1 0 0 1 -16 -16 )">
    <path d="M 11.634 13.755  C 11.634 13.755  17.879 20  17.879 20  L 20 17.879  C 20 17.879  13.755 11.634  13.755 11.634  C 14.54 10.448  15 9.028  15 7.5  C 15 3.357  11.642 0  7.5 0  C 3.358 0  0 3.357  0 7.5  C 0 11.643  3.358 15  7.5 15  C 9.02799999999999 15  10.448 14.54  11.634 13.755  Z M 7.5 12.5  C 4.739 12.5  2.5 10.262  2.5 7.5  C 2.5 4.738  4.739 2.5  7.5 2.5  C 10.261 2.5  12.5 4.738  12.5 7.5  C 12.5 10.262  10.261 12.5  7.5 12.5  Z " fill-rule="nonzero" fill="#54595d" stroke="none" transform="matrix(1 0 0 1 16 16 )" />
  </g>
</svg>