<?xml version="1.0" encoding="utf-8"?>
<svg version="1.1" xmlns:xlink="http://www.w3.org/1999/xlink" width="18px" height="21px" xmlns="http://www.w3.org/2000/svg">
  <g transform="matrix(1 0 0 1 -97 -16 )">
    <path d="M 18 20  L 0 20  C 0 20.0004  0 16.6704  0 16.6704  C 0 14.4404  2.33999999999997 11.1104  9 11.1104  C 15.66 11.1104  18 14.4404  18 16.6704  C 18 16.6704  18 20.0004  18 20  Z M 9 0.000400000000009726  C 11.8 0.000400000000009726  14.06 2.24040000000001  14.06 5.00040000000001  C 14.06 7.75940000000001  11.8 10.0004  9 10.0004  C 6.19999999999999 10.0004  3.94 7.75940000000001  3.94 5.00040000000001  C 3.94 2.24040000000001  6.19999999999999 0.000400000000009726  9 0.000400000000009726  Z M 16 18  C 16 18.0004  16 16.6704  16 16.6704  C 16 14.9204  13.69 13.1104  9 13.1104  C 4.31 13.1104  2 14.9204  2 16.6704  C 2 16.6704  2 18.0004  2 18  L 16 18  Z M 5.94 5.00040000000001  C 5.94 6.65040000000001  7.30000000000001 8.00040000000001  9 8.00040000000001  C 10.7 8.00040000000001  12.06 6.65040000000001  12.06 5.00040000000001  C 12.06 3.34940000000001  10.7 2.00040000000001  9 2.00040000000001  C 7.30000000000001 2.00040000000001  5.94 3.34940000000001  5.94 5.00040000000001  Z " fill-rule="nonzero" fill="#54595d" stroke="none" transform="matrix(1 0 0 1 97 16 )" />
  </g>
</svg>